%
M48
M72
T01C0.01181
T02C0.01969
T03C0.04000
%
T01
X74533Y82600
X59533Y85600
X61533Y45600
X87533Y44600
X78533Y108600
X117133Y98600
X117088Y69600
X240533Y80000
X252533Y89600
X101333Y83800
X81933Y157800
X84933Y65600
X84933Y74000
X59533Y53600
X58533Y34600
X81533Y84600
X70533Y96600
X66533Y84600
X71533Y126600
X71533Y84600
X71533Y135600
X87533Y57600
X71533Y15600
X82533Y57600
X63533Y15600
X75533Y31600
X113933Y79800
X84533Y35600
X112933Y87800
X87733Y90200
X123533Y108796
X46933Y77800
X61933Y82800
T02
X67533Y71600
X74533Y71600
X74533Y64600
X67533Y64600
X70933Y68000
T03
X30933Y51800
X30933Y61800
X30933Y71800
X30933Y81800
X30933Y91800
X30933Y101800
X30933Y111800
X30933Y121800
M30
