G75*
%MOIN*%
%OFA0B0*%
%FSLAX25Y25*%
%IPPOS*%
%LPD*%
%AMOC8*
5,1,8,0,0,1.08239X$1,22.5*
%
%ADD10C,0.00000*%
%ADD11R,0.01378X0.02165*%
%ADD12R,0.02165X0.01378*%
%ADD13R,0.14764X0.14764*%
%ADD14R,0.04652X0.04534*%
%ADD15R,0.04731X0.04337*%
%ADD16R,0.08000X0.21400*%
%ADD17R,0.02093X0.01502*%
%ADD18R,0.04337X0.04337*%
%ADD19R,0.04534X0.04652*%
%ADD20C,0.06400*%
%ADD21R,0.07498X0.06699*%
%ADD22C,0.00001*%
D10*
X0021911Y0017616D02*
X0021911Y0148679D01*
X0021910Y0148679D02*
X0021915Y0149064D01*
X0021929Y0149450D01*
X0021953Y0149835D01*
X0021987Y0150219D01*
X0022029Y0150603D01*
X0022082Y0150985D01*
X0022143Y0151366D01*
X0022214Y0151745D01*
X0022294Y0152122D01*
X0022383Y0152498D01*
X0022482Y0152871D01*
X0022589Y0153241D01*
X0022706Y0153609D01*
X0022832Y0153974D01*
X0022966Y0154335D01*
X0023110Y0154693D01*
X0023262Y0155048D01*
X0023423Y0155399D01*
X0023592Y0155745D01*
X0023770Y0156088D01*
X0023956Y0156426D01*
X0024150Y0156759D01*
X0024353Y0157087D01*
X0024563Y0157411D01*
X0024781Y0157729D01*
X0025007Y0158041D01*
X0025241Y0158348D01*
X0025482Y0158650D01*
X0025730Y0158945D01*
X0025986Y0159234D01*
X0026249Y0159516D01*
X0026518Y0159792D01*
X0026794Y0160062D01*
X0027077Y0160324D01*
X0027366Y0160580D01*
X0027661Y0160828D01*
X0027962Y0161070D01*
X0028269Y0161303D01*
X0028582Y0161529D01*
X0028900Y0161747D01*
X0029223Y0161958D01*
X0029552Y0162160D01*
X0029885Y0162355D01*
X0030223Y0162541D01*
X0030565Y0162719D01*
X0030912Y0162888D01*
X0031263Y0163049D01*
X0031617Y0163201D01*
X0031975Y0163344D01*
X0032337Y0163479D01*
X0032702Y0163604D01*
X0033070Y0163721D01*
X0033440Y0163828D01*
X0033813Y0163927D01*
X0034188Y0164016D01*
X0034566Y0164096D01*
X0034945Y0164167D01*
X0035326Y0164229D01*
X0035708Y0164281D01*
X0036091Y0164323D01*
X0036476Y0164357D01*
X0036861Y0164381D01*
X0037246Y0164395D01*
X0037632Y0164400D01*
X0037633Y0164400D02*
X0245533Y0164400D01*
X0245533Y0164399D02*
X0245866Y0164349D01*
X0246197Y0164291D01*
X0246528Y0164225D01*
X0246856Y0164151D01*
X0247183Y0164070D01*
X0247507Y0163980D01*
X0247829Y0163882D01*
X0248149Y0163777D01*
X0248466Y0163664D01*
X0248780Y0163544D01*
X0249092Y0163416D01*
X0249400Y0163280D01*
X0249705Y0163137D01*
X0250006Y0162987D01*
X0250303Y0162829D01*
X0250597Y0162664D01*
X0250886Y0162493D01*
X0251172Y0162314D01*
X0251452Y0162128D01*
X0251729Y0161936D01*
X0252000Y0161737D01*
X0252267Y0161532D01*
X0252529Y0161320D01*
X0252785Y0161102D01*
X0253036Y0160878D01*
X0253282Y0160647D01*
X0253522Y0160411D01*
X0253756Y0160169D01*
X0253984Y0159922D01*
X0254207Y0159669D01*
X0254423Y0159411D01*
X0254632Y0159148D01*
X0254836Y0158879D01*
X0255032Y0158606D01*
X0255223Y0158329D01*
X0255406Y0158046D01*
X0255583Y0157760D01*
X0255752Y0157469D01*
X0255914Y0157174D01*
X0256070Y0156875D01*
X0256218Y0156573D01*
X0256358Y0156267D01*
X0256492Y0155958D01*
X0256617Y0155646D01*
X0256735Y0155330D01*
X0256846Y0155012D01*
X0256949Y0154692D01*
X0257044Y0154369D01*
X0257131Y0154044D01*
X0257210Y0153717D01*
X0257281Y0153388D01*
X0257345Y0153057D01*
X0257400Y0152725D01*
X0257447Y0152392D01*
X0257487Y0152057D01*
X0257518Y0151722D01*
X0257541Y0151386D01*
X0257556Y0151050D01*
X0257563Y0150713D01*
X0257561Y0150377D01*
X0257552Y0150040D01*
X0257534Y0149704D01*
X0257508Y0149368D01*
X0257475Y0149034D01*
X0257433Y0148700D01*
X0257415Y0013710D01*
X0257412Y0013425D01*
X0257402Y0013140D01*
X0257385Y0012855D01*
X0257361Y0012570D01*
X0257330Y0012286D01*
X0257293Y0012003D01*
X0257248Y0011721D01*
X0257197Y0011440D01*
X0257139Y0011161D01*
X0257074Y0010883D01*
X0257003Y0010606D01*
X0256925Y0010332D01*
X0256840Y0010059D01*
X0256748Y0009788D01*
X0256651Y0009520D01*
X0256546Y0009254D01*
X0256436Y0008991D01*
X0256319Y0008731D01*
X0256195Y0008473D01*
X0256066Y0008219D01*
X0255930Y0007968D01*
X0255788Y0007720D01*
X0255641Y0007475D01*
X0255487Y0007235D01*
X0255328Y0006998D01*
X0255163Y0006765D01*
X0254992Y0006536D01*
X0254816Y0006311D01*
X0254635Y0006091D01*
X0254448Y0005875D01*
X0254256Y0005663D01*
X0254059Y0005456D01*
X0253858Y0005255D01*
X0253651Y0005058D01*
X0253439Y0004866D01*
X0253223Y0004679D01*
X0253003Y0004498D01*
X0252778Y0004322D01*
X0252549Y0004151D01*
X0252316Y0003986D01*
X0252079Y0003827D01*
X0251839Y0003673D01*
X0251594Y0003526D01*
X0251346Y0003384D01*
X0251095Y0003248D01*
X0250841Y0003119D01*
X0250583Y0002995D01*
X0250323Y0002878D01*
X0250060Y0002768D01*
X0249794Y0002663D01*
X0249526Y0002566D01*
X0249255Y0002474D01*
X0248982Y0002389D01*
X0248708Y0002311D01*
X0248431Y0002240D01*
X0248153Y0002175D01*
X0247874Y0002117D01*
X0247593Y0002066D01*
X0247311Y0002021D01*
X0247028Y0001984D01*
X0246744Y0001953D01*
X0246459Y0001929D01*
X0246174Y0001912D01*
X0245889Y0001902D01*
X0245604Y0001899D01*
X0037628Y0001868D01*
X0037242Y0001874D01*
X0036856Y0001888D01*
X0036471Y0001913D01*
X0036087Y0001947D01*
X0035703Y0001990D01*
X0035321Y0002043D01*
X0034940Y0002105D01*
X0034560Y0002176D01*
X0034183Y0002256D01*
X0033807Y0002346D01*
X0033434Y0002445D01*
X0033064Y0002553D01*
X0032696Y0002671D01*
X0032331Y0002797D01*
X0031969Y0002932D01*
X0031611Y0003076D01*
X0031256Y0003228D01*
X0030906Y0003390D01*
X0030559Y0003559D01*
X0030217Y0003738D01*
X0029879Y0003924D01*
X0029545Y0004119D01*
X0029217Y0004322D01*
X0028894Y0004533D01*
X0028576Y0004752D01*
X0028263Y0004978D01*
X0027956Y0005212D01*
X0027655Y0005454D01*
X0027360Y0005703D01*
X0027071Y0005959D01*
X0026789Y0006222D01*
X0026513Y0006491D01*
X0026243Y0006768D01*
X0025981Y0007051D01*
X0025725Y0007340D01*
X0025477Y0007636D01*
X0025236Y0007938D01*
X0025003Y0008245D01*
X0024777Y0008558D01*
X0024559Y0008877D01*
X0024348Y0009200D01*
X0024146Y0009529D01*
X0023952Y0009863D01*
X0023766Y0010201D01*
X0023588Y0010544D01*
X0023419Y0010891D01*
X0023259Y0011242D01*
X0023107Y0011597D01*
X0022964Y0011955D01*
X0022829Y0012317D01*
X0022704Y0012682D01*
X0022587Y0013050D01*
X0022480Y0013421D01*
X0022382Y0013794D01*
X0022293Y0014170D01*
X0022213Y0014548D01*
X0022142Y0014927D01*
X0022081Y0015308D01*
X0022029Y0015691D01*
X0021987Y0016074D01*
X0021954Y0016459D01*
X0021930Y0016844D01*
X0021916Y0017230D01*
X0021911Y0017616D01*
X0238227Y0108663D02*
X0244489Y0108663D01*
X0241490Y0111794D01*
X0238227Y0108663D01*
D11*
X0077753Y0077033D03*
X0075785Y0077033D03*
X0073816Y0077033D03*
X0071848Y0077033D03*
X0069879Y0077033D03*
X0067911Y0077033D03*
X0065942Y0077033D03*
X0063974Y0077033D03*
X0063974Y0058923D03*
X0065942Y0058923D03*
X0067911Y0058923D03*
X0069879Y0058923D03*
X0071848Y0058923D03*
X0073816Y0058923D03*
X0075785Y0058923D03*
X0077753Y0058923D03*
D12*
X0079919Y0061088D03*
X0079919Y0063057D03*
X0079919Y0065025D03*
X0079919Y0066994D03*
X0079919Y0068962D03*
X0079919Y0070931D03*
X0079919Y0072899D03*
X0079919Y0074868D03*
X0061808Y0074868D03*
X0061808Y0072899D03*
X0061808Y0070931D03*
X0061808Y0068962D03*
X0061808Y0066994D03*
X0061808Y0065025D03*
X0061808Y0063057D03*
X0061808Y0061088D03*
D13*
X0070863Y0067978D03*
D14*
X0075533Y0045045D03*
X0084533Y0045045D03*
X0084533Y0038155D03*
X0075533Y0038155D03*
X0059155Y0037986D03*
X0059155Y0044876D03*
X0059533Y0090155D03*
X0059533Y0097045D03*
X0084533Y0097045D03*
X0084533Y0090155D03*
X0084655Y0112486D03*
X0084655Y0119376D03*
X0084155Y0144486D03*
X0084155Y0151376D03*
D15*
X0075533Y0096946D03*
X0067533Y0096946D03*
X0067533Y0090254D03*
X0075533Y0090254D03*
X0067533Y0044946D03*
X0067533Y0038254D03*
X0057933Y0026146D03*
X0057933Y0019454D03*
D16*
X0071655Y0113431D03*
X0071655Y0151431D03*
D17*
X0123533Y0112604D03*
X0123533Y0110596D03*
X0123933Y0060004D03*
X0123933Y0057996D03*
D18*
X0074533Y0026537D03*
X0066533Y0026537D03*
X0066533Y0018663D03*
X0074533Y0018663D03*
D19*
X0117088Y0065600D03*
X0123978Y0065600D03*
X0123978Y0073600D03*
X0117088Y0073600D03*
X0117088Y0080600D03*
X0123978Y0080600D03*
X0123978Y0087600D03*
X0117088Y0087600D03*
X0117088Y0094600D03*
X0123978Y0094600D03*
X0123978Y0102600D03*
X0117088Y0102600D03*
D20*
X0033933Y0101800D02*
X0027933Y0101800D01*
X0027933Y0091800D02*
X0033933Y0091800D01*
X0033933Y0081800D02*
X0027933Y0081800D01*
X0027933Y0071800D02*
X0033933Y0071800D01*
X0033933Y0061800D02*
X0027933Y0061800D01*
X0027933Y0051800D02*
X0033933Y0051800D01*
X0033933Y0111800D02*
X0027933Y0111800D01*
X0027933Y0121800D02*
X0033933Y0121800D01*
D21*
X0046933Y0028398D03*
X0046933Y0017202D03*
D22*
X0238227Y0108663D02*
X0244488Y0108663D01*
X0244487Y0108664D02*
X0238228Y0108664D01*
X0238229Y0108665D02*
X0244487Y0108665D01*
X0244486Y0108666D02*
X0238230Y0108666D01*
X0238231Y0108667D02*
X0244485Y0108667D01*
X0244484Y0108668D02*
X0238232Y0108668D01*
X0238234Y0108669D02*
X0244483Y0108669D01*
X0244482Y0108670D02*
X0238235Y0108670D01*
X0238236Y0108671D02*
X0244481Y0108671D01*
X0244480Y0108672D02*
X0238237Y0108672D01*
X0238238Y0108673D02*
X0244479Y0108673D01*
X0244478Y0108674D02*
X0238239Y0108674D01*
X0238240Y0108675D02*
X0244477Y0108675D01*
X0244476Y0108676D02*
X0238241Y0108676D01*
X0238242Y0108677D02*
X0244475Y0108677D01*
X0244474Y0108678D02*
X0238243Y0108678D01*
X0238244Y0108679D02*
X0244473Y0108679D01*
X0244472Y0108680D02*
X0238245Y0108680D01*
X0238246Y0108681D02*
X0244471Y0108681D01*
X0244470Y0108682D02*
X0238247Y0108682D01*
X0238248Y0108683D02*
X0244470Y0108683D01*
X0244469Y0108684D02*
X0238249Y0108684D01*
X0238250Y0108685D02*
X0244468Y0108685D01*
X0244467Y0108686D02*
X0238251Y0108686D01*
X0238252Y0108687D02*
X0244466Y0108687D01*
X0244465Y0108688D02*
X0238253Y0108688D01*
X0238254Y0108689D02*
X0244464Y0108689D01*
X0244463Y0108690D02*
X0238255Y0108690D01*
X0238256Y0108691D02*
X0244462Y0108691D01*
X0244461Y0108692D02*
X0238257Y0108692D01*
X0238258Y0108693D02*
X0244460Y0108693D01*
X0244459Y0108694D02*
X0238259Y0108694D01*
X0238260Y0108695D02*
X0244458Y0108695D01*
X0244457Y0108696D02*
X0238261Y0108696D01*
X0238262Y0108697D02*
X0244456Y0108697D01*
X0244455Y0108698D02*
X0238263Y0108698D01*
X0238264Y0108699D02*
X0244454Y0108699D01*
X0244454Y0108700D02*
X0238265Y0108700D01*
X0238266Y0108701D02*
X0244453Y0108701D01*
X0244452Y0108702D02*
X0238267Y0108702D01*
X0238268Y0108703D02*
X0244451Y0108703D01*
X0244450Y0108704D02*
X0238269Y0108704D01*
X0238270Y0108705D02*
X0244449Y0108705D01*
X0244448Y0108706D02*
X0238271Y0108706D01*
X0238273Y0108706D02*
X0244447Y0108706D01*
X0244446Y0108707D02*
X0238274Y0108707D01*
X0238275Y0108708D02*
X0244445Y0108708D01*
X0244444Y0108709D02*
X0238276Y0108709D01*
X0238277Y0108710D02*
X0244443Y0108710D01*
X0244442Y0108711D02*
X0238278Y0108711D01*
X0238279Y0108712D02*
X0244441Y0108712D01*
X0244440Y0108713D02*
X0238280Y0108713D01*
X0238281Y0108714D02*
X0244439Y0108714D01*
X0244438Y0108715D02*
X0238282Y0108715D01*
X0238283Y0108716D02*
X0244437Y0108716D01*
X0244437Y0108717D02*
X0238284Y0108717D01*
X0238285Y0108718D02*
X0244436Y0108718D01*
X0244435Y0108719D02*
X0238286Y0108719D01*
X0238287Y0108720D02*
X0244434Y0108720D01*
X0244433Y0108721D02*
X0238288Y0108721D01*
X0238289Y0108722D02*
X0244432Y0108722D01*
X0244431Y0108723D02*
X0238290Y0108723D01*
X0238291Y0108724D02*
X0244430Y0108724D01*
X0244429Y0108725D02*
X0238292Y0108725D01*
X0238293Y0108726D02*
X0244428Y0108726D01*
X0244427Y0108727D02*
X0238294Y0108727D01*
X0238295Y0108728D02*
X0244426Y0108728D01*
X0244425Y0108729D02*
X0238296Y0108729D01*
X0238297Y0108730D02*
X0244424Y0108730D01*
X0244423Y0108731D02*
X0238298Y0108731D01*
X0238299Y0108732D02*
X0244422Y0108732D01*
X0244421Y0108733D02*
X0238300Y0108733D01*
X0238301Y0108734D02*
X0244421Y0108734D01*
X0244420Y0108735D02*
X0238302Y0108735D01*
X0238303Y0108736D02*
X0244419Y0108736D01*
X0244418Y0108737D02*
X0238304Y0108737D01*
X0238305Y0108738D02*
X0244417Y0108738D01*
X0244416Y0108739D02*
X0238306Y0108739D01*
X0238307Y0108740D02*
X0244415Y0108740D01*
X0244414Y0108741D02*
X0238308Y0108741D01*
X0238309Y0108742D02*
X0244413Y0108742D01*
X0244412Y0108743D02*
X0238310Y0108743D01*
X0238311Y0108744D02*
X0244411Y0108744D01*
X0244410Y0108745D02*
X0238313Y0108745D01*
X0238314Y0108746D02*
X0244409Y0108746D01*
X0244408Y0108747D02*
X0238315Y0108747D01*
X0238316Y0108748D02*
X0244407Y0108748D01*
X0244406Y0108749D02*
X0238317Y0108749D01*
X0238318Y0108750D02*
X0244405Y0108750D01*
X0244404Y0108751D02*
X0238319Y0108751D01*
X0238320Y0108752D02*
X0244404Y0108752D01*
X0244403Y0108753D02*
X0238321Y0108753D01*
X0238322Y0108754D02*
X0244402Y0108754D01*
X0244401Y0108755D02*
X0238323Y0108755D01*
X0238324Y0108756D02*
X0244400Y0108756D01*
X0244399Y0108757D02*
X0238325Y0108757D01*
X0238326Y0108758D02*
X0244398Y0108758D01*
X0244397Y0108759D02*
X0238327Y0108759D01*
X0238328Y0108760D02*
X0244396Y0108760D01*
X0244395Y0108761D02*
X0238329Y0108761D01*
X0238330Y0108762D02*
X0244394Y0108762D01*
X0244393Y0108763D02*
X0238331Y0108763D01*
X0238332Y0108764D02*
X0244392Y0108764D01*
X0244391Y0108765D02*
X0238333Y0108765D01*
X0238334Y0108766D02*
X0244390Y0108766D01*
X0244389Y0108767D02*
X0238335Y0108767D01*
X0238336Y0108768D02*
X0244388Y0108768D01*
X0244388Y0108769D02*
X0238337Y0108769D01*
X0238338Y0108769D02*
X0244387Y0108769D01*
X0244386Y0108770D02*
X0238339Y0108770D01*
X0238340Y0108771D02*
X0244385Y0108771D01*
X0244384Y0108772D02*
X0238341Y0108772D01*
X0238342Y0108773D02*
X0244383Y0108773D01*
X0244382Y0108774D02*
X0238343Y0108774D01*
X0238344Y0108775D02*
X0244381Y0108775D01*
X0244380Y0108776D02*
X0238345Y0108776D01*
X0238346Y0108777D02*
X0244379Y0108777D01*
X0244378Y0108778D02*
X0238347Y0108778D01*
X0238348Y0108779D02*
X0244377Y0108779D01*
X0244376Y0108780D02*
X0238349Y0108780D01*
X0238350Y0108781D02*
X0244375Y0108781D01*
X0244374Y0108782D02*
X0238351Y0108782D01*
X0238353Y0108783D02*
X0244373Y0108783D01*
X0244372Y0108784D02*
X0238354Y0108784D01*
X0238355Y0108785D02*
X0244371Y0108785D01*
X0244371Y0108786D02*
X0238356Y0108786D01*
X0238357Y0108787D02*
X0244370Y0108787D01*
X0244369Y0108788D02*
X0238358Y0108788D01*
X0238359Y0108789D02*
X0244368Y0108789D01*
X0244367Y0108790D02*
X0238360Y0108790D01*
X0238361Y0108791D02*
X0244366Y0108791D01*
X0244365Y0108792D02*
X0238362Y0108792D01*
X0238363Y0108793D02*
X0244364Y0108793D01*
X0244363Y0108794D02*
X0238364Y0108794D01*
X0238365Y0108795D02*
X0244362Y0108795D01*
X0244361Y0108796D02*
X0238366Y0108796D01*
X0238367Y0108797D02*
X0244360Y0108797D01*
X0244359Y0108798D02*
X0238368Y0108798D01*
X0238369Y0108799D02*
X0244358Y0108799D01*
X0244357Y0108800D02*
X0238370Y0108800D01*
X0238371Y0108801D02*
X0244356Y0108801D01*
X0244355Y0108802D02*
X0238372Y0108802D01*
X0238373Y0108803D02*
X0244355Y0108803D01*
X0244354Y0108804D02*
X0238374Y0108804D01*
X0238375Y0108805D02*
X0244353Y0108805D01*
X0244352Y0108806D02*
X0238376Y0108806D01*
X0238377Y0108807D02*
X0244351Y0108807D01*
X0244350Y0108808D02*
X0238378Y0108808D01*
X0238379Y0108809D02*
X0244349Y0108809D01*
X0244348Y0108810D02*
X0238380Y0108810D01*
X0238381Y0108811D02*
X0244347Y0108811D01*
X0244346Y0108812D02*
X0238382Y0108812D01*
X0238383Y0108813D02*
X0244345Y0108813D01*
X0244344Y0108814D02*
X0238384Y0108814D01*
X0238385Y0108815D02*
X0244343Y0108815D01*
X0244342Y0108816D02*
X0238386Y0108816D01*
X0238387Y0108817D02*
X0244341Y0108817D01*
X0244340Y0108818D02*
X0238388Y0108818D01*
X0238389Y0108819D02*
X0244339Y0108819D01*
X0244339Y0108820D02*
X0238390Y0108820D01*
X0238391Y0108821D02*
X0244338Y0108821D01*
X0244337Y0108822D02*
X0238393Y0108822D01*
X0238394Y0108823D02*
X0244336Y0108823D01*
X0244335Y0108824D02*
X0238395Y0108824D01*
X0238396Y0108825D02*
X0244334Y0108825D01*
X0244333Y0108826D02*
X0238397Y0108826D01*
X0238398Y0108827D02*
X0244332Y0108827D01*
X0244331Y0108828D02*
X0238399Y0108828D01*
X0238400Y0108829D02*
X0244330Y0108829D01*
X0244329Y0108830D02*
X0238401Y0108830D01*
X0238402Y0108831D02*
X0244328Y0108831D01*
X0244327Y0108831D02*
X0238403Y0108831D01*
X0238404Y0108832D02*
X0244326Y0108832D01*
X0244325Y0108833D02*
X0238405Y0108833D01*
X0238406Y0108834D02*
X0244324Y0108834D01*
X0244323Y0108835D02*
X0238407Y0108835D01*
X0238408Y0108836D02*
X0244322Y0108836D01*
X0244322Y0108837D02*
X0238409Y0108837D01*
X0238410Y0108838D02*
X0244321Y0108838D01*
X0244320Y0108839D02*
X0238411Y0108839D01*
X0238412Y0108840D02*
X0244319Y0108840D01*
X0244318Y0108841D02*
X0238413Y0108841D01*
X0238414Y0108842D02*
X0244317Y0108842D01*
X0244316Y0108843D02*
X0238415Y0108843D01*
X0238416Y0108844D02*
X0244315Y0108844D01*
X0244314Y0108845D02*
X0238417Y0108845D01*
X0238418Y0108846D02*
X0244313Y0108846D01*
X0244312Y0108847D02*
X0238419Y0108847D01*
X0238420Y0108848D02*
X0244311Y0108848D01*
X0244310Y0108849D02*
X0238421Y0108849D01*
X0238422Y0108850D02*
X0244309Y0108850D01*
X0244308Y0108851D02*
X0238423Y0108851D01*
X0238424Y0108852D02*
X0244307Y0108852D01*
X0244306Y0108853D02*
X0238425Y0108853D01*
X0238426Y0108854D02*
X0244306Y0108854D01*
X0244305Y0108855D02*
X0238427Y0108855D01*
X0238428Y0108856D02*
X0244304Y0108856D01*
X0244303Y0108857D02*
X0238429Y0108857D01*
X0238430Y0108858D02*
X0244302Y0108858D01*
X0244301Y0108859D02*
X0238432Y0108859D01*
X0238433Y0108860D02*
X0244300Y0108860D01*
X0244299Y0108861D02*
X0238434Y0108861D01*
X0238435Y0108862D02*
X0244298Y0108862D01*
X0244297Y0108863D02*
X0238436Y0108863D01*
X0238437Y0108864D02*
X0244296Y0108864D01*
X0244295Y0108865D02*
X0238438Y0108865D01*
X0238439Y0108866D02*
X0244294Y0108866D01*
X0244293Y0108867D02*
X0238440Y0108867D01*
X0238441Y0108868D02*
X0244292Y0108868D01*
X0244291Y0108869D02*
X0238442Y0108869D01*
X0238443Y0108870D02*
X0244290Y0108870D01*
X0244289Y0108871D02*
X0238444Y0108871D01*
X0238445Y0108872D02*
X0244289Y0108872D01*
X0244288Y0108873D02*
X0238446Y0108873D01*
X0238447Y0108874D02*
X0244287Y0108874D01*
X0244286Y0108875D02*
X0238448Y0108875D01*
X0238449Y0108876D02*
X0244285Y0108876D01*
X0244284Y0108877D02*
X0238450Y0108877D01*
X0238451Y0108878D02*
X0244283Y0108878D01*
X0244282Y0108879D02*
X0238452Y0108879D01*
X0238453Y0108880D02*
X0244281Y0108880D01*
X0244280Y0108881D02*
X0238454Y0108881D01*
X0238455Y0108882D02*
X0244279Y0108882D01*
X0244278Y0108883D02*
X0238456Y0108883D01*
X0238457Y0108884D02*
X0244277Y0108884D01*
X0244276Y0108885D02*
X0238458Y0108885D01*
X0238459Y0108886D02*
X0244275Y0108886D01*
X0244274Y0108887D02*
X0238460Y0108887D01*
X0238461Y0108888D02*
X0244273Y0108888D01*
X0244273Y0108889D02*
X0238462Y0108889D01*
X0238463Y0108890D02*
X0244272Y0108890D01*
X0244271Y0108891D02*
X0238464Y0108891D01*
X0238465Y0108892D02*
X0244270Y0108892D01*
X0244269Y0108893D02*
X0238466Y0108893D01*
X0238467Y0108894D02*
X0244268Y0108894D01*
X0244267Y0108894D02*
X0238468Y0108894D01*
X0238469Y0108895D02*
X0244266Y0108895D01*
X0244265Y0108896D02*
X0238470Y0108896D01*
X0238472Y0108897D02*
X0244264Y0108897D01*
X0244263Y0108898D02*
X0238473Y0108898D01*
X0238474Y0108899D02*
X0244262Y0108899D01*
X0244261Y0108900D02*
X0238475Y0108900D01*
X0238476Y0108901D02*
X0244260Y0108901D01*
X0244259Y0108902D02*
X0238477Y0108902D01*
X0238478Y0108903D02*
X0244258Y0108903D01*
X0244257Y0108904D02*
X0238479Y0108904D01*
X0238480Y0108905D02*
X0244256Y0108905D01*
X0244256Y0108906D02*
X0238481Y0108906D01*
X0238482Y0108907D02*
X0244255Y0108907D01*
X0244254Y0108908D02*
X0238483Y0108908D01*
X0238484Y0108909D02*
X0244253Y0108909D01*
X0244252Y0108910D02*
X0238485Y0108910D01*
X0238486Y0108911D02*
X0244251Y0108911D01*
X0244250Y0108912D02*
X0238487Y0108912D01*
X0238488Y0108913D02*
X0244249Y0108913D01*
X0244248Y0108914D02*
X0238489Y0108914D01*
X0238490Y0108915D02*
X0244247Y0108915D01*
X0244246Y0108916D02*
X0238491Y0108916D01*
X0238492Y0108917D02*
X0244245Y0108917D01*
X0244244Y0108918D02*
X0238493Y0108918D01*
X0238494Y0108919D02*
X0244243Y0108919D01*
X0244242Y0108920D02*
X0238495Y0108920D01*
X0238496Y0108921D02*
X0244241Y0108921D01*
X0244240Y0108922D02*
X0238497Y0108922D01*
X0238498Y0108923D02*
X0244240Y0108923D01*
X0244239Y0108924D02*
X0238499Y0108924D01*
X0238500Y0108925D02*
X0244238Y0108925D01*
X0244237Y0108926D02*
X0238501Y0108926D01*
X0238502Y0108927D02*
X0244236Y0108927D01*
X0244235Y0108928D02*
X0238503Y0108928D01*
X0238504Y0108929D02*
X0244234Y0108929D01*
X0244233Y0108930D02*
X0238505Y0108930D01*
X0238506Y0108931D02*
X0244232Y0108931D01*
X0244231Y0108932D02*
X0238507Y0108932D01*
X0238508Y0108933D02*
X0244230Y0108933D01*
X0244229Y0108934D02*
X0238509Y0108934D01*
X0238510Y0108935D02*
X0244228Y0108935D01*
X0244227Y0108936D02*
X0238512Y0108936D01*
X0238513Y0108937D02*
X0244226Y0108937D01*
X0244225Y0108938D02*
X0238514Y0108938D01*
X0238515Y0108939D02*
X0244224Y0108939D01*
X0244223Y0108940D02*
X0238516Y0108940D01*
X0238517Y0108941D02*
X0244223Y0108941D01*
X0244222Y0108942D02*
X0238518Y0108942D01*
X0238519Y0108943D02*
X0244221Y0108943D01*
X0244220Y0108944D02*
X0238520Y0108944D01*
X0238521Y0108945D02*
X0244219Y0108945D01*
X0244218Y0108946D02*
X0238522Y0108946D01*
X0238523Y0108947D02*
X0244217Y0108947D01*
X0244216Y0108948D02*
X0238524Y0108948D01*
X0238525Y0108949D02*
X0244215Y0108949D01*
X0244214Y0108950D02*
X0238526Y0108950D01*
X0238527Y0108951D02*
X0244213Y0108951D01*
X0244212Y0108952D02*
X0238528Y0108952D01*
X0238529Y0108953D02*
X0244211Y0108953D01*
X0244210Y0108954D02*
X0238530Y0108954D01*
X0238531Y0108955D02*
X0244209Y0108955D01*
X0244208Y0108956D02*
X0238532Y0108956D01*
X0238533Y0108956D02*
X0244207Y0108956D01*
X0244207Y0108957D02*
X0238534Y0108957D01*
X0238535Y0108958D02*
X0244206Y0108958D01*
X0244205Y0108959D02*
X0238536Y0108959D01*
X0238537Y0108960D02*
X0244204Y0108960D01*
X0244203Y0108961D02*
X0238538Y0108961D01*
X0238539Y0108962D02*
X0244202Y0108962D01*
X0244201Y0108963D02*
X0238540Y0108963D01*
X0238541Y0108964D02*
X0244200Y0108964D01*
X0244199Y0108965D02*
X0238542Y0108965D01*
X0238543Y0108966D02*
X0244198Y0108966D01*
X0244197Y0108967D02*
X0238544Y0108967D01*
X0238545Y0108968D02*
X0244196Y0108968D01*
X0244195Y0108969D02*
X0238546Y0108969D01*
X0238547Y0108970D02*
X0244194Y0108970D01*
X0244193Y0108971D02*
X0238548Y0108971D01*
X0238549Y0108972D02*
X0244192Y0108972D01*
X0244191Y0108973D02*
X0238551Y0108973D01*
X0238552Y0108974D02*
X0244191Y0108974D01*
X0244190Y0108975D02*
X0238553Y0108975D01*
X0238554Y0108976D02*
X0244189Y0108976D01*
X0244188Y0108977D02*
X0238555Y0108977D01*
X0238556Y0108978D02*
X0244187Y0108978D01*
X0244186Y0108979D02*
X0238557Y0108979D01*
X0238558Y0108980D02*
X0244185Y0108980D01*
X0244184Y0108981D02*
X0238559Y0108981D01*
X0238560Y0108982D02*
X0244183Y0108982D01*
X0244182Y0108983D02*
X0238561Y0108983D01*
X0238562Y0108984D02*
X0244181Y0108984D01*
X0244180Y0108985D02*
X0238563Y0108985D01*
X0238564Y0108986D02*
X0244179Y0108986D01*
X0244178Y0108987D02*
X0238565Y0108987D01*
X0238566Y0108988D02*
X0244177Y0108988D01*
X0244176Y0108989D02*
X0238567Y0108989D01*
X0238568Y0108990D02*
X0244175Y0108990D01*
X0244174Y0108991D02*
X0238569Y0108991D01*
X0238570Y0108992D02*
X0244174Y0108992D01*
X0244173Y0108993D02*
X0238571Y0108993D01*
X0238572Y0108994D02*
X0244172Y0108994D01*
X0244171Y0108995D02*
X0238573Y0108995D01*
X0238574Y0108996D02*
X0244170Y0108996D01*
X0244169Y0108997D02*
X0238575Y0108997D01*
X0238576Y0108998D02*
X0244168Y0108998D01*
X0244167Y0108999D02*
X0238577Y0108999D01*
X0238578Y0109000D02*
X0244166Y0109000D01*
X0244165Y0109001D02*
X0238579Y0109001D01*
X0238580Y0109002D02*
X0244164Y0109002D01*
X0244163Y0109003D02*
X0238581Y0109003D01*
X0238582Y0109004D02*
X0244162Y0109004D01*
X0244161Y0109005D02*
X0238583Y0109005D01*
X0238584Y0109006D02*
X0244160Y0109006D01*
X0244159Y0109007D02*
X0238585Y0109007D01*
X0238586Y0109008D02*
X0244158Y0109008D01*
X0244158Y0109009D02*
X0238587Y0109009D01*
X0238588Y0109010D02*
X0244157Y0109010D01*
X0244156Y0109011D02*
X0238589Y0109011D01*
X0238591Y0109012D02*
X0244155Y0109012D01*
X0244154Y0109013D02*
X0238592Y0109013D01*
X0238593Y0109014D02*
X0244153Y0109014D01*
X0244152Y0109015D02*
X0238594Y0109015D01*
X0238595Y0109016D02*
X0244151Y0109016D01*
X0244150Y0109017D02*
X0238596Y0109017D01*
X0238597Y0109018D02*
X0244149Y0109018D01*
X0244148Y0109019D02*
X0238598Y0109019D01*
X0238599Y0109019D02*
X0244147Y0109019D01*
X0244146Y0109020D02*
X0238600Y0109020D01*
X0238601Y0109021D02*
X0244145Y0109021D01*
X0244144Y0109022D02*
X0238602Y0109022D01*
X0238603Y0109023D02*
X0244143Y0109023D01*
X0244142Y0109024D02*
X0238604Y0109024D01*
X0238605Y0109025D02*
X0244141Y0109025D01*
X0244141Y0109026D02*
X0238606Y0109026D01*
X0238607Y0109027D02*
X0244140Y0109027D01*
X0244139Y0109028D02*
X0238608Y0109028D01*
X0238609Y0109029D02*
X0244138Y0109029D01*
X0244137Y0109030D02*
X0238610Y0109030D01*
X0238611Y0109031D02*
X0244136Y0109031D01*
X0244135Y0109032D02*
X0238612Y0109032D01*
X0238613Y0109033D02*
X0244134Y0109033D01*
X0244133Y0109034D02*
X0238614Y0109034D01*
X0238615Y0109035D02*
X0244132Y0109035D01*
X0244131Y0109036D02*
X0238616Y0109036D01*
X0238617Y0109037D02*
X0244130Y0109037D01*
X0244129Y0109038D02*
X0238618Y0109038D01*
X0238619Y0109039D02*
X0244128Y0109039D01*
X0244127Y0109040D02*
X0238620Y0109040D01*
X0238621Y0109041D02*
X0244126Y0109041D01*
X0244125Y0109042D02*
X0238622Y0109042D01*
X0238623Y0109043D02*
X0244125Y0109043D01*
X0244124Y0109044D02*
X0238624Y0109044D01*
X0238625Y0109045D02*
X0244123Y0109045D01*
X0244122Y0109046D02*
X0238626Y0109046D01*
X0238627Y0109047D02*
X0244121Y0109047D01*
X0244120Y0109048D02*
X0238628Y0109048D01*
X0238629Y0109049D02*
X0244119Y0109049D01*
X0244118Y0109050D02*
X0238631Y0109050D01*
X0238632Y0109051D02*
X0244117Y0109051D01*
X0244116Y0109052D02*
X0238633Y0109052D01*
X0238634Y0109053D02*
X0244115Y0109053D01*
X0244114Y0109054D02*
X0238635Y0109054D01*
X0238636Y0109055D02*
X0244113Y0109055D01*
X0244112Y0109056D02*
X0238637Y0109056D01*
X0238638Y0109057D02*
X0244111Y0109057D01*
X0244110Y0109058D02*
X0238639Y0109058D01*
X0238640Y0109059D02*
X0244109Y0109059D01*
X0244108Y0109060D02*
X0238641Y0109060D01*
X0238642Y0109061D02*
X0244108Y0109061D01*
X0244107Y0109062D02*
X0238643Y0109062D01*
X0238644Y0109063D02*
X0244106Y0109063D01*
X0244105Y0109064D02*
X0238645Y0109064D01*
X0238646Y0109065D02*
X0244104Y0109065D01*
X0244103Y0109066D02*
X0238647Y0109066D01*
X0238648Y0109067D02*
X0244102Y0109067D01*
X0244101Y0109068D02*
X0238649Y0109068D01*
X0238650Y0109069D02*
X0244100Y0109069D01*
X0244099Y0109070D02*
X0238651Y0109070D01*
X0238652Y0109071D02*
X0244098Y0109071D01*
X0244097Y0109072D02*
X0238653Y0109072D01*
X0238654Y0109073D02*
X0244096Y0109073D01*
X0244095Y0109074D02*
X0238655Y0109074D01*
X0238656Y0109075D02*
X0244094Y0109075D01*
X0244093Y0109076D02*
X0238657Y0109076D01*
X0238658Y0109077D02*
X0244092Y0109077D01*
X0244092Y0109078D02*
X0238659Y0109078D01*
X0238660Y0109079D02*
X0244091Y0109079D01*
X0244090Y0109080D02*
X0238661Y0109080D01*
X0238662Y0109081D02*
X0244089Y0109081D01*
X0244088Y0109081D02*
X0238663Y0109081D01*
X0238664Y0109082D02*
X0244087Y0109082D01*
X0244086Y0109083D02*
X0238665Y0109083D01*
X0238666Y0109084D02*
X0244085Y0109084D01*
X0244084Y0109085D02*
X0238667Y0109085D01*
X0238668Y0109086D02*
X0244083Y0109086D01*
X0244082Y0109087D02*
X0238670Y0109087D01*
X0238671Y0109088D02*
X0244081Y0109088D01*
X0244080Y0109089D02*
X0238672Y0109089D01*
X0238673Y0109090D02*
X0244079Y0109090D01*
X0244078Y0109091D02*
X0238674Y0109091D01*
X0238675Y0109092D02*
X0244077Y0109092D01*
X0244076Y0109093D02*
X0238676Y0109093D01*
X0238677Y0109094D02*
X0244076Y0109094D01*
X0244075Y0109095D02*
X0238678Y0109095D01*
X0238679Y0109096D02*
X0244074Y0109096D01*
X0244073Y0109097D02*
X0238680Y0109097D01*
X0238681Y0109098D02*
X0244072Y0109098D01*
X0244071Y0109099D02*
X0238682Y0109099D01*
X0238683Y0109100D02*
X0244070Y0109100D01*
X0244069Y0109101D02*
X0238684Y0109101D01*
X0238685Y0109102D02*
X0244068Y0109102D01*
X0244067Y0109103D02*
X0238686Y0109103D01*
X0238687Y0109104D02*
X0244066Y0109104D01*
X0244065Y0109105D02*
X0238688Y0109105D01*
X0238689Y0109106D02*
X0244064Y0109106D01*
X0244063Y0109107D02*
X0238690Y0109107D01*
X0238691Y0109108D02*
X0244062Y0109108D01*
X0244061Y0109109D02*
X0238692Y0109109D01*
X0238693Y0109110D02*
X0244060Y0109110D01*
X0244059Y0109111D02*
X0238694Y0109111D01*
X0238695Y0109112D02*
X0244059Y0109112D01*
X0244058Y0109113D02*
X0238696Y0109113D01*
X0238697Y0109114D02*
X0244057Y0109114D01*
X0244056Y0109115D02*
X0238698Y0109115D01*
X0238699Y0109116D02*
X0244055Y0109116D01*
X0244054Y0109117D02*
X0238700Y0109117D01*
X0238701Y0109118D02*
X0244053Y0109118D01*
X0244052Y0109119D02*
X0238702Y0109119D01*
X0238703Y0109120D02*
X0244051Y0109120D01*
X0244050Y0109121D02*
X0238704Y0109121D01*
X0238705Y0109122D02*
X0244049Y0109122D01*
X0244048Y0109123D02*
X0238706Y0109123D01*
X0238707Y0109124D02*
X0244047Y0109124D01*
X0244046Y0109125D02*
X0238708Y0109125D01*
X0238710Y0109126D02*
X0244045Y0109126D01*
X0244044Y0109127D02*
X0238711Y0109127D01*
X0238712Y0109128D02*
X0244043Y0109128D01*
X0244043Y0109129D02*
X0238713Y0109129D01*
X0238714Y0109130D02*
X0244042Y0109130D01*
X0244041Y0109131D02*
X0238715Y0109131D01*
X0238716Y0109132D02*
X0244040Y0109132D01*
X0244039Y0109133D02*
X0238717Y0109133D01*
X0238718Y0109134D02*
X0244038Y0109134D01*
X0244037Y0109135D02*
X0238719Y0109135D01*
X0238720Y0109136D02*
X0244036Y0109136D01*
X0244035Y0109137D02*
X0238721Y0109137D01*
X0238722Y0109138D02*
X0244034Y0109138D01*
X0244033Y0109139D02*
X0238723Y0109139D01*
X0238724Y0109140D02*
X0244032Y0109140D01*
X0244031Y0109141D02*
X0238725Y0109141D01*
X0238726Y0109142D02*
X0244030Y0109142D01*
X0244029Y0109143D02*
X0238727Y0109143D01*
X0238728Y0109144D02*
X0244028Y0109144D01*
X0244027Y0109144D02*
X0238729Y0109144D01*
X0238730Y0109145D02*
X0244026Y0109145D01*
X0244026Y0109146D02*
X0238731Y0109146D01*
X0238732Y0109147D02*
X0244025Y0109147D01*
X0244024Y0109148D02*
X0238733Y0109148D01*
X0238734Y0109149D02*
X0244023Y0109149D01*
X0244022Y0109150D02*
X0238735Y0109150D01*
X0238736Y0109151D02*
X0244021Y0109151D01*
X0244020Y0109152D02*
X0238737Y0109152D01*
X0238738Y0109153D02*
X0244019Y0109153D01*
X0244018Y0109154D02*
X0238739Y0109154D01*
X0238740Y0109155D02*
X0244017Y0109155D01*
X0244016Y0109156D02*
X0238741Y0109156D01*
X0238742Y0109157D02*
X0244015Y0109157D01*
X0244014Y0109158D02*
X0238743Y0109158D01*
X0238744Y0109159D02*
X0244013Y0109159D01*
X0244012Y0109160D02*
X0238745Y0109160D01*
X0238746Y0109161D02*
X0244011Y0109161D01*
X0244010Y0109162D02*
X0238747Y0109162D01*
X0238748Y0109163D02*
X0244010Y0109163D01*
X0244009Y0109164D02*
X0238750Y0109164D01*
X0238751Y0109165D02*
X0244008Y0109165D01*
X0244007Y0109166D02*
X0238752Y0109166D01*
X0238753Y0109167D02*
X0244006Y0109167D01*
X0244005Y0109168D02*
X0238754Y0109168D01*
X0238755Y0109169D02*
X0244004Y0109169D01*
X0244003Y0109170D02*
X0238756Y0109170D01*
X0238757Y0109171D02*
X0244002Y0109171D01*
X0244001Y0109172D02*
X0238758Y0109172D01*
X0238759Y0109173D02*
X0244000Y0109173D01*
X0243999Y0109174D02*
X0238760Y0109174D01*
X0238761Y0109175D02*
X0243998Y0109175D01*
X0243997Y0109176D02*
X0238762Y0109176D01*
X0238763Y0109177D02*
X0243996Y0109177D01*
X0243995Y0109178D02*
X0238764Y0109178D01*
X0238765Y0109179D02*
X0243994Y0109179D01*
X0243993Y0109180D02*
X0238766Y0109180D01*
X0238767Y0109181D02*
X0243993Y0109181D01*
X0243992Y0109182D02*
X0238768Y0109182D01*
X0238769Y0109183D02*
X0243991Y0109183D01*
X0243990Y0109184D02*
X0238770Y0109184D01*
X0238771Y0109185D02*
X0243989Y0109185D01*
X0243988Y0109186D02*
X0238772Y0109186D01*
X0238773Y0109187D02*
X0243987Y0109187D01*
X0243986Y0109188D02*
X0238774Y0109188D01*
X0238775Y0109189D02*
X0243985Y0109189D01*
X0243984Y0109190D02*
X0238776Y0109190D01*
X0238777Y0109191D02*
X0243983Y0109191D01*
X0243982Y0109192D02*
X0238778Y0109192D01*
X0238779Y0109193D02*
X0243981Y0109193D01*
X0243980Y0109194D02*
X0238780Y0109194D01*
X0238781Y0109195D02*
X0243979Y0109195D01*
X0243978Y0109196D02*
X0238782Y0109196D01*
X0238783Y0109197D02*
X0243977Y0109197D01*
X0243977Y0109198D02*
X0238784Y0109198D01*
X0238785Y0109199D02*
X0243976Y0109199D01*
X0243975Y0109200D02*
X0238786Y0109200D01*
X0238787Y0109201D02*
X0243974Y0109201D01*
X0243973Y0109202D02*
X0238788Y0109202D01*
X0238790Y0109203D02*
X0243972Y0109203D01*
X0243971Y0109204D02*
X0238791Y0109204D01*
X0238792Y0109205D02*
X0243970Y0109205D01*
X0243969Y0109206D02*
X0238793Y0109206D01*
X0238794Y0109206D02*
X0243968Y0109206D01*
X0243967Y0109207D02*
X0238795Y0109207D01*
X0238796Y0109208D02*
X0243966Y0109208D01*
X0243965Y0109209D02*
X0238797Y0109209D01*
X0238798Y0109210D02*
X0243964Y0109210D01*
X0243963Y0109211D02*
X0238799Y0109211D01*
X0238800Y0109212D02*
X0243962Y0109212D01*
X0243961Y0109213D02*
X0238801Y0109213D01*
X0238802Y0109214D02*
X0243960Y0109214D01*
X0243960Y0109215D02*
X0238803Y0109215D01*
X0238804Y0109216D02*
X0243959Y0109216D01*
X0243958Y0109217D02*
X0238805Y0109217D01*
X0238806Y0109218D02*
X0243957Y0109218D01*
X0243956Y0109219D02*
X0238807Y0109219D01*
X0238808Y0109220D02*
X0243955Y0109220D01*
X0243954Y0109221D02*
X0238809Y0109221D01*
X0238810Y0109222D02*
X0243953Y0109222D01*
X0243952Y0109223D02*
X0238811Y0109223D01*
X0238812Y0109224D02*
X0243951Y0109224D01*
X0243950Y0109225D02*
X0238813Y0109225D01*
X0238814Y0109226D02*
X0243949Y0109226D01*
X0243948Y0109227D02*
X0238815Y0109227D01*
X0238816Y0109228D02*
X0243947Y0109228D01*
X0243946Y0109229D02*
X0238817Y0109229D01*
X0238818Y0109230D02*
X0243945Y0109230D01*
X0243944Y0109231D02*
X0238819Y0109231D01*
X0238820Y0109232D02*
X0243944Y0109232D01*
X0243943Y0109233D02*
X0238821Y0109233D01*
X0238822Y0109234D02*
X0243942Y0109234D01*
X0243941Y0109235D02*
X0238823Y0109235D01*
X0238824Y0109236D02*
X0243940Y0109236D01*
X0243939Y0109237D02*
X0238825Y0109237D01*
X0238826Y0109238D02*
X0243938Y0109238D01*
X0243937Y0109239D02*
X0238827Y0109239D01*
X0238829Y0109240D02*
X0243936Y0109240D01*
X0243935Y0109241D02*
X0238830Y0109241D01*
X0238831Y0109242D02*
X0243934Y0109242D01*
X0243933Y0109243D02*
X0238832Y0109243D01*
X0238833Y0109244D02*
X0243932Y0109244D01*
X0243931Y0109245D02*
X0238834Y0109245D01*
X0238835Y0109246D02*
X0243930Y0109246D01*
X0243929Y0109247D02*
X0238836Y0109247D01*
X0238837Y0109248D02*
X0243928Y0109248D01*
X0243927Y0109249D02*
X0238838Y0109249D01*
X0238839Y0109250D02*
X0243927Y0109250D01*
X0243926Y0109251D02*
X0238840Y0109251D01*
X0238841Y0109252D02*
X0243925Y0109252D01*
X0243924Y0109253D02*
X0238842Y0109253D01*
X0238843Y0109254D02*
X0243923Y0109254D01*
X0243922Y0109255D02*
X0238844Y0109255D01*
X0238845Y0109256D02*
X0243921Y0109256D01*
X0243920Y0109257D02*
X0238846Y0109257D01*
X0238847Y0109258D02*
X0243919Y0109258D01*
X0243918Y0109259D02*
X0238848Y0109259D01*
X0238849Y0109260D02*
X0243917Y0109260D01*
X0243916Y0109261D02*
X0238850Y0109261D01*
X0238851Y0109262D02*
X0243915Y0109262D01*
X0243914Y0109263D02*
X0238852Y0109263D01*
X0238853Y0109264D02*
X0243913Y0109264D01*
X0243912Y0109265D02*
X0238854Y0109265D01*
X0238855Y0109266D02*
X0243911Y0109266D01*
X0243911Y0109267D02*
X0238856Y0109267D01*
X0238857Y0109268D02*
X0243910Y0109268D01*
X0243909Y0109269D02*
X0238858Y0109269D01*
X0238859Y0109269D02*
X0243908Y0109269D01*
X0243907Y0109270D02*
X0238860Y0109270D01*
X0238861Y0109271D02*
X0243906Y0109271D01*
X0243905Y0109272D02*
X0238862Y0109272D01*
X0238863Y0109273D02*
X0243904Y0109273D01*
X0243903Y0109274D02*
X0238864Y0109274D01*
X0238865Y0109275D02*
X0243902Y0109275D01*
X0243901Y0109276D02*
X0238866Y0109276D01*
X0238867Y0109277D02*
X0243900Y0109277D01*
X0243899Y0109278D02*
X0238869Y0109278D01*
X0238870Y0109279D02*
X0243898Y0109279D01*
X0243897Y0109280D02*
X0238871Y0109280D01*
X0238872Y0109281D02*
X0243896Y0109281D01*
X0243895Y0109282D02*
X0238873Y0109282D01*
X0238874Y0109283D02*
X0243895Y0109283D01*
X0243894Y0109284D02*
X0238875Y0109284D01*
X0238876Y0109285D02*
X0243893Y0109285D01*
X0243892Y0109286D02*
X0238877Y0109286D01*
X0238878Y0109287D02*
X0243891Y0109287D01*
X0243890Y0109288D02*
X0238879Y0109288D01*
X0238880Y0109289D02*
X0243889Y0109289D01*
X0243888Y0109290D02*
X0238881Y0109290D01*
X0238882Y0109291D02*
X0243887Y0109291D01*
X0243886Y0109292D02*
X0238883Y0109292D01*
X0238884Y0109293D02*
X0243885Y0109293D01*
X0243884Y0109294D02*
X0238885Y0109294D01*
X0238886Y0109295D02*
X0243883Y0109295D01*
X0243882Y0109296D02*
X0238887Y0109296D01*
X0238888Y0109297D02*
X0243881Y0109297D01*
X0243880Y0109298D02*
X0238889Y0109298D01*
X0238890Y0109299D02*
X0243879Y0109299D01*
X0243878Y0109300D02*
X0238891Y0109300D01*
X0238892Y0109301D02*
X0243878Y0109301D01*
X0243877Y0109302D02*
X0238893Y0109302D01*
X0238894Y0109303D02*
X0243876Y0109303D01*
X0243875Y0109304D02*
X0238895Y0109304D01*
X0238896Y0109305D02*
X0243874Y0109305D01*
X0243873Y0109306D02*
X0238897Y0109306D01*
X0238898Y0109307D02*
X0243872Y0109307D01*
X0243871Y0109308D02*
X0238899Y0109308D01*
X0238900Y0109309D02*
X0243870Y0109309D01*
X0243869Y0109310D02*
X0238901Y0109310D01*
X0238902Y0109311D02*
X0243868Y0109311D01*
X0243867Y0109312D02*
X0238903Y0109312D01*
X0238904Y0109313D02*
X0243866Y0109313D01*
X0243865Y0109314D02*
X0238905Y0109314D01*
X0238906Y0109315D02*
X0243864Y0109315D01*
X0243863Y0109316D02*
X0238907Y0109316D01*
X0238909Y0109317D02*
X0243862Y0109317D01*
X0243862Y0109318D02*
X0238910Y0109318D01*
X0238911Y0109319D02*
X0243861Y0109319D01*
X0243860Y0109320D02*
X0238912Y0109320D01*
X0238913Y0109321D02*
X0243859Y0109321D01*
X0243858Y0109322D02*
X0238914Y0109322D01*
X0238915Y0109323D02*
X0243857Y0109323D01*
X0243856Y0109324D02*
X0238916Y0109324D01*
X0238917Y0109325D02*
X0243855Y0109325D01*
X0243854Y0109326D02*
X0238918Y0109326D01*
X0238919Y0109327D02*
X0243853Y0109327D01*
X0243852Y0109328D02*
X0238920Y0109328D01*
X0238921Y0109329D02*
X0243851Y0109329D01*
X0243850Y0109330D02*
X0238922Y0109330D01*
X0238923Y0109331D02*
X0243849Y0109331D01*
X0243848Y0109331D02*
X0238924Y0109331D01*
X0238925Y0109332D02*
X0243847Y0109332D01*
X0243846Y0109333D02*
X0238926Y0109333D01*
X0238927Y0109334D02*
X0243845Y0109334D01*
X0243845Y0109335D02*
X0238928Y0109335D01*
X0238929Y0109336D02*
X0243844Y0109336D01*
X0243843Y0109337D02*
X0238930Y0109337D01*
X0238931Y0109338D02*
X0243842Y0109338D01*
X0243841Y0109339D02*
X0238932Y0109339D01*
X0238933Y0109340D02*
X0243840Y0109340D01*
X0243839Y0109341D02*
X0238934Y0109341D01*
X0238935Y0109342D02*
X0243838Y0109342D01*
X0243837Y0109343D02*
X0238936Y0109343D01*
X0238937Y0109344D02*
X0243836Y0109344D01*
X0243835Y0109345D02*
X0238938Y0109345D01*
X0238939Y0109346D02*
X0243834Y0109346D01*
X0243833Y0109347D02*
X0238940Y0109347D01*
X0238941Y0109348D02*
X0243832Y0109348D01*
X0243831Y0109349D02*
X0238942Y0109349D01*
X0238943Y0109350D02*
X0243830Y0109350D01*
X0243829Y0109351D02*
X0238944Y0109351D01*
X0238945Y0109352D02*
X0243829Y0109352D01*
X0243828Y0109353D02*
X0238946Y0109353D01*
X0238948Y0109354D02*
X0243827Y0109354D01*
X0243826Y0109355D02*
X0238949Y0109355D01*
X0238950Y0109356D02*
X0243825Y0109356D01*
X0243824Y0109357D02*
X0238951Y0109357D01*
X0238952Y0109358D02*
X0243823Y0109358D01*
X0243822Y0109359D02*
X0238953Y0109359D01*
X0238954Y0109360D02*
X0243821Y0109360D01*
X0243820Y0109361D02*
X0238955Y0109361D01*
X0238956Y0109362D02*
X0243819Y0109362D01*
X0243818Y0109363D02*
X0238957Y0109363D01*
X0238958Y0109364D02*
X0243817Y0109364D01*
X0243816Y0109365D02*
X0238959Y0109365D01*
X0238960Y0109366D02*
X0243815Y0109366D01*
X0243814Y0109367D02*
X0238961Y0109367D01*
X0238962Y0109368D02*
X0243813Y0109368D01*
X0243812Y0109369D02*
X0238963Y0109369D01*
X0238964Y0109370D02*
X0243812Y0109370D01*
X0243811Y0109371D02*
X0238965Y0109371D01*
X0238966Y0109372D02*
X0243810Y0109372D01*
X0243809Y0109373D02*
X0238967Y0109373D01*
X0238968Y0109374D02*
X0243808Y0109374D01*
X0243807Y0109375D02*
X0238969Y0109375D01*
X0238970Y0109376D02*
X0243806Y0109376D01*
X0243805Y0109377D02*
X0238971Y0109377D01*
X0238972Y0109378D02*
X0243804Y0109378D01*
X0243803Y0109379D02*
X0238973Y0109379D01*
X0238974Y0109380D02*
X0243802Y0109380D01*
X0243801Y0109381D02*
X0238975Y0109381D01*
X0238976Y0109382D02*
X0243800Y0109382D01*
X0243799Y0109383D02*
X0238977Y0109383D01*
X0238978Y0109384D02*
X0243798Y0109384D01*
X0243797Y0109385D02*
X0238979Y0109385D01*
X0238980Y0109386D02*
X0243796Y0109386D01*
X0243796Y0109387D02*
X0238981Y0109387D01*
X0238982Y0109388D02*
X0243795Y0109388D01*
X0243794Y0109389D02*
X0238983Y0109389D01*
X0238984Y0109390D02*
X0243793Y0109390D01*
X0243792Y0109391D02*
X0238985Y0109391D01*
X0238986Y0109392D02*
X0243791Y0109392D01*
X0243790Y0109393D02*
X0238988Y0109393D01*
X0238989Y0109394D02*
X0243789Y0109394D01*
X0243788Y0109394D02*
X0238990Y0109394D01*
X0238991Y0109395D02*
X0243787Y0109395D01*
X0243786Y0109396D02*
X0238992Y0109396D01*
X0238993Y0109397D02*
X0243785Y0109397D01*
X0243784Y0109398D02*
X0238994Y0109398D01*
X0238995Y0109399D02*
X0243783Y0109399D01*
X0243782Y0109400D02*
X0238996Y0109400D01*
X0238997Y0109401D02*
X0243781Y0109401D01*
X0243780Y0109402D02*
X0238998Y0109402D01*
X0238999Y0109403D02*
X0243780Y0109403D01*
X0243779Y0109404D02*
X0239000Y0109404D01*
X0239001Y0109405D02*
X0243778Y0109405D01*
X0243777Y0109406D02*
X0239002Y0109406D01*
X0239003Y0109407D02*
X0243776Y0109407D01*
X0243775Y0109408D02*
X0239004Y0109408D01*
X0239005Y0109409D02*
X0243774Y0109409D01*
X0243773Y0109410D02*
X0239006Y0109410D01*
X0239007Y0109411D02*
X0243772Y0109411D01*
X0243771Y0109412D02*
X0239008Y0109412D01*
X0239009Y0109413D02*
X0243770Y0109413D01*
X0243769Y0109414D02*
X0239010Y0109414D01*
X0239011Y0109415D02*
X0243768Y0109415D01*
X0243767Y0109416D02*
X0239012Y0109416D01*
X0239013Y0109417D02*
X0243766Y0109417D01*
X0243765Y0109418D02*
X0239014Y0109418D01*
X0239015Y0109419D02*
X0243764Y0109419D01*
X0243763Y0109420D02*
X0239016Y0109420D01*
X0239017Y0109421D02*
X0243763Y0109421D01*
X0243762Y0109422D02*
X0239018Y0109422D01*
X0239019Y0109423D02*
X0243761Y0109423D01*
X0243760Y0109424D02*
X0239020Y0109424D01*
X0239021Y0109425D02*
X0243759Y0109425D01*
X0243758Y0109426D02*
X0239022Y0109426D01*
X0239023Y0109427D02*
X0243757Y0109427D01*
X0243756Y0109428D02*
X0239024Y0109428D01*
X0239025Y0109429D02*
X0243755Y0109429D01*
X0243754Y0109430D02*
X0239026Y0109430D01*
X0239028Y0109431D02*
X0243753Y0109431D01*
X0243752Y0109432D02*
X0239029Y0109432D01*
X0239030Y0109433D02*
X0243751Y0109433D01*
X0243750Y0109434D02*
X0239031Y0109434D01*
X0239032Y0109435D02*
X0243749Y0109435D01*
X0243748Y0109436D02*
X0239033Y0109436D01*
X0239034Y0109437D02*
X0243747Y0109437D01*
X0243747Y0109438D02*
X0239035Y0109438D01*
X0239036Y0109439D02*
X0243746Y0109439D01*
X0243745Y0109440D02*
X0239037Y0109440D01*
X0239038Y0109441D02*
X0243744Y0109441D01*
X0243743Y0109442D02*
X0239039Y0109442D01*
X0239040Y0109443D02*
X0243742Y0109443D01*
X0243741Y0109444D02*
X0239041Y0109444D01*
X0239042Y0109445D02*
X0243740Y0109445D01*
X0243739Y0109446D02*
X0239043Y0109446D01*
X0239044Y0109447D02*
X0243738Y0109447D01*
X0243737Y0109448D02*
X0239045Y0109448D01*
X0239046Y0109449D02*
X0243736Y0109449D01*
X0243735Y0109450D02*
X0239047Y0109450D01*
X0239048Y0109451D02*
X0243734Y0109451D01*
X0243733Y0109452D02*
X0239049Y0109452D01*
X0239050Y0109453D02*
X0243732Y0109453D01*
X0243731Y0109454D02*
X0239051Y0109454D01*
X0239052Y0109455D02*
X0243730Y0109455D01*
X0243730Y0109456D02*
X0239053Y0109456D01*
X0239054Y0109456D02*
X0243729Y0109456D01*
X0243728Y0109457D02*
X0239055Y0109457D01*
X0239056Y0109458D02*
X0243727Y0109458D01*
X0243726Y0109459D02*
X0239057Y0109459D01*
X0239058Y0109460D02*
X0243725Y0109460D01*
X0243724Y0109461D02*
X0239059Y0109461D01*
X0239060Y0109462D02*
X0243723Y0109462D01*
X0243722Y0109463D02*
X0239061Y0109463D01*
X0239062Y0109464D02*
X0243721Y0109464D01*
X0243720Y0109465D02*
X0239063Y0109465D01*
X0239064Y0109466D02*
X0243719Y0109466D01*
X0243718Y0109467D02*
X0239065Y0109467D01*
X0239066Y0109468D02*
X0243717Y0109468D01*
X0243716Y0109469D02*
X0239068Y0109469D01*
X0239069Y0109470D02*
X0243715Y0109470D01*
X0243714Y0109471D02*
X0239070Y0109471D01*
X0239071Y0109472D02*
X0243714Y0109472D01*
X0243713Y0109473D02*
X0239072Y0109473D01*
X0239073Y0109474D02*
X0243712Y0109474D01*
X0243711Y0109475D02*
X0239074Y0109475D01*
X0239075Y0109476D02*
X0243710Y0109476D01*
X0243709Y0109477D02*
X0239076Y0109477D01*
X0239077Y0109478D02*
X0243708Y0109478D01*
X0243707Y0109479D02*
X0239078Y0109479D01*
X0239079Y0109480D02*
X0243706Y0109480D01*
X0243705Y0109481D02*
X0239080Y0109481D01*
X0239081Y0109482D02*
X0243704Y0109482D01*
X0243703Y0109483D02*
X0239082Y0109483D01*
X0239083Y0109484D02*
X0243702Y0109484D01*
X0243701Y0109485D02*
X0239084Y0109485D01*
X0239085Y0109486D02*
X0243700Y0109486D01*
X0243699Y0109487D02*
X0239086Y0109487D01*
X0239087Y0109488D02*
X0243698Y0109488D01*
X0243697Y0109489D02*
X0239088Y0109489D01*
X0239089Y0109490D02*
X0243697Y0109490D01*
X0243696Y0109491D02*
X0239090Y0109491D01*
X0239091Y0109492D02*
X0243695Y0109492D01*
X0243694Y0109493D02*
X0239092Y0109493D01*
X0239093Y0109494D02*
X0243693Y0109494D01*
X0243692Y0109495D02*
X0239094Y0109495D01*
X0239095Y0109496D02*
X0243691Y0109496D01*
X0243690Y0109497D02*
X0239096Y0109497D01*
X0239097Y0109498D02*
X0243689Y0109498D01*
X0243688Y0109499D02*
X0239098Y0109499D01*
X0239099Y0109500D02*
X0243687Y0109500D01*
X0243686Y0109501D02*
X0239100Y0109501D01*
X0239101Y0109502D02*
X0243685Y0109502D01*
X0243684Y0109503D02*
X0239102Y0109503D01*
X0239103Y0109504D02*
X0243683Y0109504D01*
X0243682Y0109505D02*
X0239104Y0109505D01*
X0239105Y0109506D02*
X0243681Y0109506D01*
X0243681Y0109507D02*
X0239107Y0109507D01*
X0239108Y0109508D02*
X0243680Y0109508D01*
X0243679Y0109509D02*
X0239109Y0109509D01*
X0239110Y0109510D02*
X0243678Y0109510D01*
X0243677Y0109511D02*
X0239111Y0109511D01*
X0239112Y0109512D02*
X0243676Y0109512D01*
X0243675Y0109513D02*
X0239113Y0109513D01*
X0239114Y0109514D02*
X0243674Y0109514D01*
X0243673Y0109515D02*
X0239115Y0109515D01*
X0239116Y0109516D02*
X0243672Y0109516D01*
X0243671Y0109517D02*
X0239117Y0109517D01*
X0239118Y0109518D02*
X0243670Y0109518D01*
X0243669Y0109519D02*
X0239119Y0109519D01*
X0239120Y0109519D02*
X0243668Y0109519D01*
X0243667Y0109520D02*
X0239121Y0109520D01*
X0239122Y0109521D02*
X0243666Y0109521D01*
X0243665Y0109522D02*
X0239123Y0109522D01*
X0239124Y0109523D02*
X0243665Y0109523D01*
X0243664Y0109524D02*
X0239125Y0109524D01*
X0239126Y0109525D02*
X0243663Y0109525D01*
X0243662Y0109526D02*
X0239127Y0109526D01*
X0239128Y0109527D02*
X0243661Y0109527D01*
X0243660Y0109528D02*
X0239129Y0109528D01*
X0239130Y0109529D02*
X0243659Y0109529D01*
X0243658Y0109530D02*
X0239131Y0109530D01*
X0239132Y0109531D02*
X0243657Y0109531D01*
X0243656Y0109532D02*
X0239133Y0109532D01*
X0239134Y0109533D02*
X0243655Y0109533D01*
X0243654Y0109534D02*
X0239135Y0109534D01*
X0239136Y0109535D02*
X0243653Y0109535D01*
X0243652Y0109536D02*
X0239137Y0109536D01*
X0239138Y0109537D02*
X0243651Y0109537D01*
X0243650Y0109538D02*
X0239139Y0109538D01*
X0239140Y0109539D02*
X0243649Y0109539D01*
X0243648Y0109540D02*
X0239141Y0109540D01*
X0239142Y0109541D02*
X0243648Y0109541D01*
X0243647Y0109542D02*
X0239143Y0109542D01*
X0239144Y0109543D02*
X0243646Y0109543D01*
X0243645Y0109544D02*
X0239145Y0109544D01*
X0239147Y0109545D02*
X0243644Y0109545D01*
X0243643Y0109546D02*
X0239148Y0109546D01*
X0239149Y0109547D02*
X0243642Y0109547D01*
X0243641Y0109548D02*
X0239150Y0109548D01*
X0239151Y0109549D02*
X0243640Y0109549D01*
X0243639Y0109550D02*
X0239152Y0109550D01*
X0239153Y0109551D02*
X0243638Y0109551D01*
X0243637Y0109552D02*
X0239154Y0109552D01*
X0239155Y0109553D02*
X0243636Y0109553D01*
X0243635Y0109554D02*
X0239156Y0109554D01*
X0239157Y0109555D02*
X0243634Y0109555D01*
X0243633Y0109556D02*
X0239158Y0109556D01*
X0239159Y0109557D02*
X0243632Y0109557D01*
X0243632Y0109558D02*
X0239160Y0109558D01*
X0239161Y0109559D02*
X0243631Y0109559D01*
X0243630Y0109560D02*
X0239162Y0109560D01*
X0239163Y0109561D02*
X0243629Y0109561D01*
X0243628Y0109562D02*
X0239164Y0109562D01*
X0239165Y0109563D02*
X0243627Y0109563D01*
X0243626Y0109564D02*
X0239166Y0109564D01*
X0239167Y0109565D02*
X0243625Y0109565D01*
X0243624Y0109566D02*
X0239168Y0109566D01*
X0239169Y0109567D02*
X0243623Y0109567D01*
X0243622Y0109568D02*
X0239170Y0109568D01*
X0239171Y0109569D02*
X0243621Y0109569D01*
X0243620Y0109570D02*
X0239172Y0109570D01*
X0239173Y0109571D02*
X0243619Y0109571D01*
X0243618Y0109572D02*
X0239174Y0109572D01*
X0239175Y0109573D02*
X0243617Y0109573D01*
X0243616Y0109574D02*
X0239176Y0109574D01*
X0239177Y0109575D02*
X0243615Y0109575D01*
X0243615Y0109576D02*
X0239178Y0109576D01*
X0239179Y0109577D02*
X0243614Y0109577D01*
X0243613Y0109578D02*
X0239180Y0109578D01*
X0239181Y0109579D02*
X0243612Y0109579D01*
X0243611Y0109580D02*
X0239182Y0109580D01*
X0239183Y0109581D02*
X0243610Y0109581D01*
X0243609Y0109581D02*
X0239184Y0109581D01*
X0239185Y0109582D02*
X0243608Y0109582D01*
X0243607Y0109583D02*
X0239187Y0109583D01*
X0239188Y0109584D02*
X0243606Y0109584D01*
X0243605Y0109585D02*
X0239189Y0109585D01*
X0239190Y0109586D02*
X0243604Y0109586D01*
X0243603Y0109587D02*
X0239191Y0109587D01*
X0239192Y0109588D02*
X0243602Y0109588D01*
X0243601Y0109589D02*
X0239193Y0109589D01*
X0239194Y0109590D02*
X0243600Y0109590D01*
X0243599Y0109591D02*
X0239195Y0109591D01*
X0239196Y0109592D02*
X0243599Y0109592D01*
X0243598Y0109593D02*
X0239197Y0109593D01*
X0239198Y0109594D02*
X0243597Y0109594D01*
X0243596Y0109595D02*
X0239199Y0109595D01*
X0239200Y0109596D02*
X0243595Y0109596D01*
X0243594Y0109597D02*
X0239201Y0109597D01*
X0239202Y0109598D02*
X0243593Y0109598D01*
X0243592Y0109599D02*
X0239203Y0109599D01*
X0239204Y0109600D02*
X0243591Y0109600D01*
X0243590Y0109601D02*
X0239205Y0109601D01*
X0239206Y0109602D02*
X0243589Y0109602D01*
X0243588Y0109603D02*
X0239207Y0109603D01*
X0239208Y0109604D02*
X0243587Y0109604D01*
X0243586Y0109605D02*
X0239209Y0109605D01*
X0239210Y0109606D02*
X0243585Y0109606D01*
X0243584Y0109607D02*
X0239211Y0109607D01*
X0239212Y0109608D02*
X0243583Y0109608D01*
X0243582Y0109609D02*
X0239213Y0109609D01*
X0239214Y0109610D02*
X0243582Y0109610D01*
X0243581Y0109611D02*
X0239215Y0109611D01*
X0239216Y0109612D02*
X0243580Y0109612D01*
X0243579Y0109613D02*
X0239217Y0109613D01*
X0239218Y0109614D02*
X0243578Y0109614D01*
X0243577Y0109615D02*
X0239219Y0109615D01*
X0239220Y0109616D02*
X0243576Y0109616D01*
X0243575Y0109617D02*
X0239221Y0109617D01*
X0239222Y0109618D02*
X0243574Y0109618D01*
X0243573Y0109619D02*
X0239223Y0109619D01*
X0239224Y0109620D02*
X0243572Y0109620D01*
X0243571Y0109621D02*
X0239226Y0109621D01*
X0239227Y0109622D02*
X0243570Y0109622D01*
X0243569Y0109623D02*
X0239228Y0109623D01*
X0239229Y0109624D02*
X0243568Y0109624D01*
X0243567Y0109625D02*
X0239230Y0109625D01*
X0239231Y0109626D02*
X0243566Y0109626D01*
X0243566Y0109627D02*
X0239232Y0109627D01*
X0239233Y0109628D02*
X0243565Y0109628D01*
X0243564Y0109629D02*
X0239234Y0109629D01*
X0239235Y0109630D02*
X0243563Y0109630D01*
X0243562Y0109631D02*
X0239236Y0109631D01*
X0239237Y0109632D02*
X0243561Y0109632D01*
X0243560Y0109633D02*
X0239238Y0109633D01*
X0239239Y0109634D02*
X0243559Y0109634D01*
X0243558Y0109635D02*
X0239240Y0109635D01*
X0239241Y0109636D02*
X0243557Y0109636D01*
X0243556Y0109637D02*
X0239242Y0109637D01*
X0239243Y0109638D02*
X0243555Y0109638D01*
X0243554Y0109639D02*
X0239244Y0109639D01*
X0239245Y0109640D02*
X0243553Y0109640D01*
X0243552Y0109641D02*
X0239246Y0109641D01*
X0239247Y0109642D02*
X0243551Y0109642D01*
X0243550Y0109643D02*
X0239248Y0109643D01*
X0239249Y0109644D02*
X0243549Y0109644D01*
X0239250Y0109644D01*
X0239251Y0109645D02*
X0243548Y0109645D01*
X0243547Y0109646D02*
X0239252Y0109646D01*
X0239253Y0109647D02*
X0243546Y0109647D01*
X0243545Y0109648D02*
X0239254Y0109648D01*
X0239255Y0109649D02*
X0243544Y0109649D01*
X0243543Y0109650D02*
X0239256Y0109650D01*
X0239257Y0109651D02*
X0243542Y0109651D01*
X0243541Y0109652D02*
X0239258Y0109652D01*
X0239259Y0109653D02*
X0243540Y0109653D01*
X0243539Y0109654D02*
X0239260Y0109654D01*
X0239261Y0109655D02*
X0243538Y0109655D01*
X0243537Y0109656D02*
X0239262Y0109656D01*
X0239263Y0109657D02*
X0243536Y0109657D01*
X0243535Y0109658D02*
X0239264Y0109658D01*
X0239266Y0109659D02*
X0243534Y0109659D01*
X0243533Y0109660D02*
X0239267Y0109660D01*
X0239268Y0109661D02*
X0243533Y0109661D01*
X0243532Y0109662D02*
X0239269Y0109662D01*
X0239270Y0109663D02*
X0243531Y0109663D01*
X0243530Y0109664D02*
X0239271Y0109664D01*
X0239272Y0109665D02*
X0243529Y0109665D01*
X0243528Y0109666D02*
X0239273Y0109666D01*
X0239274Y0109667D02*
X0243527Y0109667D01*
X0243526Y0109668D02*
X0239275Y0109668D01*
X0239276Y0109669D02*
X0243525Y0109669D01*
X0243524Y0109670D02*
X0239277Y0109670D01*
X0239278Y0109671D02*
X0243523Y0109671D01*
X0243522Y0109672D02*
X0239279Y0109672D01*
X0239280Y0109673D02*
X0243521Y0109673D01*
X0243520Y0109674D02*
X0239281Y0109674D01*
X0239282Y0109675D02*
X0243519Y0109675D01*
X0243518Y0109676D02*
X0239283Y0109676D01*
X0239284Y0109677D02*
X0243517Y0109677D01*
X0243516Y0109678D02*
X0239285Y0109678D01*
X0239286Y0109679D02*
X0243516Y0109679D01*
X0243515Y0109680D02*
X0239287Y0109680D01*
X0239288Y0109681D02*
X0243514Y0109681D01*
X0243513Y0109682D02*
X0239289Y0109682D01*
X0239290Y0109683D02*
X0243512Y0109683D01*
X0243511Y0109684D02*
X0239291Y0109684D01*
X0239292Y0109685D02*
X0243510Y0109685D01*
X0243509Y0109686D02*
X0239293Y0109686D01*
X0239294Y0109687D02*
X0243508Y0109687D01*
X0243507Y0109688D02*
X0239295Y0109688D01*
X0239296Y0109689D02*
X0243506Y0109689D01*
X0243505Y0109690D02*
X0239297Y0109690D01*
X0239298Y0109691D02*
X0243504Y0109691D01*
X0243503Y0109692D02*
X0239299Y0109692D01*
X0239300Y0109693D02*
X0243502Y0109693D01*
X0243501Y0109694D02*
X0239301Y0109694D01*
X0239302Y0109695D02*
X0243500Y0109695D01*
X0243500Y0109696D02*
X0239303Y0109696D01*
X0239304Y0109697D02*
X0243499Y0109697D01*
X0243498Y0109698D02*
X0239306Y0109698D01*
X0239307Y0109699D02*
X0243497Y0109699D01*
X0243496Y0109700D02*
X0239308Y0109700D01*
X0239309Y0109701D02*
X0243495Y0109701D01*
X0243494Y0109702D02*
X0239310Y0109702D01*
X0239311Y0109703D02*
X0243493Y0109703D01*
X0243492Y0109704D02*
X0239312Y0109704D01*
X0239313Y0109705D02*
X0243491Y0109705D01*
X0243490Y0109706D02*
X0239314Y0109706D01*
X0239315Y0109706D02*
X0243489Y0109706D01*
X0243488Y0109707D02*
X0239316Y0109707D01*
X0239317Y0109708D02*
X0243487Y0109708D01*
X0243486Y0109709D02*
X0239318Y0109709D01*
X0239319Y0109710D02*
X0243485Y0109710D01*
X0243484Y0109711D02*
X0239320Y0109711D01*
X0239321Y0109712D02*
X0243484Y0109712D01*
X0243483Y0109713D02*
X0239322Y0109713D01*
X0239323Y0109714D02*
X0243482Y0109714D01*
X0243481Y0109715D02*
X0239324Y0109715D01*
X0239325Y0109716D02*
X0243480Y0109716D01*
X0243479Y0109717D02*
X0239326Y0109717D01*
X0239327Y0109718D02*
X0243478Y0109718D01*
X0243477Y0109719D02*
X0239328Y0109719D01*
X0239329Y0109720D02*
X0243476Y0109720D01*
X0243475Y0109721D02*
X0239330Y0109721D01*
X0239331Y0109722D02*
X0243474Y0109722D01*
X0243473Y0109723D02*
X0239332Y0109723D01*
X0239333Y0109724D02*
X0243472Y0109724D01*
X0243471Y0109725D02*
X0239334Y0109725D01*
X0239335Y0109726D02*
X0243470Y0109726D01*
X0243469Y0109727D02*
X0239336Y0109727D01*
X0239337Y0109728D02*
X0243468Y0109728D01*
X0243467Y0109729D02*
X0239338Y0109729D01*
X0239339Y0109730D02*
X0243467Y0109730D01*
X0243466Y0109731D02*
X0239340Y0109731D01*
X0239341Y0109732D02*
X0243465Y0109732D01*
X0243464Y0109733D02*
X0239342Y0109733D01*
X0239343Y0109734D02*
X0243463Y0109734D01*
X0243462Y0109735D02*
X0239345Y0109735D01*
X0239346Y0109736D02*
X0243461Y0109736D01*
X0243460Y0109737D02*
X0239347Y0109737D01*
X0239348Y0109738D02*
X0243459Y0109738D01*
X0243458Y0109739D02*
X0239349Y0109739D01*
X0239350Y0109740D02*
X0243457Y0109740D01*
X0243456Y0109741D02*
X0239351Y0109741D01*
X0239352Y0109742D02*
X0243455Y0109742D01*
X0243454Y0109743D02*
X0239353Y0109743D01*
X0239354Y0109744D02*
X0243453Y0109744D01*
X0243452Y0109745D02*
X0239355Y0109745D01*
X0239356Y0109746D02*
X0243451Y0109746D01*
X0243451Y0109747D02*
X0239357Y0109747D01*
X0239358Y0109748D02*
X0243450Y0109748D01*
X0243449Y0109749D02*
X0239359Y0109749D01*
X0239360Y0109750D02*
X0243448Y0109750D01*
X0243447Y0109751D02*
X0239361Y0109751D01*
X0239362Y0109752D02*
X0243446Y0109752D01*
X0243445Y0109753D02*
X0239363Y0109753D01*
X0239364Y0109754D02*
X0243444Y0109754D01*
X0243443Y0109755D02*
X0239365Y0109755D01*
X0239366Y0109756D02*
X0243442Y0109756D01*
X0243441Y0109757D02*
X0239367Y0109757D01*
X0239368Y0109758D02*
X0243440Y0109758D01*
X0243439Y0109759D02*
X0239369Y0109759D01*
X0239370Y0109760D02*
X0243438Y0109760D01*
X0243437Y0109761D02*
X0239371Y0109761D01*
X0239372Y0109762D02*
X0243436Y0109762D01*
X0243435Y0109763D02*
X0239373Y0109763D01*
X0239374Y0109764D02*
X0243434Y0109764D01*
X0243434Y0109765D02*
X0239375Y0109765D01*
X0239376Y0109766D02*
X0243433Y0109766D01*
X0243432Y0109767D02*
X0239377Y0109767D01*
X0239378Y0109768D02*
X0243431Y0109768D01*
X0243430Y0109769D02*
X0239379Y0109769D01*
X0239380Y0109769D02*
X0243429Y0109769D01*
X0243428Y0109770D02*
X0239381Y0109770D01*
X0239382Y0109771D02*
X0243427Y0109771D01*
X0243426Y0109772D02*
X0239383Y0109772D01*
X0239385Y0109773D02*
X0243425Y0109773D01*
X0243424Y0109774D02*
X0239386Y0109774D01*
X0239387Y0109775D02*
X0243423Y0109775D01*
X0243422Y0109776D02*
X0239388Y0109776D01*
X0239389Y0109777D02*
X0243421Y0109777D01*
X0243420Y0109778D02*
X0239390Y0109778D01*
X0239391Y0109779D02*
X0243419Y0109779D01*
X0243418Y0109780D02*
X0239392Y0109780D01*
X0239393Y0109781D02*
X0243418Y0109781D01*
X0243417Y0109782D02*
X0239394Y0109782D01*
X0239395Y0109783D02*
X0243416Y0109783D01*
X0243415Y0109784D02*
X0239396Y0109784D01*
X0239397Y0109785D02*
X0243414Y0109785D01*
X0243413Y0109786D02*
X0239398Y0109786D01*
X0239399Y0109787D02*
X0243412Y0109787D01*
X0243411Y0109788D02*
X0239400Y0109788D01*
X0239401Y0109789D02*
X0243410Y0109789D01*
X0243409Y0109790D02*
X0239402Y0109790D01*
X0239403Y0109791D02*
X0243408Y0109791D01*
X0243407Y0109792D02*
X0239404Y0109792D01*
X0239405Y0109793D02*
X0243406Y0109793D01*
X0243405Y0109794D02*
X0239406Y0109794D01*
X0239407Y0109795D02*
X0243404Y0109795D01*
X0243403Y0109796D02*
X0239408Y0109796D01*
X0239409Y0109797D02*
X0243402Y0109797D01*
X0243402Y0109798D02*
X0239410Y0109798D01*
X0239411Y0109799D02*
X0243401Y0109799D01*
X0243400Y0109800D02*
X0239412Y0109800D01*
X0239413Y0109801D02*
X0243399Y0109801D01*
X0243398Y0109802D02*
X0239414Y0109802D01*
X0239415Y0109803D02*
X0243397Y0109803D01*
X0243396Y0109804D02*
X0239416Y0109804D01*
X0239417Y0109805D02*
X0243395Y0109805D01*
X0243394Y0109806D02*
X0239418Y0109806D01*
X0239419Y0109807D02*
X0243393Y0109807D01*
X0243392Y0109808D02*
X0239420Y0109808D01*
X0239421Y0109809D02*
X0243391Y0109809D01*
X0243390Y0109810D02*
X0239422Y0109810D01*
X0239423Y0109811D02*
X0243389Y0109811D01*
X0243388Y0109812D02*
X0239425Y0109812D01*
X0239426Y0109813D02*
X0243387Y0109813D01*
X0243386Y0109814D02*
X0239427Y0109814D01*
X0239428Y0109815D02*
X0243385Y0109815D01*
X0243385Y0109816D02*
X0239429Y0109816D01*
X0239430Y0109817D02*
X0243384Y0109817D01*
X0243383Y0109818D02*
X0239431Y0109818D01*
X0239432Y0109819D02*
X0243382Y0109819D01*
X0243381Y0109820D02*
X0239433Y0109820D01*
X0239434Y0109821D02*
X0243380Y0109821D01*
X0243379Y0109822D02*
X0239435Y0109822D01*
X0239436Y0109823D02*
X0243378Y0109823D01*
X0243377Y0109824D02*
X0239437Y0109824D01*
X0239438Y0109825D02*
X0243376Y0109825D01*
X0243375Y0109826D02*
X0239439Y0109826D01*
X0239440Y0109827D02*
X0243374Y0109827D01*
X0243373Y0109828D02*
X0239441Y0109828D01*
X0239442Y0109829D02*
X0243372Y0109829D01*
X0243371Y0109830D02*
X0239443Y0109830D01*
X0239444Y0109831D02*
X0243370Y0109831D01*
X0243369Y0109831D02*
X0239445Y0109831D01*
X0239446Y0109832D02*
X0243369Y0109832D01*
X0243368Y0109833D02*
X0239447Y0109833D01*
X0239448Y0109834D02*
X0243367Y0109834D01*
X0243366Y0109835D02*
X0239449Y0109835D01*
X0239450Y0109836D02*
X0243365Y0109836D01*
X0243364Y0109837D02*
X0239451Y0109837D01*
X0239452Y0109838D02*
X0243363Y0109838D01*
X0243362Y0109839D02*
X0239453Y0109839D01*
X0239454Y0109840D02*
X0243361Y0109840D01*
X0243360Y0109841D02*
X0239455Y0109841D01*
X0239456Y0109842D02*
X0243359Y0109842D01*
X0243358Y0109843D02*
X0239457Y0109843D01*
X0239458Y0109844D02*
X0243357Y0109844D01*
X0243356Y0109845D02*
X0239459Y0109845D01*
X0239460Y0109846D02*
X0243355Y0109846D01*
X0243354Y0109847D02*
X0239461Y0109847D01*
X0239462Y0109848D02*
X0243353Y0109848D01*
X0243352Y0109849D02*
X0239463Y0109849D01*
X0239465Y0109850D02*
X0243352Y0109850D01*
X0243351Y0109851D02*
X0239466Y0109851D01*
X0239467Y0109852D02*
X0243350Y0109852D01*
X0243349Y0109853D02*
X0239468Y0109853D01*
X0239469Y0109854D02*
X0243348Y0109854D01*
X0243347Y0109855D02*
X0239470Y0109855D01*
X0239471Y0109856D02*
X0243346Y0109856D01*
X0243345Y0109857D02*
X0239472Y0109857D01*
X0239473Y0109858D02*
X0243344Y0109858D01*
X0243343Y0109859D02*
X0239474Y0109859D01*
X0239475Y0109860D02*
X0243342Y0109860D01*
X0243341Y0109861D02*
X0239476Y0109861D01*
X0239477Y0109862D02*
X0243340Y0109862D01*
X0243339Y0109863D02*
X0239478Y0109863D01*
X0239479Y0109864D02*
X0243338Y0109864D01*
X0243337Y0109865D02*
X0239480Y0109865D01*
X0239481Y0109866D02*
X0243336Y0109866D01*
X0243336Y0109867D02*
X0239482Y0109867D01*
X0239483Y0109868D02*
X0243335Y0109868D01*
X0243334Y0109869D02*
X0239484Y0109869D01*
X0239485Y0109870D02*
X0243333Y0109870D01*
X0243332Y0109871D02*
X0239486Y0109871D01*
X0239487Y0109872D02*
X0243331Y0109872D01*
X0243330Y0109873D02*
X0239488Y0109873D01*
X0239489Y0109874D02*
X0243329Y0109874D01*
X0243328Y0109875D02*
X0239490Y0109875D01*
X0239491Y0109876D02*
X0243327Y0109876D01*
X0243326Y0109877D02*
X0239492Y0109877D01*
X0239493Y0109878D02*
X0243325Y0109878D01*
X0243324Y0109879D02*
X0239494Y0109879D01*
X0239495Y0109880D02*
X0243323Y0109880D01*
X0243322Y0109881D02*
X0239496Y0109881D01*
X0239497Y0109882D02*
X0243321Y0109882D01*
X0243320Y0109883D02*
X0239498Y0109883D01*
X0239499Y0109884D02*
X0243319Y0109884D01*
X0243319Y0109885D02*
X0239500Y0109885D01*
X0239501Y0109886D02*
X0243318Y0109886D01*
X0243317Y0109887D02*
X0239502Y0109887D01*
X0239504Y0109888D02*
X0243316Y0109888D01*
X0243315Y0109889D02*
X0239505Y0109889D01*
X0239506Y0109890D02*
X0243314Y0109890D01*
X0243313Y0109891D02*
X0239507Y0109891D01*
X0239508Y0109892D02*
X0243312Y0109892D01*
X0243311Y0109893D02*
X0239509Y0109893D01*
X0239510Y0109894D02*
X0243310Y0109894D01*
X0243309Y0109894D02*
X0239511Y0109894D01*
X0239512Y0109895D02*
X0243308Y0109895D01*
X0243307Y0109896D02*
X0239513Y0109896D01*
X0239514Y0109897D02*
X0243306Y0109897D01*
X0243305Y0109898D02*
X0239515Y0109898D01*
X0239516Y0109899D02*
X0243304Y0109899D01*
X0243303Y0109900D02*
X0239517Y0109900D01*
X0239518Y0109901D02*
X0243303Y0109901D01*
X0243302Y0109902D02*
X0239519Y0109902D01*
X0239520Y0109903D02*
X0243301Y0109903D01*
X0243300Y0109904D02*
X0239521Y0109904D01*
X0239522Y0109905D02*
X0243299Y0109905D01*
X0243298Y0109906D02*
X0239523Y0109906D01*
X0239524Y0109907D02*
X0243297Y0109907D01*
X0243296Y0109908D02*
X0239525Y0109908D01*
X0239526Y0109909D02*
X0243295Y0109909D01*
X0243294Y0109910D02*
X0239527Y0109910D01*
X0239528Y0109911D02*
X0243293Y0109911D01*
X0243292Y0109912D02*
X0239529Y0109912D01*
X0239530Y0109913D02*
X0243291Y0109913D01*
X0243290Y0109914D02*
X0239531Y0109914D01*
X0239532Y0109915D02*
X0243289Y0109915D01*
X0243288Y0109916D02*
X0239533Y0109916D01*
X0239534Y0109917D02*
X0243287Y0109917D01*
X0243286Y0109918D02*
X0239535Y0109918D01*
X0239536Y0109919D02*
X0243286Y0109919D01*
X0243285Y0109920D02*
X0239537Y0109920D01*
X0239538Y0109921D02*
X0243284Y0109921D01*
X0243283Y0109922D02*
X0239539Y0109922D01*
X0239540Y0109923D02*
X0243282Y0109923D01*
X0243281Y0109924D02*
X0239541Y0109924D01*
X0239542Y0109925D02*
X0243280Y0109925D01*
X0243279Y0109926D02*
X0239544Y0109926D01*
X0239545Y0109927D02*
X0243278Y0109927D01*
X0243277Y0109928D02*
X0239546Y0109928D01*
X0239547Y0109929D02*
X0243276Y0109929D01*
X0243275Y0109930D02*
X0239548Y0109930D01*
X0239549Y0109931D02*
X0243274Y0109931D01*
X0243273Y0109932D02*
X0239550Y0109932D01*
X0239551Y0109933D02*
X0243272Y0109933D01*
X0243271Y0109934D02*
X0239552Y0109934D01*
X0239553Y0109935D02*
X0243270Y0109935D01*
X0243270Y0109936D02*
X0239554Y0109936D01*
X0239555Y0109937D02*
X0243269Y0109937D01*
X0243268Y0109938D02*
X0239556Y0109938D01*
X0239557Y0109939D02*
X0243267Y0109939D01*
X0243266Y0109940D02*
X0239558Y0109940D01*
X0239559Y0109941D02*
X0243265Y0109941D01*
X0243264Y0109942D02*
X0239560Y0109942D01*
X0239561Y0109943D02*
X0243263Y0109943D01*
X0243262Y0109944D02*
X0239562Y0109944D01*
X0239563Y0109945D02*
X0243261Y0109945D01*
X0243260Y0109946D02*
X0239564Y0109946D01*
X0239565Y0109947D02*
X0243259Y0109947D01*
X0243258Y0109948D02*
X0239566Y0109948D01*
X0239567Y0109949D02*
X0243257Y0109949D01*
X0243256Y0109950D02*
X0239568Y0109950D01*
X0239569Y0109951D02*
X0243255Y0109951D01*
X0243254Y0109952D02*
X0239570Y0109952D01*
X0239571Y0109953D02*
X0243253Y0109953D01*
X0243253Y0109954D02*
X0239572Y0109954D01*
X0239573Y0109955D02*
X0243252Y0109955D01*
X0243251Y0109956D02*
X0239574Y0109956D01*
X0239575Y0109956D02*
X0243250Y0109956D01*
X0243249Y0109957D02*
X0239576Y0109957D01*
X0239577Y0109958D02*
X0243248Y0109958D01*
X0243247Y0109959D02*
X0239578Y0109959D01*
X0239579Y0109960D02*
X0243246Y0109960D01*
X0243245Y0109961D02*
X0239580Y0109961D01*
X0239581Y0109962D02*
X0243244Y0109962D01*
X0243243Y0109963D02*
X0239583Y0109963D01*
X0239584Y0109964D02*
X0243242Y0109964D01*
X0243241Y0109965D02*
X0239585Y0109965D01*
X0239586Y0109966D02*
X0243240Y0109966D01*
X0243239Y0109967D02*
X0239587Y0109967D01*
X0239588Y0109968D02*
X0243238Y0109968D01*
X0243237Y0109969D02*
X0239589Y0109969D01*
X0239590Y0109970D02*
X0243237Y0109970D01*
X0243236Y0109971D02*
X0239591Y0109971D01*
X0239592Y0109972D02*
X0243235Y0109972D01*
X0243234Y0109973D02*
X0239593Y0109973D01*
X0239594Y0109974D02*
X0243233Y0109974D01*
X0243232Y0109975D02*
X0239595Y0109975D01*
X0239596Y0109976D02*
X0243231Y0109976D01*
X0243230Y0109977D02*
X0239597Y0109977D01*
X0239598Y0109978D02*
X0243229Y0109978D01*
X0243228Y0109979D02*
X0239599Y0109979D01*
X0239600Y0109980D02*
X0243227Y0109980D01*
X0243226Y0109981D02*
X0239601Y0109981D01*
X0239602Y0109982D02*
X0243225Y0109982D01*
X0243224Y0109983D02*
X0239603Y0109983D01*
X0239604Y0109984D02*
X0243223Y0109984D01*
X0243222Y0109985D02*
X0239605Y0109985D01*
X0239606Y0109986D02*
X0243221Y0109986D01*
X0243221Y0109987D02*
X0239607Y0109987D01*
X0239608Y0109988D02*
X0243220Y0109988D01*
X0243219Y0109989D02*
X0239609Y0109989D01*
X0239610Y0109990D02*
X0243218Y0109990D01*
X0243217Y0109991D02*
X0239611Y0109991D01*
X0239612Y0109992D02*
X0243216Y0109992D01*
X0243215Y0109993D02*
X0239613Y0109993D01*
X0239614Y0109994D02*
X0243214Y0109994D01*
X0243213Y0109995D02*
X0239615Y0109995D01*
X0239616Y0109996D02*
X0243212Y0109996D01*
X0243211Y0109997D02*
X0239617Y0109997D01*
X0239618Y0109998D02*
X0243210Y0109998D01*
X0243209Y0109999D02*
X0239619Y0109999D01*
X0239620Y0110000D02*
X0243208Y0110000D01*
X0243207Y0110001D02*
X0239621Y0110001D01*
X0239623Y0110002D02*
X0243206Y0110002D01*
X0243205Y0110003D02*
X0239624Y0110003D01*
X0239625Y0110004D02*
X0243204Y0110004D01*
X0243204Y0110005D02*
X0239626Y0110005D01*
X0239627Y0110006D02*
X0243203Y0110006D01*
X0243202Y0110007D02*
X0239628Y0110007D01*
X0239629Y0110008D02*
X0243201Y0110008D01*
X0243200Y0110009D02*
X0239630Y0110009D01*
X0239631Y0110010D02*
X0243199Y0110010D01*
X0243198Y0110011D02*
X0239632Y0110011D01*
X0239633Y0110012D02*
X0243197Y0110012D01*
X0243196Y0110013D02*
X0239634Y0110013D01*
X0239635Y0110014D02*
X0243195Y0110014D01*
X0243194Y0110015D02*
X0239636Y0110015D01*
X0239637Y0110016D02*
X0243193Y0110016D01*
X0243192Y0110017D02*
X0239638Y0110017D01*
X0239639Y0110018D02*
X0243191Y0110018D01*
X0243190Y0110019D02*
X0239640Y0110019D01*
X0239641Y0110019D02*
X0243189Y0110019D01*
X0243188Y0110020D02*
X0239642Y0110020D01*
X0239643Y0110021D02*
X0243188Y0110021D01*
X0243187Y0110022D02*
X0239644Y0110022D01*
X0239645Y0110023D02*
X0243186Y0110023D01*
X0243185Y0110024D02*
X0239646Y0110024D01*
X0239647Y0110025D02*
X0243184Y0110025D01*
X0243183Y0110026D02*
X0239648Y0110026D01*
X0239649Y0110027D02*
X0243182Y0110027D01*
X0243181Y0110028D02*
X0239650Y0110028D01*
X0239651Y0110029D02*
X0243180Y0110029D01*
X0243179Y0110030D02*
X0239652Y0110030D01*
X0239653Y0110031D02*
X0243178Y0110031D01*
X0243177Y0110032D02*
X0239654Y0110032D01*
X0239655Y0110033D02*
X0243176Y0110033D01*
X0243175Y0110034D02*
X0239656Y0110034D01*
X0239657Y0110035D02*
X0243174Y0110035D01*
X0243173Y0110036D02*
X0239658Y0110036D01*
X0239659Y0110037D02*
X0243172Y0110037D01*
X0243171Y0110038D02*
X0239660Y0110038D01*
X0239661Y0110039D02*
X0243171Y0110039D01*
X0243170Y0110040D02*
X0239663Y0110040D01*
X0239664Y0110041D02*
X0243169Y0110041D01*
X0243168Y0110042D02*
X0239665Y0110042D01*
X0239666Y0110043D02*
X0243167Y0110043D01*
X0243166Y0110044D02*
X0239667Y0110044D01*
X0239668Y0110045D02*
X0243165Y0110045D01*
X0243164Y0110046D02*
X0239669Y0110046D01*
X0239670Y0110047D02*
X0243163Y0110047D01*
X0243162Y0110048D02*
X0239671Y0110048D01*
X0239672Y0110049D02*
X0243161Y0110049D01*
X0243160Y0110050D02*
X0239673Y0110050D01*
X0239674Y0110051D02*
X0243159Y0110051D01*
X0243158Y0110052D02*
X0239675Y0110052D01*
X0239676Y0110053D02*
X0243157Y0110053D01*
X0243156Y0110054D02*
X0239677Y0110054D01*
X0239678Y0110055D02*
X0243155Y0110055D01*
X0243155Y0110056D02*
X0239679Y0110056D01*
X0239680Y0110057D02*
X0243154Y0110057D01*
X0243153Y0110058D02*
X0239681Y0110058D01*
X0239682Y0110059D02*
X0243152Y0110059D01*
X0243151Y0110060D02*
X0239683Y0110060D01*
X0239684Y0110061D02*
X0243150Y0110061D01*
X0243149Y0110062D02*
X0239685Y0110062D01*
X0239686Y0110063D02*
X0243148Y0110063D01*
X0243147Y0110064D02*
X0239687Y0110064D01*
X0239688Y0110065D02*
X0243146Y0110065D01*
X0243145Y0110066D02*
X0239689Y0110066D01*
X0239690Y0110067D02*
X0243144Y0110067D01*
X0243143Y0110068D02*
X0239691Y0110068D01*
X0239692Y0110069D02*
X0243142Y0110069D01*
X0243141Y0110070D02*
X0239693Y0110070D01*
X0239694Y0110071D02*
X0243140Y0110071D01*
X0243139Y0110072D02*
X0239695Y0110072D01*
X0239696Y0110073D02*
X0243138Y0110073D01*
X0243138Y0110074D02*
X0239697Y0110074D01*
X0239698Y0110075D02*
X0243137Y0110075D01*
X0243136Y0110076D02*
X0239699Y0110076D01*
X0239700Y0110077D02*
X0243135Y0110077D01*
X0243134Y0110078D02*
X0239702Y0110078D01*
X0239703Y0110079D02*
X0243133Y0110079D01*
X0243132Y0110080D02*
X0239704Y0110080D01*
X0239705Y0110081D02*
X0243131Y0110081D01*
X0243130Y0110081D02*
X0239706Y0110081D01*
X0239707Y0110082D02*
X0243129Y0110082D01*
X0243128Y0110083D02*
X0239708Y0110083D01*
X0239709Y0110084D02*
X0243127Y0110084D01*
X0243126Y0110085D02*
X0239710Y0110085D01*
X0239711Y0110086D02*
X0243125Y0110086D01*
X0243124Y0110087D02*
X0239712Y0110087D01*
X0239713Y0110088D02*
X0243123Y0110088D01*
X0243122Y0110089D02*
X0239714Y0110089D01*
X0239715Y0110090D02*
X0243122Y0110090D01*
X0243121Y0110091D02*
X0239716Y0110091D01*
X0239717Y0110092D02*
X0243120Y0110092D01*
X0243119Y0110093D02*
X0239718Y0110093D01*
X0239719Y0110094D02*
X0243118Y0110094D01*
X0243117Y0110095D02*
X0239720Y0110095D01*
X0239721Y0110096D02*
X0243116Y0110096D01*
X0243115Y0110097D02*
X0239722Y0110097D01*
X0239723Y0110098D02*
X0243114Y0110098D01*
X0243113Y0110099D02*
X0239724Y0110099D01*
X0239725Y0110100D02*
X0243112Y0110100D01*
X0243111Y0110101D02*
X0239726Y0110101D01*
X0239727Y0110102D02*
X0243110Y0110102D01*
X0243109Y0110103D02*
X0239728Y0110103D01*
X0239729Y0110104D02*
X0243108Y0110104D01*
X0243107Y0110105D02*
X0239730Y0110105D01*
X0239731Y0110106D02*
X0243106Y0110106D01*
X0243105Y0110107D02*
X0239732Y0110107D01*
X0239733Y0110108D02*
X0243105Y0110108D01*
X0243104Y0110109D02*
X0239734Y0110109D01*
X0239735Y0110110D02*
X0243103Y0110110D01*
X0243102Y0110111D02*
X0239736Y0110111D01*
X0239737Y0110112D02*
X0243101Y0110112D01*
X0243100Y0110113D02*
X0239738Y0110113D01*
X0239739Y0110114D02*
X0243099Y0110114D01*
X0243098Y0110115D02*
X0239740Y0110115D01*
X0239741Y0110116D02*
X0243097Y0110116D01*
X0243096Y0110117D02*
X0239743Y0110117D01*
X0239744Y0110118D02*
X0243095Y0110118D01*
X0243094Y0110119D02*
X0239745Y0110119D01*
X0239746Y0110120D02*
X0243093Y0110120D01*
X0243092Y0110121D02*
X0239747Y0110121D01*
X0239748Y0110122D02*
X0243091Y0110122D01*
X0243090Y0110123D02*
X0239749Y0110123D01*
X0239750Y0110124D02*
X0243089Y0110124D01*
X0243089Y0110125D02*
X0239751Y0110125D01*
X0239752Y0110126D02*
X0243088Y0110126D01*
X0243087Y0110127D02*
X0239753Y0110127D01*
X0239754Y0110128D02*
X0243086Y0110128D01*
X0243085Y0110129D02*
X0239755Y0110129D01*
X0239756Y0110130D02*
X0243084Y0110130D01*
X0243083Y0110131D02*
X0239757Y0110131D01*
X0239758Y0110132D02*
X0243082Y0110132D01*
X0243081Y0110133D02*
X0239759Y0110133D01*
X0239760Y0110134D02*
X0243080Y0110134D01*
X0243079Y0110135D02*
X0239761Y0110135D01*
X0239762Y0110136D02*
X0243078Y0110136D01*
X0243077Y0110137D02*
X0239763Y0110137D01*
X0239764Y0110138D02*
X0243076Y0110138D01*
X0243075Y0110139D02*
X0239765Y0110139D01*
X0239766Y0110140D02*
X0243074Y0110140D01*
X0243073Y0110141D02*
X0239767Y0110141D01*
X0239768Y0110142D02*
X0243073Y0110142D01*
X0243072Y0110143D02*
X0239769Y0110143D01*
X0239770Y0110144D02*
X0243071Y0110144D01*
X0243070Y0110144D02*
X0239771Y0110144D01*
X0239772Y0110145D02*
X0243069Y0110145D01*
X0243068Y0110146D02*
X0239773Y0110146D01*
X0239774Y0110147D02*
X0243067Y0110147D01*
X0243066Y0110148D02*
X0239775Y0110148D01*
X0239776Y0110149D02*
X0243065Y0110149D01*
X0243064Y0110150D02*
X0239777Y0110150D01*
X0239778Y0110151D02*
X0243063Y0110151D01*
X0243062Y0110152D02*
X0239779Y0110152D01*
X0239780Y0110153D02*
X0243061Y0110153D01*
X0243060Y0110154D02*
X0239782Y0110154D01*
X0239783Y0110155D02*
X0243059Y0110155D01*
X0243058Y0110156D02*
X0239784Y0110156D01*
X0239785Y0110157D02*
X0243057Y0110157D01*
X0243056Y0110158D02*
X0239786Y0110158D01*
X0239787Y0110159D02*
X0243056Y0110159D01*
X0243055Y0110160D02*
X0239788Y0110160D01*
X0239789Y0110161D02*
X0243054Y0110161D01*
X0243053Y0110162D02*
X0239790Y0110162D01*
X0239791Y0110163D02*
X0243052Y0110163D01*
X0243051Y0110164D02*
X0239792Y0110164D01*
X0239793Y0110165D02*
X0243050Y0110165D01*
X0243049Y0110166D02*
X0239794Y0110166D01*
X0239795Y0110167D02*
X0243048Y0110167D01*
X0243047Y0110168D02*
X0239796Y0110168D01*
X0239797Y0110169D02*
X0243046Y0110169D01*
X0243045Y0110170D02*
X0239798Y0110170D01*
X0239799Y0110171D02*
X0243044Y0110171D01*
X0243043Y0110172D02*
X0239800Y0110172D01*
X0239801Y0110173D02*
X0243042Y0110173D01*
X0243041Y0110174D02*
X0239802Y0110174D01*
X0239803Y0110175D02*
X0243040Y0110175D01*
X0243040Y0110176D02*
X0239804Y0110176D01*
X0239805Y0110177D02*
X0243039Y0110177D01*
X0243038Y0110178D02*
X0239806Y0110178D01*
X0239807Y0110179D02*
X0243037Y0110179D01*
X0243036Y0110180D02*
X0239808Y0110180D01*
X0239809Y0110181D02*
X0243035Y0110181D01*
X0243034Y0110182D02*
X0239810Y0110182D01*
X0239811Y0110183D02*
X0243033Y0110183D01*
X0243032Y0110184D02*
X0239812Y0110184D01*
X0239813Y0110185D02*
X0243031Y0110185D01*
X0243030Y0110186D02*
X0239814Y0110186D01*
X0239815Y0110187D02*
X0243029Y0110187D01*
X0243028Y0110188D02*
X0239816Y0110188D01*
X0239817Y0110189D02*
X0243027Y0110189D01*
X0243026Y0110190D02*
X0239818Y0110190D01*
X0239819Y0110191D02*
X0243025Y0110191D01*
X0243024Y0110192D02*
X0239820Y0110192D01*
X0239822Y0110193D02*
X0243023Y0110193D01*
X0243023Y0110194D02*
X0239823Y0110194D01*
X0239824Y0110195D02*
X0243022Y0110195D01*
X0243021Y0110196D02*
X0239825Y0110196D01*
X0239826Y0110197D02*
X0243020Y0110197D01*
X0243019Y0110198D02*
X0239827Y0110198D01*
X0239828Y0110199D02*
X0243018Y0110199D01*
X0243017Y0110200D02*
X0239829Y0110200D01*
X0239830Y0110201D02*
X0243016Y0110201D01*
X0243015Y0110202D02*
X0239831Y0110202D01*
X0239832Y0110203D02*
X0243014Y0110203D01*
X0243013Y0110204D02*
X0239833Y0110204D01*
X0239834Y0110205D02*
X0243012Y0110205D01*
X0243011Y0110206D02*
X0239835Y0110206D01*
X0239836Y0110206D02*
X0243010Y0110206D01*
X0243009Y0110207D02*
X0239837Y0110207D01*
X0239838Y0110208D02*
X0243008Y0110208D01*
X0243007Y0110209D02*
X0239839Y0110209D01*
X0239840Y0110210D02*
X0243007Y0110210D01*
X0243006Y0110211D02*
X0239841Y0110211D01*
X0239842Y0110212D02*
X0243005Y0110212D01*
X0243004Y0110213D02*
X0239843Y0110213D01*
X0239844Y0110214D02*
X0243003Y0110214D01*
X0243002Y0110215D02*
X0239845Y0110215D01*
X0239846Y0110216D02*
X0243001Y0110216D01*
X0243000Y0110217D02*
X0239847Y0110217D01*
X0239848Y0110218D02*
X0242999Y0110218D01*
X0242998Y0110219D02*
X0239849Y0110219D01*
X0239850Y0110220D02*
X0242997Y0110220D01*
X0242996Y0110221D02*
X0239851Y0110221D01*
X0239852Y0110222D02*
X0242995Y0110222D01*
X0242994Y0110223D02*
X0239853Y0110223D01*
X0239854Y0110224D02*
X0242993Y0110224D01*
X0242992Y0110225D02*
X0239855Y0110225D01*
X0239856Y0110226D02*
X0242991Y0110226D01*
X0242990Y0110227D02*
X0239857Y0110227D01*
X0239858Y0110228D02*
X0242990Y0110228D01*
X0242989Y0110229D02*
X0239859Y0110229D01*
X0239861Y0110230D02*
X0242988Y0110230D01*
X0242987Y0110231D02*
X0239862Y0110231D01*
X0239863Y0110232D02*
X0242986Y0110232D01*
X0242985Y0110233D02*
X0239864Y0110233D01*
X0239865Y0110234D02*
X0242984Y0110234D01*
X0242983Y0110235D02*
X0239866Y0110235D01*
X0239867Y0110236D02*
X0242982Y0110236D01*
X0242981Y0110237D02*
X0239868Y0110237D01*
X0239869Y0110238D02*
X0242980Y0110238D01*
X0242979Y0110239D02*
X0239870Y0110239D01*
X0239871Y0110240D02*
X0242978Y0110240D01*
X0242977Y0110241D02*
X0239872Y0110241D01*
X0239873Y0110242D02*
X0242976Y0110242D01*
X0242975Y0110243D02*
X0239874Y0110243D01*
X0239875Y0110244D02*
X0242974Y0110244D01*
X0242974Y0110245D02*
X0239876Y0110245D01*
X0239877Y0110246D02*
X0242973Y0110246D01*
X0242972Y0110247D02*
X0239878Y0110247D01*
X0239879Y0110248D02*
X0242971Y0110248D01*
X0242970Y0110249D02*
X0239880Y0110249D01*
X0239881Y0110250D02*
X0242969Y0110250D01*
X0242968Y0110251D02*
X0239882Y0110251D01*
X0239883Y0110252D02*
X0242967Y0110252D01*
X0242966Y0110253D02*
X0239884Y0110253D01*
X0239885Y0110254D02*
X0242965Y0110254D01*
X0242964Y0110255D02*
X0239886Y0110255D01*
X0239887Y0110256D02*
X0242963Y0110256D01*
X0242962Y0110257D02*
X0239888Y0110257D01*
X0239889Y0110258D02*
X0242961Y0110258D01*
X0242960Y0110259D02*
X0239890Y0110259D01*
X0239891Y0110260D02*
X0242959Y0110260D01*
X0242958Y0110261D02*
X0239892Y0110261D01*
X0239893Y0110262D02*
X0242958Y0110262D01*
X0242957Y0110263D02*
X0239894Y0110263D01*
X0239895Y0110264D02*
X0242956Y0110264D01*
X0242955Y0110265D02*
X0239896Y0110265D01*
X0239897Y0110266D02*
X0242954Y0110266D01*
X0242953Y0110267D02*
X0239898Y0110267D01*
X0239899Y0110268D02*
X0242952Y0110268D01*
X0242951Y0110269D02*
X0239901Y0110269D01*
X0239902Y0110269D02*
X0242950Y0110269D01*
X0242949Y0110270D02*
X0239903Y0110270D01*
X0239904Y0110271D02*
X0242948Y0110271D01*
X0242947Y0110272D02*
X0239905Y0110272D01*
X0239906Y0110273D02*
X0242946Y0110273D01*
X0242945Y0110274D02*
X0239907Y0110274D01*
X0239908Y0110275D02*
X0242944Y0110275D01*
X0242943Y0110276D02*
X0239909Y0110276D01*
X0239910Y0110277D02*
X0242942Y0110277D01*
X0242941Y0110278D02*
X0239911Y0110278D01*
X0239912Y0110279D02*
X0242941Y0110279D01*
X0242940Y0110280D02*
X0239913Y0110280D01*
X0239914Y0110281D02*
X0242939Y0110281D01*
X0242938Y0110282D02*
X0239915Y0110282D01*
X0239916Y0110283D02*
X0242937Y0110283D01*
X0242936Y0110284D02*
X0239917Y0110284D01*
X0239918Y0110285D02*
X0242935Y0110285D01*
X0242934Y0110286D02*
X0239919Y0110286D01*
X0239920Y0110287D02*
X0242933Y0110287D01*
X0242932Y0110288D02*
X0239921Y0110288D01*
X0239922Y0110289D02*
X0242931Y0110289D01*
X0242930Y0110290D02*
X0239923Y0110290D01*
X0239924Y0110291D02*
X0242929Y0110291D01*
X0242928Y0110292D02*
X0239925Y0110292D01*
X0239926Y0110293D02*
X0242927Y0110293D01*
X0242926Y0110294D02*
X0239927Y0110294D01*
X0239928Y0110295D02*
X0242925Y0110295D01*
X0242925Y0110296D02*
X0239929Y0110296D01*
X0239930Y0110297D02*
X0242924Y0110297D01*
X0242923Y0110298D02*
X0239931Y0110298D01*
X0239932Y0110299D02*
X0242922Y0110299D01*
X0242921Y0110300D02*
X0239933Y0110300D01*
X0239934Y0110301D02*
X0242920Y0110301D01*
X0242919Y0110302D02*
X0239935Y0110302D01*
X0239936Y0110303D02*
X0242918Y0110303D01*
X0242917Y0110304D02*
X0239937Y0110304D01*
X0239938Y0110305D02*
X0242916Y0110305D01*
X0242915Y0110306D02*
X0239939Y0110306D01*
X0239941Y0110307D02*
X0242914Y0110307D01*
X0242913Y0110308D02*
X0239942Y0110308D01*
X0239943Y0110309D02*
X0242912Y0110309D01*
X0242911Y0110310D02*
X0239944Y0110310D01*
X0239945Y0110311D02*
X0242910Y0110311D01*
X0242909Y0110312D02*
X0239946Y0110312D01*
X0239947Y0110313D02*
X0242908Y0110313D01*
X0242908Y0110314D02*
X0239948Y0110314D01*
X0239949Y0110315D02*
X0242907Y0110315D01*
X0242906Y0110316D02*
X0239950Y0110316D01*
X0239951Y0110317D02*
X0242905Y0110317D01*
X0242904Y0110318D02*
X0239952Y0110318D01*
X0239953Y0110319D02*
X0242903Y0110319D01*
X0242902Y0110320D02*
X0239954Y0110320D01*
X0239955Y0110321D02*
X0242901Y0110321D01*
X0242900Y0110322D02*
X0239956Y0110322D01*
X0239957Y0110323D02*
X0242899Y0110323D01*
X0242898Y0110324D02*
X0239958Y0110324D01*
X0239959Y0110325D02*
X0242897Y0110325D01*
X0242896Y0110326D02*
X0239960Y0110326D01*
X0239961Y0110327D02*
X0242895Y0110327D01*
X0242894Y0110328D02*
X0239962Y0110328D01*
X0239963Y0110329D02*
X0242893Y0110329D01*
X0242892Y0110330D02*
X0239964Y0110330D01*
X0239965Y0110331D02*
X0242892Y0110331D01*
X0242891Y0110331D02*
X0239966Y0110331D01*
X0239967Y0110332D02*
X0242890Y0110332D01*
X0242889Y0110333D02*
X0239968Y0110333D01*
X0239969Y0110334D02*
X0242888Y0110334D01*
X0242887Y0110335D02*
X0239970Y0110335D01*
X0239971Y0110336D02*
X0242886Y0110336D01*
X0242885Y0110337D02*
X0239972Y0110337D01*
X0239973Y0110338D02*
X0242884Y0110338D01*
X0242883Y0110339D02*
X0239974Y0110339D01*
X0239975Y0110340D02*
X0242882Y0110340D01*
X0242881Y0110341D02*
X0239976Y0110341D01*
X0239977Y0110342D02*
X0242880Y0110342D01*
X0242879Y0110343D02*
X0239978Y0110343D01*
X0239980Y0110344D02*
X0242878Y0110344D01*
X0242877Y0110345D02*
X0239981Y0110345D01*
X0239982Y0110346D02*
X0242876Y0110346D01*
X0242875Y0110347D02*
X0239983Y0110347D01*
X0239984Y0110348D02*
X0242875Y0110348D01*
X0242874Y0110349D02*
X0239985Y0110349D01*
X0239986Y0110350D02*
X0242873Y0110350D01*
X0242872Y0110351D02*
X0239987Y0110351D01*
X0239988Y0110352D02*
X0242871Y0110352D01*
X0242870Y0110353D02*
X0239989Y0110353D01*
X0239990Y0110354D02*
X0242869Y0110354D01*
X0242868Y0110355D02*
X0239991Y0110355D01*
X0239992Y0110356D02*
X0242867Y0110356D01*
X0242866Y0110357D02*
X0239993Y0110357D01*
X0239994Y0110358D02*
X0242865Y0110358D01*
X0242864Y0110359D02*
X0239995Y0110359D01*
X0239996Y0110360D02*
X0242863Y0110360D01*
X0242862Y0110361D02*
X0239997Y0110361D01*
X0239998Y0110362D02*
X0242861Y0110362D01*
X0242860Y0110363D02*
X0239999Y0110363D01*
X0240000Y0110364D02*
X0242859Y0110364D01*
X0242859Y0110365D02*
X0240001Y0110365D01*
X0240002Y0110366D02*
X0242858Y0110366D01*
X0242857Y0110367D02*
X0240003Y0110367D01*
X0240004Y0110368D02*
X0242856Y0110368D01*
X0242855Y0110369D02*
X0240005Y0110369D01*
X0240006Y0110370D02*
X0242854Y0110370D01*
X0242853Y0110371D02*
X0240007Y0110371D01*
X0240008Y0110372D02*
X0242852Y0110372D01*
X0242851Y0110373D02*
X0240009Y0110373D01*
X0240010Y0110374D02*
X0242850Y0110374D01*
X0242849Y0110375D02*
X0240011Y0110375D01*
X0240012Y0110376D02*
X0242848Y0110376D01*
X0242847Y0110377D02*
X0240013Y0110377D01*
X0240014Y0110378D02*
X0242846Y0110378D01*
X0242845Y0110379D02*
X0240015Y0110379D01*
X0240016Y0110380D02*
X0242844Y0110380D01*
X0242843Y0110381D02*
X0240017Y0110381D01*
X0240018Y0110382D02*
X0242842Y0110382D01*
X0242842Y0110383D02*
X0240020Y0110383D01*
X0240021Y0110384D02*
X0242841Y0110384D01*
X0242840Y0110385D02*
X0240022Y0110385D01*
X0240023Y0110386D02*
X0242839Y0110386D01*
X0242838Y0110387D02*
X0240024Y0110387D01*
X0240025Y0110388D02*
X0242837Y0110388D01*
X0242836Y0110389D02*
X0240026Y0110389D01*
X0240027Y0110390D02*
X0242835Y0110390D01*
X0242834Y0110391D02*
X0240028Y0110391D01*
X0240029Y0110392D02*
X0242833Y0110392D01*
X0242832Y0110393D02*
X0240030Y0110393D01*
X0240031Y0110394D02*
X0242831Y0110394D01*
X0242830Y0110394D02*
X0240032Y0110394D01*
X0240033Y0110395D02*
X0242829Y0110395D01*
X0242828Y0110396D02*
X0240034Y0110396D01*
X0240035Y0110397D02*
X0242827Y0110397D01*
X0242826Y0110398D02*
X0240036Y0110398D01*
X0240037Y0110399D02*
X0242826Y0110399D01*
X0242825Y0110400D02*
X0240038Y0110400D01*
X0240039Y0110401D02*
X0242824Y0110401D01*
X0242823Y0110402D02*
X0240040Y0110402D01*
X0240041Y0110403D02*
X0242822Y0110403D01*
X0242821Y0110404D02*
X0240042Y0110404D01*
X0240043Y0110405D02*
X0242820Y0110405D01*
X0242819Y0110406D02*
X0240044Y0110406D01*
X0240045Y0110407D02*
X0242818Y0110407D01*
X0242817Y0110408D02*
X0240046Y0110408D01*
X0240047Y0110409D02*
X0242816Y0110409D01*
X0242815Y0110410D02*
X0240048Y0110410D01*
X0240049Y0110411D02*
X0242814Y0110411D01*
X0242813Y0110412D02*
X0240050Y0110412D01*
X0240051Y0110413D02*
X0242812Y0110413D01*
X0242811Y0110414D02*
X0240052Y0110414D01*
X0240053Y0110415D02*
X0242810Y0110415D01*
X0242809Y0110416D02*
X0240054Y0110416D01*
X0240055Y0110417D02*
X0242809Y0110417D01*
X0242808Y0110418D02*
X0240056Y0110418D01*
X0240057Y0110419D02*
X0242807Y0110419D01*
X0242806Y0110420D02*
X0240058Y0110420D01*
X0240060Y0110421D02*
X0242805Y0110421D01*
X0242804Y0110422D02*
X0240061Y0110422D01*
X0240062Y0110423D02*
X0242803Y0110423D01*
X0242802Y0110424D02*
X0240063Y0110424D01*
X0240064Y0110425D02*
X0242801Y0110425D01*
X0242800Y0110426D02*
X0240065Y0110426D01*
X0240066Y0110427D02*
X0242799Y0110427D01*
X0242798Y0110428D02*
X0240067Y0110428D01*
X0240068Y0110429D02*
X0242797Y0110429D01*
X0242796Y0110430D02*
X0240069Y0110430D01*
X0240070Y0110431D02*
X0242795Y0110431D01*
X0242794Y0110432D02*
X0240071Y0110432D01*
X0240072Y0110433D02*
X0242793Y0110433D01*
X0242793Y0110434D02*
X0240073Y0110434D01*
X0240074Y0110435D02*
X0242792Y0110435D01*
X0242791Y0110436D02*
X0240075Y0110436D01*
X0240076Y0110437D02*
X0242790Y0110437D01*
X0242789Y0110438D02*
X0240077Y0110438D01*
X0240078Y0110439D02*
X0242788Y0110439D01*
X0242787Y0110440D02*
X0240079Y0110440D01*
X0240080Y0110441D02*
X0242786Y0110441D01*
X0242785Y0110442D02*
X0240081Y0110442D01*
X0240082Y0110443D02*
X0242784Y0110443D01*
X0242783Y0110444D02*
X0240083Y0110444D01*
X0240084Y0110445D02*
X0242782Y0110445D01*
X0242781Y0110446D02*
X0240085Y0110446D01*
X0240086Y0110447D02*
X0242780Y0110447D01*
X0242779Y0110448D02*
X0240087Y0110448D01*
X0240088Y0110449D02*
X0242778Y0110449D01*
X0242777Y0110450D02*
X0240089Y0110450D01*
X0240090Y0110451D02*
X0242777Y0110451D01*
X0242776Y0110452D02*
X0240091Y0110452D01*
X0240092Y0110453D02*
X0242775Y0110453D01*
X0242774Y0110454D02*
X0240093Y0110454D01*
X0240094Y0110455D02*
X0242773Y0110455D01*
X0242772Y0110456D02*
X0240095Y0110456D01*
X0240096Y0110456D02*
X0242771Y0110456D01*
X0242770Y0110457D02*
X0240097Y0110457D01*
X0240098Y0110458D02*
X0242769Y0110458D01*
X0242768Y0110459D02*
X0240100Y0110459D01*
X0240101Y0110460D02*
X0242767Y0110460D01*
X0242766Y0110461D02*
X0240102Y0110461D01*
X0240103Y0110462D02*
X0242765Y0110462D01*
X0242764Y0110463D02*
X0240104Y0110463D01*
X0240105Y0110464D02*
X0242763Y0110464D01*
X0242762Y0110465D02*
X0240106Y0110465D01*
X0240107Y0110466D02*
X0242761Y0110466D01*
X0242760Y0110467D02*
X0240108Y0110467D01*
X0240109Y0110468D02*
X0242760Y0110468D01*
X0242759Y0110469D02*
X0240110Y0110469D01*
X0240111Y0110470D02*
X0242758Y0110470D01*
X0242757Y0110471D02*
X0240112Y0110471D01*
X0240113Y0110472D02*
X0242756Y0110472D01*
X0242755Y0110473D02*
X0240114Y0110473D01*
X0240115Y0110474D02*
X0242754Y0110474D01*
X0242753Y0110475D02*
X0240116Y0110475D01*
X0240117Y0110476D02*
X0242752Y0110476D01*
X0242751Y0110477D02*
X0240118Y0110477D01*
X0240119Y0110478D02*
X0242750Y0110478D01*
X0242749Y0110479D02*
X0240120Y0110479D01*
X0240121Y0110480D02*
X0242748Y0110480D01*
X0242747Y0110481D02*
X0240122Y0110481D01*
X0240123Y0110482D02*
X0242746Y0110482D01*
X0242745Y0110483D02*
X0240124Y0110483D01*
X0240125Y0110484D02*
X0242744Y0110484D01*
X0242744Y0110485D02*
X0240126Y0110485D01*
X0240127Y0110486D02*
X0242743Y0110486D01*
X0242742Y0110487D02*
X0240128Y0110487D01*
X0240129Y0110488D02*
X0242741Y0110488D01*
X0242740Y0110489D02*
X0240130Y0110489D01*
X0240131Y0110490D02*
X0242739Y0110490D01*
X0242738Y0110491D02*
X0240132Y0110491D01*
X0240133Y0110492D02*
X0242737Y0110492D01*
X0242736Y0110493D02*
X0240134Y0110493D01*
X0240135Y0110494D02*
X0242735Y0110494D01*
X0242734Y0110495D02*
X0240136Y0110495D01*
X0240137Y0110496D02*
X0242733Y0110496D01*
X0242732Y0110497D02*
X0240139Y0110497D01*
X0240140Y0110498D02*
X0242731Y0110498D01*
X0242730Y0110499D02*
X0240141Y0110499D01*
X0240142Y0110500D02*
X0242729Y0110500D01*
X0242728Y0110501D02*
X0240143Y0110501D01*
X0240144Y0110502D02*
X0242727Y0110502D01*
X0242727Y0110503D02*
X0240145Y0110503D01*
X0240146Y0110504D02*
X0242726Y0110504D01*
X0242725Y0110505D02*
X0240147Y0110505D01*
X0240148Y0110506D02*
X0242724Y0110506D01*
X0242723Y0110507D02*
X0240149Y0110507D01*
X0240150Y0110508D02*
X0242722Y0110508D01*
X0242721Y0110509D02*
X0240151Y0110509D01*
X0240152Y0110510D02*
X0242720Y0110510D01*
X0242719Y0110511D02*
X0240153Y0110511D01*
X0240154Y0110512D02*
X0242718Y0110512D01*
X0242717Y0110513D02*
X0240155Y0110513D01*
X0240156Y0110514D02*
X0242716Y0110514D01*
X0242715Y0110515D02*
X0240157Y0110515D01*
X0240158Y0110516D02*
X0242714Y0110516D01*
X0242713Y0110517D02*
X0240159Y0110517D01*
X0240160Y0110518D02*
X0242712Y0110518D01*
X0242711Y0110519D02*
X0240161Y0110519D01*
X0240162Y0110519D02*
X0242711Y0110519D01*
X0242710Y0110520D02*
X0240163Y0110520D01*
X0240164Y0110521D02*
X0242709Y0110521D01*
X0242708Y0110522D02*
X0240165Y0110522D01*
X0240166Y0110523D02*
X0242707Y0110523D01*
X0242706Y0110524D02*
X0240167Y0110524D01*
X0240168Y0110525D02*
X0242705Y0110525D01*
X0242704Y0110526D02*
X0240169Y0110526D01*
X0240170Y0110527D02*
X0242703Y0110527D01*
X0242702Y0110528D02*
X0240171Y0110528D01*
X0240172Y0110529D02*
X0242701Y0110529D01*
X0242700Y0110530D02*
X0240173Y0110530D01*
X0240174Y0110531D02*
X0242699Y0110531D01*
X0242698Y0110532D02*
X0240175Y0110532D01*
X0240176Y0110533D02*
X0242697Y0110533D01*
X0242696Y0110534D02*
X0240177Y0110534D01*
X0240179Y0110535D02*
X0242695Y0110535D01*
X0242695Y0110536D02*
X0240180Y0110536D01*
X0240181Y0110537D02*
X0242694Y0110537D01*
X0242693Y0110538D02*
X0240182Y0110538D01*
X0240183Y0110539D02*
X0242692Y0110539D01*
X0242691Y0110540D02*
X0240184Y0110540D01*
X0240185Y0110541D02*
X0242690Y0110541D01*
X0242689Y0110542D02*
X0240186Y0110542D01*
X0240187Y0110543D02*
X0242688Y0110543D01*
X0242687Y0110544D02*
X0240188Y0110544D01*
X0240189Y0110545D02*
X0242686Y0110545D01*
X0242685Y0110546D02*
X0240190Y0110546D01*
X0240191Y0110547D02*
X0242684Y0110547D01*
X0242683Y0110548D02*
X0240192Y0110548D01*
X0240193Y0110549D02*
X0242682Y0110549D01*
X0242681Y0110550D02*
X0240194Y0110550D01*
X0240195Y0110551D02*
X0242680Y0110551D01*
X0242679Y0110552D02*
X0240196Y0110552D01*
X0240197Y0110553D02*
X0242678Y0110553D01*
X0242678Y0110554D02*
X0240198Y0110554D01*
X0240199Y0110555D02*
X0242677Y0110555D01*
X0242676Y0110556D02*
X0240200Y0110556D01*
X0240201Y0110557D02*
X0242675Y0110557D01*
X0242674Y0110558D02*
X0240202Y0110558D01*
X0240203Y0110559D02*
X0242673Y0110559D01*
X0242672Y0110560D02*
X0240204Y0110560D01*
X0240205Y0110561D02*
X0242671Y0110561D01*
X0242670Y0110562D02*
X0240206Y0110562D01*
X0240207Y0110563D02*
X0242669Y0110563D01*
X0242668Y0110564D02*
X0240208Y0110564D01*
X0240209Y0110565D02*
X0242667Y0110565D01*
X0242666Y0110566D02*
X0240210Y0110566D01*
X0240211Y0110567D02*
X0242665Y0110567D01*
X0242664Y0110568D02*
X0240212Y0110568D01*
X0240213Y0110569D02*
X0242663Y0110569D01*
X0242662Y0110570D02*
X0240214Y0110570D01*
X0240215Y0110571D02*
X0242662Y0110571D01*
X0242661Y0110572D02*
X0240216Y0110572D01*
X0240217Y0110573D02*
X0242660Y0110573D01*
X0242659Y0110574D02*
X0240219Y0110574D01*
X0240220Y0110575D02*
X0242658Y0110575D01*
X0242657Y0110576D02*
X0240221Y0110576D01*
X0240222Y0110577D02*
X0242656Y0110577D01*
X0242655Y0110578D02*
X0240223Y0110578D01*
X0240224Y0110579D02*
X0242654Y0110579D01*
X0242653Y0110580D02*
X0240225Y0110580D01*
X0240226Y0110581D02*
X0242652Y0110581D01*
X0242651Y0110581D02*
X0240227Y0110581D01*
X0240228Y0110582D02*
X0242650Y0110582D01*
X0242649Y0110583D02*
X0240229Y0110583D01*
X0240230Y0110584D02*
X0242648Y0110584D01*
X0242647Y0110585D02*
X0240231Y0110585D01*
X0240232Y0110586D02*
X0242646Y0110586D01*
X0242645Y0110587D02*
X0240233Y0110587D01*
X0240234Y0110588D02*
X0242645Y0110588D01*
X0242644Y0110589D02*
X0240235Y0110589D01*
X0240236Y0110590D02*
X0242643Y0110590D01*
X0242642Y0110591D02*
X0240237Y0110591D01*
X0240238Y0110592D02*
X0242641Y0110592D01*
X0242640Y0110593D02*
X0240239Y0110593D01*
X0240240Y0110594D02*
X0242639Y0110594D01*
X0242638Y0110595D02*
X0240241Y0110595D01*
X0240242Y0110596D02*
X0242637Y0110596D01*
X0242636Y0110597D02*
X0240243Y0110597D01*
X0240244Y0110598D02*
X0242635Y0110598D01*
X0242634Y0110599D02*
X0240245Y0110599D01*
X0240246Y0110600D02*
X0242633Y0110600D01*
X0242632Y0110601D02*
X0240247Y0110601D01*
X0240248Y0110602D02*
X0242631Y0110602D01*
X0242630Y0110603D02*
X0240249Y0110603D01*
X0240250Y0110604D02*
X0242629Y0110604D01*
X0242629Y0110605D02*
X0240251Y0110605D01*
X0240252Y0110606D02*
X0242628Y0110606D01*
X0242627Y0110607D02*
X0240253Y0110607D01*
X0240254Y0110608D02*
X0242626Y0110608D01*
X0242625Y0110609D02*
X0240255Y0110609D01*
X0240256Y0110610D02*
X0242624Y0110610D01*
X0242623Y0110611D02*
X0240258Y0110611D01*
X0240259Y0110612D02*
X0242622Y0110612D01*
X0242621Y0110613D02*
X0240260Y0110613D01*
X0240261Y0110614D02*
X0242620Y0110614D01*
X0242619Y0110615D02*
X0240262Y0110615D01*
X0240263Y0110616D02*
X0242618Y0110616D01*
X0242617Y0110617D02*
X0240264Y0110617D01*
X0240265Y0110618D02*
X0242616Y0110618D01*
X0242615Y0110619D02*
X0240266Y0110619D01*
X0240267Y0110620D02*
X0242614Y0110620D01*
X0242613Y0110621D02*
X0240268Y0110621D01*
X0240269Y0110622D02*
X0242612Y0110622D01*
X0242612Y0110623D02*
X0240270Y0110623D01*
X0240271Y0110624D02*
X0242611Y0110624D01*
X0242610Y0110625D02*
X0240272Y0110625D01*
X0240273Y0110626D02*
X0242609Y0110626D01*
X0242608Y0110627D02*
X0240274Y0110627D01*
X0240275Y0110628D02*
X0242607Y0110628D01*
X0242606Y0110629D02*
X0240276Y0110629D01*
X0240277Y0110630D02*
X0242605Y0110630D01*
X0242604Y0110631D02*
X0240278Y0110631D01*
X0240279Y0110632D02*
X0242603Y0110632D01*
X0242602Y0110633D02*
X0240280Y0110633D01*
X0240281Y0110634D02*
X0242601Y0110634D01*
X0242600Y0110635D02*
X0240282Y0110635D01*
X0240283Y0110636D02*
X0242599Y0110636D01*
X0242598Y0110637D02*
X0240284Y0110637D01*
X0240285Y0110638D02*
X0242597Y0110638D01*
X0242596Y0110639D02*
X0240286Y0110639D01*
X0240287Y0110640D02*
X0242596Y0110640D01*
X0242595Y0110641D02*
X0240288Y0110641D01*
X0240289Y0110642D02*
X0242594Y0110642D01*
X0242593Y0110643D02*
X0240290Y0110643D01*
X0240291Y0110644D02*
X0242592Y0110644D01*
X0242591Y0110644D02*
X0240292Y0110644D01*
X0240293Y0110645D02*
X0242590Y0110645D01*
X0242589Y0110646D02*
X0240294Y0110646D01*
X0240295Y0110647D02*
X0242588Y0110647D01*
X0242587Y0110648D02*
X0240296Y0110648D01*
X0240298Y0110649D02*
X0242586Y0110649D01*
X0242585Y0110650D02*
X0240299Y0110650D01*
X0240300Y0110651D02*
X0242584Y0110651D01*
X0242583Y0110652D02*
X0240301Y0110652D01*
X0240302Y0110653D02*
X0242582Y0110653D01*
X0242581Y0110654D02*
X0240303Y0110654D01*
X0240304Y0110655D02*
X0242580Y0110655D01*
X0242579Y0110656D02*
X0240305Y0110656D01*
X0240306Y0110657D02*
X0242579Y0110657D01*
X0242578Y0110658D02*
X0240307Y0110658D01*
X0240308Y0110659D02*
X0242577Y0110659D01*
X0242576Y0110660D02*
X0240309Y0110660D01*
X0240310Y0110661D02*
X0242575Y0110661D01*
X0242574Y0110662D02*
X0240311Y0110662D01*
X0240312Y0110663D02*
X0242573Y0110663D01*
X0242572Y0110664D02*
X0240313Y0110664D01*
X0240314Y0110665D02*
X0242571Y0110665D01*
X0242570Y0110666D02*
X0240315Y0110666D01*
X0240316Y0110667D02*
X0242569Y0110667D01*
X0242568Y0110668D02*
X0240317Y0110668D01*
X0240318Y0110669D02*
X0242567Y0110669D01*
X0242566Y0110670D02*
X0240319Y0110670D01*
X0240320Y0110671D02*
X0242565Y0110671D01*
X0242564Y0110672D02*
X0240321Y0110672D01*
X0240322Y0110673D02*
X0242563Y0110673D01*
X0242563Y0110674D02*
X0240323Y0110674D01*
X0240324Y0110675D02*
X0242562Y0110675D01*
X0242561Y0110676D02*
X0240325Y0110676D01*
X0240326Y0110677D02*
X0242560Y0110677D01*
X0242559Y0110678D02*
X0240327Y0110678D01*
X0240328Y0110679D02*
X0242558Y0110679D01*
X0242557Y0110680D02*
X0240329Y0110680D01*
X0240330Y0110681D02*
X0242556Y0110681D01*
X0242555Y0110682D02*
X0240331Y0110682D01*
X0240332Y0110683D02*
X0242554Y0110683D01*
X0242553Y0110684D02*
X0240333Y0110684D01*
X0240334Y0110685D02*
X0242552Y0110685D01*
X0242551Y0110686D02*
X0240335Y0110686D01*
X0240336Y0110687D02*
X0242550Y0110687D01*
X0242549Y0110688D02*
X0240338Y0110688D01*
X0240339Y0110689D02*
X0242548Y0110689D01*
X0242547Y0110690D02*
X0240340Y0110690D01*
X0240341Y0110691D02*
X0242547Y0110691D01*
X0242546Y0110692D02*
X0240342Y0110692D01*
X0240343Y0110693D02*
X0242545Y0110693D01*
X0242544Y0110694D02*
X0240344Y0110694D01*
X0240345Y0110695D02*
X0242543Y0110695D01*
X0242542Y0110696D02*
X0240346Y0110696D01*
X0240347Y0110697D02*
X0242541Y0110697D01*
X0242540Y0110698D02*
X0240348Y0110698D01*
X0240349Y0110699D02*
X0242539Y0110699D01*
X0242538Y0110700D02*
X0240350Y0110700D01*
X0240351Y0110701D02*
X0242537Y0110701D01*
X0242536Y0110702D02*
X0240352Y0110702D01*
X0240353Y0110703D02*
X0242535Y0110703D01*
X0242534Y0110704D02*
X0240354Y0110704D01*
X0240355Y0110705D02*
X0242533Y0110705D01*
X0242532Y0110706D02*
X0240356Y0110706D01*
X0240357Y0110706D02*
X0242531Y0110706D01*
X0242530Y0110707D02*
X0240358Y0110707D01*
X0240359Y0110708D02*
X0242530Y0110708D01*
X0242529Y0110709D02*
X0240360Y0110709D01*
X0240361Y0110710D02*
X0242528Y0110710D01*
X0242527Y0110711D02*
X0240362Y0110711D01*
X0240363Y0110712D02*
X0242526Y0110712D01*
X0242525Y0110713D02*
X0240364Y0110713D01*
X0240365Y0110714D02*
X0242524Y0110714D01*
X0242523Y0110715D02*
X0240366Y0110715D01*
X0240367Y0110716D02*
X0242522Y0110716D01*
X0242521Y0110717D02*
X0240368Y0110717D01*
X0240369Y0110718D02*
X0242520Y0110718D01*
X0242519Y0110719D02*
X0240370Y0110719D01*
X0240371Y0110720D02*
X0242518Y0110720D01*
X0242517Y0110721D02*
X0240372Y0110721D01*
X0240373Y0110722D02*
X0242516Y0110722D01*
X0242515Y0110723D02*
X0240374Y0110723D01*
X0240375Y0110724D02*
X0242514Y0110724D01*
X0242514Y0110725D02*
X0240377Y0110725D01*
X0240378Y0110726D02*
X0242513Y0110726D01*
X0242512Y0110727D02*
X0240379Y0110727D01*
X0240380Y0110728D02*
X0242511Y0110728D01*
X0242510Y0110729D02*
X0240381Y0110729D01*
X0240382Y0110730D02*
X0242509Y0110730D01*
X0242508Y0110731D02*
X0240383Y0110731D01*
X0240384Y0110732D02*
X0242507Y0110732D01*
X0242506Y0110733D02*
X0240385Y0110733D01*
X0240386Y0110734D02*
X0242505Y0110734D01*
X0242504Y0110735D02*
X0240387Y0110735D01*
X0240388Y0110736D02*
X0242503Y0110736D01*
X0242502Y0110737D02*
X0240389Y0110737D01*
X0240390Y0110738D02*
X0242501Y0110738D01*
X0242500Y0110739D02*
X0240391Y0110739D01*
X0240392Y0110740D02*
X0242499Y0110740D01*
X0242498Y0110741D02*
X0240393Y0110741D01*
X0240394Y0110742D02*
X0242497Y0110742D01*
X0242497Y0110743D02*
X0240395Y0110743D01*
X0240396Y0110744D02*
X0242496Y0110744D01*
X0242495Y0110745D02*
X0240397Y0110745D01*
X0240398Y0110746D02*
X0242494Y0110746D01*
X0242493Y0110747D02*
X0240399Y0110747D01*
X0240400Y0110748D02*
X0242492Y0110748D01*
X0242491Y0110749D02*
X0240401Y0110749D01*
X0240402Y0110750D02*
X0242490Y0110750D01*
X0242489Y0110751D02*
X0240403Y0110751D01*
X0240404Y0110752D02*
X0242488Y0110752D01*
X0242487Y0110753D02*
X0240405Y0110753D01*
X0240406Y0110754D02*
X0242486Y0110754D01*
X0242485Y0110755D02*
X0240407Y0110755D01*
X0240408Y0110756D02*
X0242484Y0110756D01*
X0242483Y0110757D02*
X0240409Y0110757D01*
X0240410Y0110758D02*
X0242482Y0110758D01*
X0242481Y0110759D02*
X0240411Y0110759D01*
X0240412Y0110760D02*
X0242481Y0110760D01*
X0242480Y0110761D02*
X0240413Y0110761D01*
X0240414Y0110762D02*
X0242479Y0110762D01*
X0242478Y0110763D02*
X0240415Y0110763D01*
X0240417Y0110764D02*
X0242477Y0110764D01*
X0242476Y0110765D02*
X0240418Y0110765D01*
X0240419Y0110766D02*
X0242475Y0110766D01*
X0242474Y0110767D02*
X0240420Y0110767D01*
X0240421Y0110768D02*
X0242473Y0110768D01*
X0242472Y0110769D02*
X0240422Y0110769D01*
X0240423Y0110769D02*
X0242471Y0110769D01*
X0242470Y0110770D02*
X0240424Y0110770D01*
X0240425Y0110771D02*
X0242469Y0110771D01*
X0242468Y0110772D02*
X0240426Y0110772D01*
X0240427Y0110773D02*
X0242467Y0110773D01*
X0242466Y0110774D02*
X0240428Y0110774D01*
X0240429Y0110775D02*
X0242465Y0110775D01*
X0242464Y0110776D02*
X0240430Y0110776D01*
X0240431Y0110777D02*
X0242464Y0110777D01*
X0242463Y0110778D02*
X0240432Y0110778D01*
X0240433Y0110779D02*
X0242462Y0110779D01*
X0242461Y0110780D02*
X0240434Y0110780D01*
X0240435Y0110781D02*
X0242460Y0110781D01*
X0242459Y0110782D02*
X0240436Y0110782D01*
X0240437Y0110783D02*
X0242458Y0110783D01*
X0242457Y0110784D02*
X0240438Y0110784D01*
X0240439Y0110785D02*
X0242456Y0110785D01*
X0242455Y0110786D02*
X0240440Y0110786D01*
X0240441Y0110787D02*
X0242454Y0110787D01*
X0242453Y0110788D02*
X0240442Y0110788D01*
X0240443Y0110789D02*
X0242452Y0110789D01*
X0242451Y0110790D02*
X0240444Y0110790D01*
X0240445Y0110791D02*
X0242450Y0110791D01*
X0242449Y0110792D02*
X0240446Y0110792D01*
X0240447Y0110793D02*
X0242448Y0110793D01*
X0242448Y0110794D02*
X0240448Y0110794D01*
X0240449Y0110795D02*
X0242447Y0110795D01*
X0242446Y0110796D02*
X0240450Y0110796D01*
X0240451Y0110797D02*
X0242445Y0110797D01*
X0242444Y0110798D02*
X0240452Y0110798D01*
X0240453Y0110799D02*
X0242443Y0110799D01*
X0242442Y0110800D02*
X0240454Y0110800D01*
X0240455Y0110801D02*
X0242441Y0110801D01*
X0242440Y0110802D02*
X0240457Y0110802D01*
X0240458Y0110803D02*
X0242439Y0110803D01*
X0242438Y0110804D02*
X0240459Y0110804D01*
X0240460Y0110805D02*
X0242437Y0110805D01*
X0242436Y0110806D02*
X0240461Y0110806D01*
X0240462Y0110807D02*
X0242435Y0110807D01*
X0242434Y0110808D02*
X0240463Y0110808D01*
X0240464Y0110809D02*
X0242433Y0110809D01*
X0242432Y0110810D02*
X0240465Y0110810D01*
X0240466Y0110811D02*
X0242431Y0110811D01*
X0242431Y0110812D02*
X0240467Y0110812D01*
X0240468Y0110813D02*
X0242430Y0110813D01*
X0242429Y0110814D02*
X0240469Y0110814D01*
X0240470Y0110815D02*
X0242428Y0110815D01*
X0242427Y0110816D02*
X0240471Y0110816D01*
X0240472Y0110817D02*
X0242426Y0110817D01*
X0242425Y0110818D02*
X0240473Y0110818D01*
X0240474Y0110819D02*
X0242424Y0110819D01*
X0242423Y0110820D02*
X0240475Y0110820D01*
X0240476Y0110821D02*
X0242422Y0110821D01*
X0242421Y0110822D02*
X0240477Y0110822D01*
X0240478Y0110823D02*
X0242420Y0110823D01*
X0242419Y0110824D02*
X0240479Y0110824D01*
X0240480Y0110825D02*
X0242418Y0110825D01*
X0242417Y0110826D02*
X0240481Y0110826D01*
X0240482Y0110827D02*
X0242416Y0110827D01*
X0242415Y0110828D02*
X0240483Y0110828D01*
X0240484Y0110829D02*
X0242415Y0110829D01*
X0242414Y0110830D02*
X0240485Y0110830D01*
X0240486Y0110831D02*
X0242413Y0110831D01*
X0242412Y0110831D02*
X0240487Y0110831D01*
X0240488Y0110832D02*
X0242411Y0110832D01*
X0242410Y0110833D02*
X0240489Y0110833D01*
X0240490Y0110834D02*
X0242409Y0110834D01*
X0242408Y0110835D02*
X0240491Y0110835D01*
X0240492Y0110836D02*
X0242407Y0110836D01*
X0242406Y0110837D02*
X0240493Y0110837D01*
X0240494Y0110838D02*
X0242405Y0110838D01*
X0242404Y0110839D02*
X0240495Y0110839D01*
X0240497Y0110840D02*
X0242403Y0110840D01*
X0242402Y0110841D02*
X0240498Y0110841D01*
X0240499Y0110842D02*
X0242401Y0110842D01*
X0242400Y0110843D02*
X0240500Y0110843D01*
X0240501Y0110844D02*
X0242399Y0110844D01*
X0242398Y0110845D02*
X0240502Y0110845D01*
X0240503Y0110846D02*
X0242398Y0110846D01*
X0242397Y0110847D02*
X0240504Y0110847D01*
X0240505Y0110848D02*
X0242396Y0110848D01*
X0242395Y0110849D02*
X0240506Y0110849D01*
X0240507Y0110850D02*
X0242394Y0110850D01*
X0242393Y0110851D02*
X0240508Y0110851D01*
X0240509Y0110852D02*
X0242392Y0110852D01*
X0242391Y0110853D02*
X0240510Y0110853D01*
X0240511Y0110854D02*
X0242390Y0110854D01*
X0242389Y0110855D02*
X0240512Y0110855D01*
X0240513Y0110856D02*
X0242388Y0110856D01*
X0242387Y0110857D02*
X0240514Y0110857D01*
X0240515Y0110858D02*
X0242386Y0110858D01*
X0242385Y0110859D02*
X0240516Y0110859D01*
X0240517Y0110860D02*
X0242384Y0110860D01*
X0242383Y0110861D02*
X0240518Y0110861D01*
X0240519Y0110862D02*
X0242382Y0110862D01*
X0242382Y0110863D02*
X0240520Y0110863D01*
X0240521Y0110864D02*
X0242381Y0110864D01*
X0242380Y0110865D02*
X0240522Y0110865D01*
X0240523Y0110866D02*
X0242379Y0110866D01*
X0242378Y0110867D02*
X0240524Y0110867D01*
X0240525Y0110868D02*
X0242377Y0110868D01*
X0242376Y0110869D02*
X0240526Y0110869D01*
X0240527Y0110870D02*
X0242375Y0110870D01*
X0242374Y0110871D02*
X0240528Y0110871D01*
X0240529Y0110872D02*
X0242373Y0110872D01*
X0242372Y0110873D02*
X0240530Y0110873D01*
X0240531Y0110874D02*
X0242371Y0110874D01*
X0242370Y0110875D02*
X0240532Y0110875D01*
X0240533Y0110876D02*
X0242369Y0110876D01*
X0242368Y0110877D02*
X0240534Y0110877D01*
X0240536Y0110878D02*
X0242367Y0110878D01*
X0242366Y0110879D02*
X0240537Y0110879D01*
X0240538Y0110880D02*
X0242366Y0110880D01*
X0242365Y0110881D02*
X0240539Y0110881D01*
X0240540Y0110882D02*
X0242364Y0110882D01*
X0242363Y0110883D02*
X0240541Y0110883D01*
X0240542Y0110884D02*
X0242362Y0110884D01*
X0242361Y0110885D02*
X0240543Y0110885D01*
X0240544Y0110886D02*
X0242360Y0110886D01*
X0242359Y0110887D02*
X0240545Y0110887D01*
X0240546Y0110888D02*
X0242358Y0110888D01*
X0242357Y0110889D02*
X0240547Y0110889D01*
X0240548Y0110890D02*
X0242356Y0110890D01*
X0242355Y0110891D02*
X0240549Y0110891D01*
X0240550Y0110892D02*
X0242354Y0110892D01*
X0242353Y0110893D02*
X0240551Y0110893D01*
X0240552Y0110894D02*
X0242352Y0110894D01*
X0242351Y0110894D02*
X0240553Y0110894D01*
X0240554Y0110895D02*
X0242350Y0110895D01*
X0242349Y0110896D02*
X0240555Y0110896D01*
X0240556Y0110897D02*
X0242349Y0110897D01*
X0242348Y0110898D02*
X0240557Y0110898D01*
X0240558Y0110899D02*
X0242347Y0110899D01*
X0242346Y0110900D02*
X0240559Y0110900D01*
X0240560Y0110901D02*
X0242345Y0110901D01*
X0242344Y0110902D02*
X0240561Y0110902D01*
X0240562Y0110903D02*
X0242343Y0110903D01*
X0242342Y0110904D02*
X0240563Y0110904D01*
X0240564Y0110905D02*
X0242341Y0110905D01*
X0242340Y0110906D02*
X0240565Y0110906D01*
X0240566Y0110907D02*
X0242339Y0110907D01*
X0242338Y0110908D02*
X0240567Y0110908D01*
X0240568Y0110909D02*
X0242337Y0110909D01*
X0242336Y0110910D02*
X0240569Y0110910D01*
X0240570Y0110911D02*
X0242335Y0110911D01*
X0242334Y0110912D02*
X0240571Y0110912D01*
X0240572Y0110913D02*
X0242333Y0110913D01*
X0242333Y0110914D02*
X0240573Y0110914D01*
X0240574Y0110915D02*
X0242332Y0110915D01*
X0242331Y0110916D02*
X0240576Y0110916D01*
X0240577Y0110917D02*
X0242330Y0110917D01*
X0242329Y0110918D02*
X0240578Y0110918D01*
X0240579Y0110919D02*
X0242328Y0110919D01*
X0242327Y0110920D02*
X0240580Y0110920D01*
X0240581Y0110921D02*
X0242326Y0110921D01*
X0242325Y0110922D02*
X0240582Y0110922D01*
X0240583Y0110923D02*
X0242324Y0110923D01*
X0242323Y0110924D02*
X0240584Y0110924D01*
X0240585Y0110925D02*
X0242322Y0110925D01*
X0242321Y0110926D02*
X0240586Y0110926D01*
X0240587Y0110927D02*
X0242320Y0110927D01*
X0242319Y0110928D02*
X0240588Y0110928D01*
X0240589Y0110929D02*
X0242318Y0110929D01*
X0242317Y0110930D02*
X0240590Y0110930D01*
X0240591Y0110931D02*
X0242316Y0110931D01*
X0242316Y0110932D02*
X0240592Y0110932D01*
X0240593Y0110933D02*
X0242315Y0110933D01*
X0242314Y0110934D02*
X0240594Y0110934D01*
X0240595Y0110935D02*
X0242313Y0110935D01*
X0242312Y0110936D02*
X0240596Y0110936D01*
X0240597Y0110937D02*
X0242311Y0110937D01*
X0242310Y0110938D02*
X0240598Y0110938D01*
X0240599Y0110939D02*
X0242309Y0110939D01*
X0242308Y0110940D02*
X0240600Y0110940D01*
X0240601Y0110941D02*
X0242307Y0110941D01*
X0242306Y0110942D02*
X0240602Y0110942D01*
X0240603Y0110943D02*
X0242305Y0110943D01*
X0242304Y0110944D02*
X0240604Y0110944D01*
X0240605Y0110945D02*
X0242303Y0110945D01*
X0242302Y0110946D02*
X0240606Y0110946D01*
X0240607Y0110947D02*
X0242301Y0110947D01*
X0242300Y0110948D02*
X0240608Y0110948D01*
X0240609Y0110949D02*
X0242300Y0110949D01*
X0242299Y0110950D02*
X0240610Y0110950D01*
X0240611Y0110951D02*
X0242298Y0110951D01*
X0242297Y0110952D02*
X0240612Y0110952D01*
X0240613Y0110953D02*
X0242296Y0110953D01*
X0242295Y0110954D02*
X0240614Y0110954D01*
X0240616Y0110955D02*
X0242294Y0110955D01*
X0242293Y0110956D02*
X0240617Y0110956D01*
X0240618Y0110956D02*
X0242292Y0110956D01*
X0242291Y0110957D02*
X0240619Y0110957D01*
X0240620Y0110958D02*
X0242290Y0110958D01*
X0242289Y0110959D02*
X0240621Y0110959D01*
X0240622Y0110960D02*
X0242288Y0110960D01*
X0242287Y0110961D02*
X0240623Y0110961D01*
X0240624Y0110962D02*
X0242286Y0110962D01*
X0242285Y0110963D02*
X0240625Y0110963D01*
X0240626Y0110964D02*
X0242284Y0110964D01*
X0242284Y0110965D02*
X0240627Y0110965D01*
X0240628Y0110966D02*
X0242283Y0110966D01*
X0242282Y0110967D02*
X0240629Y0110967D01*
X0240630Y0110968D02*
X0242281Y0110968D01*
X0242280Y0110969D02*
X0240631Y0110969D01*
X0240632Y0110970D02*
X0242279Y0110970D01*
X0242278Y0110971D02*
X0240633Y0110971D01*
X0240634Y0110972D02*
X0242277Y0110972D01*
X0242276Y0110973D02*
X0240635Y0110973D01*
X0240636Y0110974D02*
X0242275Y0110974D01*
X0242274Y0110975D02*
X0240637Y0110975D01*
X0240638Y0110976D02*
X0242273Y0110976D01*
X0242272Y0110977D02*
X0240639Y0110977D01*
X0240640Y0110978D02*
X0242271Y0110978D01*
X0242270Y0110979D02*
X0240641Y0110979D01*
X0240642Y0110980D02*
X0242269Y0110980D01*
X0242268Y0110981D02*
X0240643Y0110981D01*
X0240644Y0110982D02*
X0242267Y0110982D01*
X0242267Y0110983D02*
X0240645Y0110983D01*
X0240646Y0110984D02*
X0242266Y0110984D01*
X0242265Y0110985D02*
X0240647Y0110985D01*
X0240648Y0110986D02*
X0242264Y0110986D01*
X0242263Y0110987D02*
X0240649Y0110987D01*
X0240650Y0110988D02*
X0242262Y0110988D01*
X0242261Y0110989D02*
X0240651Y0110989D01*
X0240652Y0110990D02*
X0242260Y0110990D01*
X0242259Y0110991D02*
X0240653Y0110991D01*
X0240655Y0110992D02*
X0242258Y0110992D01*
X0242257Y0110993D02*
X0240656Y0110993D01*
X0240657Y0110994D02*
X0242256Y0110994D01*
X0242255Y0110995D02*
X0240658Y0110995D01*
X0240659Y0110996D02*
X0242254Y0110996D01*
X0242253Y0110997D02*
X0240660Y0110997D01*
X0240661Y0110998D02*
X0242252Y0110998D01*
X0242251Y0110999D02*
X0240662Y0110999D01*
X0240663Y0111000D02*
X0242251Y0111000D01*
X0242250Y0111001D02*
X0240664Y0111001D01*
X0240665Y0111002D02*
X0242249Y0111002D01*
X0242248Y0111003D02*
X0240666Y0111003D01*
X0240667Y0111004D02*
X0242247Y0111004D01*
X0242246Y0111005D02*
X0240668Y0111005D01*
X0240669Y0111006D02*
X0242245Y0111006D01*
X0242244Y0111007D02*
X0240670Y0111007D01*
X0240671Y0111008D02*
X0242243Y0111008D01*
X0242242Y0111009D02*
X0240672Y0111009D01*
X0240673Y0111010D02*
X0242241Y0111010D01*
X0242240Y0111011D02*
X0240674Y0111011D01*
X0240675Y0111012D02*
X0242239Y0111012D01*
X0242238Y0111013D02*
X0240676Y0111013D01*
X0240677Y0111014D02*
X0242237Y0111014D01*
X0242236Y0111015D02*
X0240678Y0111015D01*
X0240679Y0111016D02*
X0242235Y0111016D01*
X0242234Y0111017D02*
X0240680Y0111017D01*
X0240681Y0111018D02*
X0242234Y0111018D01*
X0242233Y0111019D02*
X0240682Y0111019D01*
X0240683Y0111019D02*
X0242232Y0111019D01*
X0242231Y0111020D02*
X0240684Y0111020D01*
X0240685Y0111021D02*
X0242230Y0111021D01*
X0242229Y0111022D02*
X0240686Y0111022D01*
X0240687Y0111023D02*
X0242228Y0111023D01*
X0242227Y0111024D02*
X0240688Y0111024D01*
X0240689Y0111025D02*
X0242226Y0111025D01*
X0242225Y0111026D02*
X0240690Y0111026D01*
X0240691Y0111027D02*
X0242224Y0111027D01*
X0242223Y0111028D02*
X0240692Y0111028D01*
X0240693Y0111029D02*
X0242222Y0111029D01*
X0242221Y0111030D02*
X0240695Y0111030D01*
X0240696Y0111031D02*
X0242220Y0111031D01*
X0242219Y0111032D02*
X0240697Y0111032D01*
X0240698Y0111033D02*
X0242218Y0111033D01*
X0242218Y0111034D02*
X0240699Y0111034D01*
X0240700Y0111035D02*
X0242217Y0111035D01*
X0242216Y0111036D02*
X0240701Y0111036D01*
X0240702Y0111037D02*
X0242215Y0111037D01*
X0242214Y0111038D02*
X0240703Y0111038D01*
X0240704Y0111039D02*
X0242213Y0111039D01*
X0242212Y0111040D02*
X0240705Y0111040D01*
X0240706Y0111041D02*
X0242211Y0111041D01*
X0242210Y0111042D02*
X0240707Y0111042D01*
X0240708Y0111043D02*
X0242209Y0111043D01*
X0242208Y0111044D02*
X0240709Y0111044D01*
X0240710Y0111045D02*
X0242207Y0111045D01*
X0242206Y0111046D02*
X0240711Y0111046D01*
X0240712Y0111047D02*
X0242205Y0111047D01*
X0242204Y0111048D02*
X0240713Y0111048D01*
X0240714Y0111049D02*
X0242203Y0111049D01*
X0242202Y0111050D02*
X0240715Y0111050D01*
X0240716Y0111051D02*
X0242201Y0111051D01*
X0242201Y0111052D02*
X0240717Y0111052D01*
X0240718Y0111053D02*
X0242200Y0111053D01*
X0242199Y0111054D02*
X0240719Y0111054D01*
X0240720Y0111055D02*
X0242198Y0111055D01*
X0242197Y0111056D02*
X0240721Y0111056D01*
X0240722Y0111057D02*
X0242196Y0111057D01*
X0242195Y0111058D02*
X0240723Y0111058D01*
X0240724Y0111059D02*
X0242194Y0111059D01*
X0242193Y0111060D02*
X0240725Y0111060D01*
X0240726Y0111061D02*
X0242192Y0111061D01*
X0242191Y0111062D02*
X0240727Y0111062D01*
X0240728Y0111063D02*
X0242190Y0111063D01*
X0242189Y0111064D02*
X0240729Y0111064D01*
X0240730Y0111065D02*
X0242188Y0111065D01*
X0242187Y0111066D02*
X0240731Y0111066D01*
X0240732Y0111067D02*
X0242186Y0111067D01*
X0242185Y0111068D02*
X0240733Y0111068D01*
X0240735Y0111069D02*
X0242185Y0111069D01*
X0242184Y0111070D02*
X0240736Y0111070D01*
X0240737Y0111071D02*
X0242183Y0111071D01*
X0242182Y0111072D02*
X0240738Y0111072D01*
X0240739Y0111073D02*
X0242181Y0111073D01*
X0242180Y0111074D02*
X0240740Y0111074D01*
X0240741Y0111075D02*
X0242179Y0111075D01*
X0242178Y0111076D02*
X0240742Y0111076D01*
X0240743Y0111077D02*
X0242177Y0111077D01*
X0242176Y0111078D02*
X0240744Y0111078D01*
X0240745Y0111079D02*
X0242175Y0111079D01*
X0242174Y0111080D02*
X0240746Y0111080D01*
X0240747Y0111081D02*
X0242173Y0111081D01*
X0242172Y0111081D02*
X0240748Y0111081D01*
X0240749Y0111082D02*
X0242171Y0111082D01*
X0242170Y0111083D02*
X0240750Y0111083D01*
X0240751Y0111084D02*
X0242169Y0111084D01*
X0242168Y0111085D02*
X0240752Y0111085D01*
X0240753Y0111086D02*
X0242168Y0111086D01*
X0242167Y0111087D02*
X0240754Y0111087D01*
X0240755Y0111088D02*
X0242166Y0111088D01*
X0242165Y0111089D02*
X0240756Y0111089D01*
X0240757Y0111090D02*
X0242164Y0111090D01*
X0242163Y0111091D02*
X0240758Y0111091D01*
X0240759Y0111092D02*
X0242162Y0111092D01*
X0242161Y0111093D02*
X0240760Y0111093D01*
X0240761Y0111094D02*
X0242160Y0111094D01*
X0242159Y0111095D02*
X0240762Y0111095D01*
X0240763Y0111096D02*
X0242158Y0111096D01*
X0242157Y0111097D02*
X0240764Y0111097D01*
X0240765Y0111098D02*
X0242156Y0111098D01*
X0242155Y0111099D02*
X0240766Y0111099D01*
X0240767Y0111100D02*
X0242154Y0111100D01*
X0242153Y0111101D02*
X0240768Y0111101D01*
X0240769Y0111102D02*
X0242152Y0111102D01*
X0242152Y0111103D02*
X0240770Y0111103D01*
X0240771Y0111104D02*
X0242151Y0111104D01*
X0242150Y0111105D02*
X0240772Y0111105D01*
X0240773Y0111106D02*
X0242149Y0111106D01*
X0242148Y0111107D02*
X0240775Y0111107D01*
X0240776Y0111108D02*
X0242147Y0111108D01*
X0242146Y0111109D02*
X0240777Y0111109D01*
X0240778Y0111110D02*
X0242145Y0111110D01*
X0242144Y0111111D02*
X0240779Y0111111D01*
X0240780Y0111112D02*
X0242143Y0111112D01*
X0242142Y0111113D02*
X0240781Y0111113D01*
X0240782Y0111114D02*
X0242141Y0111114D01*
X0242140Y0111115D02*
X0240783Y0111115D01*
X0240784Y0111116D02*
X0242139Y0111116D01*
X0242138Y0111117D02*
X0240785Y0111117D01*
X0240786Y0111118D02*
X0242137Y0111118D01*
X0242136Y0111119D02*
X0240787Y0111119D01*
X0240788Y0111120D02*
X0242135Y0111120D01*
X0242135Y0111121D02*
X0240789Y0111121D01*
X0240790Y0111122D02*
X0242134Y0111122D01*
X0242133Y0111123D02*
X0240791Y0111123D01*
X0240792Y0111124D02*
X0242132Y0111124D01*
X0242131Y0111125D02*
X0240793Y0111125D01*
X0240794Y0111126D02*
X0242130Y0111126D01*
X0242129Y0111127D02*
X0240795Y0111127D01*
X0240796Y0111128D02*
X0242128Y0111128D01*
X0242127Y0111129D02*
X0240797Y0111129D01*
X0240798Y0111130D02*
X0242126Y0111130D01*
X0242125Y0111131D02*
X0240799Y0111131D01*
X0240800Y0111132D02*
X0242124Y0111132D01*
X0242123Y0111133D02*
X0240801Y0111133D01*
X0240802Y0111134D02*
X0242122Y0111134D01*
X0242121Y0111135D02*
X0240803Y0111135D01*
X0240804Y0111136D02*
X0242120Y0111136D01*
X0242119Y0111137D02*
X0240805Y0111137D01*
X0240806Y0111138D02*
X0242119Y0111138D01*
X0242118Y0111139D02*
X0240807Y0111139D01*
X0240808Y0111140D02*
X0242117Y0111140D01*
X0242116Y0111141D02*
X0240809Y0111141D01*
X0240810Y0111142D02*
X0242115Y0111142D01*
X0242114Y0111143D02*
X0240811Y0111143D01*
X0240812Y0111144D02*
X0242113Y0111144D01*
X0242112Y0111144D02*
X0240814Y0111144D01*
X0240815Y0111145D02*
X0242111Y0111145D01*
X0242110Y0111146D02*
X0240816Y0111146D01*
X0240817Y0111147D02*
X0242109Y0111147D01*
X0242108Y0111148D02*
X0240818Y0111148D01*
X0240819Y0111149D02*
X0242107Y0111149D01*
X0242106Y0111150D02*
X0240820Y0111150D01*
X0240821Y0111151D02*
X0242105Y0111151D01*
X0242104Y0111152D02*
X0240822Y0111152D01*
X0240823Y0111153D02*
X0242103Y0111153D01*
X0242103Y0111154D02*
X0240824Y0111154D01*
X0240825Y0111155D02*
X0242102Y0111155D01*
X0242101Y0111156D02*
X0240826Y0111156D01*
X0240827Y0111157D02*
X0242100Y0111157D01*
X0242099Y0111158D02*
X0240828Y0111158D01*
X0240829Y0111159D02*
X0242098Y0111159D01*
X0242097Y0111160D02*
X0240830Y0111160D01*
X0240831Y0111161D02*
X0242096Y0111161D01*
X0242095Y0111162D02*
X0240832Y0111162D01*
X0240833Y0111163D02*
X0242094Y0111163D01*
X0242093Y0111164D02*
X0240834Y0111164D01*
X0240835Y0111165D02*
X0242092Y0111165D01*
X0242091Y0111166D02*
X0240836Y0111166D01*
X0240837Y0111167D02*
X0242090Y0111167D01*
X0242089Y0111168D02*
X0240838Y0111168D01*
X0240839Y0111169D02*
X0242088Y0111169D01*
X0242087Y0111170D02*
X0240840Y0111170D01*
X0240841Y0111171D02*
X0242086Y0111171D01*
X0242086Y0111172D02*
X0240842Y0111172D01*
X0240843Y0111173D02*
X0242085Y0111173D01*
X0242084Y0111174D02*
X0240844Y0111174D01*
X0240845Y0111175D02*
X0242083Y0111175D01*
X0242082Y0111176D02*
X0240846Y0111176D01*
X0240847Y0111177D02*
X0242081Y0111177D01*
X0242080Y0111178D02*
X0240848Y0111178D01*
X0240849Y0111179D02*
X0242079Y0111179D01*
X0242078Y0111180D02*
X0240850Y0111180D01*
X0240851Y0111181D02*
X0242077Y0111181D01*
X0242076Y0111182D02*
X0240852Y0111182D01*
X0240854Y0111183D02*
X0242075Y0111183D01*
X0242074Y0111184D02*
X0240855Y0111184D01*
X0240856Y0111185D02*
X0242073Y0111185D01*
X0242072Y0111186D02*
X0240857Y0111186D01*
X0240858Y0111187D02*
X0242071Y0111187D01*
X0242070Y0111188D02*
X0240859Y0111188D01*
X0240860Y0111189D02*
X0242070Y0111189D01*
X0242069Y0111190D02*
X0240861Y0111190D01*
X0240862Y0111191D02*
X0242068Y0111191D01*
X0242067Y0111192D02*
X0240863Y0111192D01*
X0240864Y0111193D02*
X0242066Y0111193D01*
X0242065Y0111194D02*
X0240865Y0111194D01*
X0240866Y0111195D02*
X0242064Y0111195D01*
X0242063Y0111196D02*
X0240867Y0111196D01*
X0240868Y0111197D02*
X0242062Y0111197D01*
X0242061Y0111198D02*
X0240869Y0111198D01*
X0240870Y0111199D02*
X0242060Y0111199D01*
X0242059Y0111200D02*
X0240871Y0111200D01*
X0240872Y0111201D02*
X0242058Y0111201D01*
X0242057Y0111202D02*
X0240873Y0111202D01*
X0240874Y0111203D02*
X0242056Y0111203D01*
X0242055Y0111204D02*
X0240875Y0111204D01*
X0240876Y0111205D02*
X0242054Y0111205D01*
X0242053Y0111206D02*
X0240877Y0111206D01*
X0240878Y0111206D02*
X0242053Y0111206D01*
X0242052Y0111207D02*
X0240879Y0111207D01*
X0240880Y0111208D02*
X0242051Y0111208D01*
X0242050Y0111209D02*
X0240881Y0111209D01*
X0240882Y0111210D02*
X0242049Y0111210D01*
X0242048Y0111211D02*
X0240883Y0111211D01*
X0240884Y0111212D02*
X0242047Y0111212D01*
X0242046Y0111213D02*
X0240885Y0111213D01*
X0240886Y0111214D02*
X0242045Y0111214D01*
X0242044Y0111215D02*
X0240887Y0111215D01*
X0240888Y0111216D02*
X0242043Y0111216D01*
X0242042Y0111217D02*
X0240889Y0111217D01*
X0240890Y0111218D02*
X0242041Y0111218D01*
X0242040Y0111219D02*
X0240891Y0111219D01*
X0240892Y0111220D02*
X0242039Y0111220D01*
X0242038Y0111221D02*
X0240894Y0111221D01*
X0240895Y0111222D02*
X0242037Y0111222D01*
X0242037Y0111223D02*
X0240896Y0111223D01*
X0240897Y0111224D02*
X0242036Y0111224D01*
X0242035Y0111225D02*
X0240898Y0111225D01*
X0240899Y0111226D02*
X0242034Y0111226D01*
X0242033Y0111227D02*
X0240900Y0111227D01*
X0240901Y0111228D02*
X0242032Y0111228D01*
X0242031Y0111229D02*
X0240902Y0111229D01*
X0240903Y0111230D02*
X0242030Y0111230D01*
X0242029Y0111231D02*
X0240904Y0111231D01*
X0240905Y0111232D02*
X0242028Y0111232D01*
X0242027Y0111233D02*
X0240906Y0111233D01*
X0240907Y0111234D02*
X0242026Y0111234D01*
X0242025Y0111235D02*
X0240908Y0111235D01*
X0240909Y0111236D02*
X0242024Y0111236D01*
X0242023Y0111237D02*
X0240910Y0111237D01*
X0240911Y0111238D02*
X0242022Y0111238D01*
X0242021Y0111239D02*
X0240912Y0111239D01*
X0240913Y0111240D02*
X0242020Y0111240D01*
X0242020Y0111241D02*
X0240914Y0111241D01*
X0240915Y0111242D02*
X0242019Y0111242D01*
X0242018Y0111243D02*
X0240916Y0111243D01*
X0240917Y0111244D02*
X0242017Y0111244D01*
X0242016Y0111245D02*
X0240918Y0111245D01*
X0240919Y0111246D02*
X0242015Y0111246D01*
X0242014Y0111247D02*
X0240920Y0111247D01*
X0240921Y0111248D02*
X0242013Y0111248D01*
X0242012Y0111249D02*
X0240922Y0111249D01*
X0240923Y0111250D02*
X0242011Y0111250D01*
X0242010Y0111251D02*
X0240924Y0111251D01*
X0240925Y0111252D02*
X0242009Y0111252D01*
X0242008Y0111253D02*
X0240926Y0111253D01*
X0240927Y0111254D02*
X0242007Y0111254D01*
X0242006Y0111255D02*
X0240928Y0111255D01*
X0240929Y0111256D02*
X0242005Y0111256D01*
X0242004Y0111257D02*
X0240930Y0111257D01*
X0240931Y0111258D02*
X0242004Y0111258D01*
X0242003Y0111259D02*
X0240933Y0111259D01*
X0240934Y0111260D02*
X0242002Y0111260D01*
X0242001Y0111261D02*
X0240935Y0111261D01*
X0240936Y0111262D02*
X0242000Y0111262D01*
X0241999Y0111263D02*
X0240937Y0111263D01*
X0240938Y0111264D02*
X0241998Y0111264D01*
X0241997Y0111265D02*
X0240939Y0111265D01*
X0240940Y0111266D02*
X0241996Y0111266D01*
X0241995Y0111267D02*
X0240941Y0111267D01*
X0240942Y0111268D02*
X0241994Y0111268D01*
X0241993Y0111269D02*
X0240943Y0111269D01*
X0240944Y0111269D02*
X0241992Y0111269D01*
X0241991Y0111270D02*
X0240945Y0111270D01*
X0240946Y0111271D02*
X0241990Y0111271D01*
X0241989Y0111272D02*
X0240947Y0111272D01*
X0240948Y0111273D02*
X0241988Y0111273D01*
X0241987Y0111274D02*
X0240949Y0111274D01*
X0240950Y0111275D02*
X0241987Y0111275D01*
X0241986Y0111276D02*
X0240951Y0111276D01*
X0240952Y0111277D02*
X0241985Y0111277D01*
X0241984Y0111278D02*
X0240953Y0111278D01*
X0240954Y0111279D02*
X0241983Y0111279D01*
X0241982Y0111280D02*
X0240955Y0111280D01*
X0240956Y0111281D02*
X0241981Y0111281D01*
X0241980Y0111282D02*
X0240957Y0111282D01*
X0240958Y0111283D02*
X0241979Y0111283D01*
X0241978Y0111284D02*
X0240959Y0111284D01*
X0240960Y0111285D02*
X0241977Y0111285D01*
X0241976Y0111286D02*
X0240961Y0111286D01*
X0240962Y0111287D02*
X0241975Y0111287D01*
X0241974Y0111288D02*
X0240963Y0111288D01*
X0240964Y0111289D02*
X0241973Y0111289D01*
X0241972Y0111290D02*
X0240965Y0111290D01*
X0240966Y0111291D02*
X0241971Y0111291D01*
X0241971Y0111292D02*
X0240967Y0111292D01*
X0240968Y0111293D02*
X0241970Y0111293D01*
X0241969Y0111294D02*
X0240969Y0111294D01*
X0240970Y0111295D02*
X0241968Y0111295D01*
X0241967Y0111296D02*
X0240971Y0111296D01*
X0240973Y0111297D02*
X0241966Y0111297D01*
X0241965Y0111298D02*
X0240974Y0111298D01*
X0240975Y0111299D02*
X0241964Y0111299D01*
X0241963Y0111300D02*
X0240976Y0111300D01*
X0240977Y0111301D02*
X0241962Y0111301D01*
X0241961Y0111302D02*
X0240978Y0111302D01*
X0240979Y0111303D02*
X0241960Y0111303D01*
X0241959Y0111304D02*
X0240980Y0111304D01*
X0240981Y0111305D02*
X0241958Y0111305D01*
X0241957Y0111306D02*
X0240982Y0111306D01*
X0240983Y0111307D02*
X0241956Y0111307D01*
X0241955Y0111308D02*
X0240984Y0111308D01*
X0240985Y0111309D02*
X0241955Y0111309D01*
X0241954Y0111310D02*
X0240986Y0111310D01*
X0240987Y0111311D02*
X0241953Y0111311D01*
X0241952Y0111312D02*
X0240988Y0111312D01*
X0240989Y0111313D02*
X0241951Y0111313D01*
X0241950Y0111314D02*
X0240990Y0111314D01*
X0240991Y0111315D02*
X0241949Y0111315D01*
X0241948Y0111316D02*
X0240992Y0111316D01*
X0240993Y0111317D02*
X0241947Y0111317D01*
X0241946Y0111318D02*
X0240994Y0111318D01*
X0240995Y0111319D02*
X0241945Y0111319D01*
X0241944Y0111320D02*
X0240996Y0111320D01*
X0240997Y0111321D02*
X0241943Y0111321D01*
X0241942Y0111322D02*
X0240998Y0111322D01*
X0240999Y0111323D02*
X0241941Y0111323D01*
X0241940Y0111324D02*
X0241000Y0111324D01*
X0241001Y0111325D02*
X0241939Y0111325D01*
X0241938Y0111326D02*
X0241002Y0111326D01*
X0241003Y0111327D02*
X0241938Y0111327D01*
X0241937Y0111328D02*
X0241004Y0111328D01*
X0241005Y0111329D02*
X0241936Y0111329D01*
X0241935Y0111330D02*
X0241006Y0111330D01*
X0241007Y0111331D02*
X0241934Y0111331D01*
X0241933Y0111331D02*
X0241008Y0111331D01*
X0241009Y0111332D02*
X0241932Y0111332D01*
X0241931Y0111333D02*
X0241010Y0111333D01*
X0241011Y0111334D02*
X0241930Y0111334D01*
X0241929Y0111335D02*
X0241013Y0111335D01*
X0241014Y0111336D02*
X0241928Y0111336D01*
X0241927Y0111337D02*
X0241015Y0111337D01*
X0241016Y0111338D02*
X0241926Y0111338D01*
X0241925Y0111339D02*
X0241017Y0111339D01*
X0241018Y0111340D02*
X0241924Y0111340D01*
X0241923Y0111341D02*
X0241019Y0111341D01*
X0241020Y0111342D02*
X0241922Y0111342D01*
X0241922Y0111343D02*
X0241021Y0111343D01*
X0241022Y0111344D02*
X0241921Y0111344D01*
X0241920Y0111345D02*
X0241023Y0111345D01*
X0241024Y0111346D02*
X0241919Y0111346D01*
X0241918Y0111347D02*
X0241025Y0111347D01*
X0241026Y0111348D02*
X0241917Y0111348D01*
X0241916Y0111349D02*
X0241027Y0111349D01*
X0241028Y0111350D02*
X0241915Y0111350D01*
X0241914Y0111351D02*
X0241029Y0111351D01*
X0241030Y0111352D02*
X0241913Y0111352D01*
X0241912Y0111353D02*
X0241031Y0111353D01*
X0241032Y0111354D02*
X0241911Y0111354D01*
X0241910Y0111355D02*
X0241033Y0111355D01*
X0241034Y0111356D02*
X0241909Y0111356D01*
X0241908Y0111357D02*
X0241035Y0111357D01*
X0241036Y0111358D02*
X0241907Y0111358D01*
X0241906Y0111359D02*
X0241037Y0111359D01*
X0241038Y0111360D02*
X0241905Y0111360D01*
X0241905Y0111361D02*
X0241039Y0111361D01*
X0241040Y0111362D02*
X0241904Y0111362D01*
X0241903Y0111363D02*
X0241041Y0111363D01*
X0241042Y0111364D02*
X0241902Y0111364D01*
X0241901Y0111365D02*
X0241043Y0111365D01*
X0241044Y0111366D02*
X0241900Y0111366D01*
X0241899Y0111367D02*
X0241045Y0111367D01*
X0241046Y0111368D02*
X0241898Y0111368D01*
X0241897Y0111369D02*
X0241047Y0111369D01*
X0241048Y0111370D02*
X0241896Y0111370D01*
X0241895Y0111371D02*
X0241049Y0111371D01*
X0241050Y0111372D02*
X0241894Y0111372D01*
X0241893Y0111373D02*
X0241052Y0111373D01*
X0241053Y0111374D02*
X0241892Y0111374D01*
X0241891Y0111375D02*
X0241054Y0111375D01*
X0241055Y0111376D02*
X0241890Y0111376D01*
X0241889Y0111377D02*
X0241056Y0111377D01*
X0241057Y0111378D02*
X0241889Y0111378D01*
X0241888Y0111379D02*
X0241058Y0111379D01*
X0241059Y0111380D02*
X0241887Y0111380D01*
X0241886Y0111381D02*
X0241060Y0111381D01*
X0241061Y0111382D02*
X0241885Y0111382D01*
X0241884Y0111383D02*
X0241062Y0111383D01*
X0241063Y0111384D02*
X0241883Y0111384D01*
X0241882Y0111385D02*
X0241064Y0111385D01*
X0241065Y0111386D02*
X0241881Y0111386D01*
X0241880Y0111387D02*
X0241066Y0111387D01*
X0241067Y0111388D02*
X0241879Y0111388D01*
X0241878Y0111389D02*
X0241068Y0111389D01*
X0241069Y0111390D02*
X0241877Y0111390D01*
X0241876Y0111391D02*
X0241070Y0111391D01*
X0241071Y0111392D02*
X0241875Y0111392D01*
X0241874Y0111393D02*
X0241072Y0111393D01*
X0241073Y0111394D02*
X0241873Y0111394D01*
X0241872Y0111394D02*
X0241074Y0111394D01*
X0241075Y0111395D02*
X0241872Y0111395D01*
X0241871Y0111396D02*
X0241076Y0111396D01*
X0241077Y0111397D02*
X0241870Y0111397D01*
X0241869Y0111398D02*
X0241078Y0111398D01*
X0241079Y0111399D02*
X0241868Y0111399D01*
X0241867Y0111400D02*
X0241080Y0111400D01*
X0241081Y0111401D02*
X0241866Y0111401D01*
X0241865Y0111402D02*
X0241082Y0111402D01*
X0241083Y0111403D02*
X0241864Y0111403D01*
X0241863Y0111404D02*
X0241084Y0111404D01*
X0241085Y0111405D02*
X0241862Y0111405D01*
X0241861Y0111406D02*
X0241086Y0111406D01*
X0241087Y0111407D02*
X0241860Y0111407D01*
X0241859Y0111408D02*
X0241088Y0111408D01*
X0241089Y0111409D02*
X0241858Y0111409D01*
X0241857Y0111410D02*
X0241090Y0111410D01*
X0241092Y0111411D02*
X0241856Y0111411D01*
X0241856Y0111412D02*
X0241093Y0111412D01*
X0241094Y0111413D02*
X0241855Y0111413D01*
X0241854Y0111414D02*
X0241095Y0111414D01*
X0241096Y0111415D02*
X0241853Y0111415D01*
X0241852Y0111416D02*
X0241097Y0111416D01*
X0241098Y0111417D02*
X0241851Y0111417D01*
X0241850Y0111418D02*
X0241099Y0111418D01*
X0241100Y0111419D02*
X0241849Y0111419D01*
X0241848Y0111420D02*
X0241101Y0111420D01*
X0241102Y0111421D02*
X0241847Y0111421D01*
X0241846Y0111422D02*
X0241103Y0111422D01*
X0241104Y0111423D02*
X0241845Y0111423D01*
X0241844Y0111424D02*
X0241105Y0111424D01*
X0241106Y0111425D02*
X0241843Y0111425D01*
X0241842Y0111426D02*
X0241107Y0111426D01*
X0241108Y0111427D02*
X0241841Y0111427D01*
X0241840Y0111428D02*
X0241109Y0111428D01*
X0241110Y0111429D02*
X0241840Y0111429D01*
X0241839Y0111430D02*
X0241111Y0111430D01*
X0241112Y0111431D02*
X0241838Y0111431D01*
X0241837Y0111432D02*
X0241113Y0111432D01*
X0241114Y0111433D02*
X0241836Y0111433D01*
X0241835Y0111434D02*
X0241115Y0111434D01*
X0241116Y0111435D02*
X0241834Y0111435D01*
X0241833Y0111436D02*
X0241117Y0111436D01*
X0241118Y0111437D02*
X0241832Y0111437D01*
X0241831Y0111438D02*
X0241119Y0111438D01*
X0241120Y0111439D02*
X0241830Y0111439D01*
X0241829Y0111440D02*
X0241121Y0111440D01*
X0241122Y0111441D02*
X0241828Y0111441D01*
X0241827Y0111442D02*
X0241123Y0111442D01*
X0241124Y0111443D02*
X0241826Y0111443D01*
X0241825Y0111444D02*
X0241125Y0111444D01*
X0241126Y0111445D02*
X0241824Y0111445D01*
X0241823Y0111446D02*
X0241127Y0111446D01*
X0241128Y0111447D02*
X0241823Y0111447D01*
X0241822Y0111448D02*
X0241129Y0111448D01*
X0241130Y0111449D02*
X0241821Y0111449D01*
X0241820Y0111450D02*
X0241132Y0111450D01*
X0241133Y0111451D02*
X0241819Y0111451D01*
X0241818Y0111452D02*
X0241134Y0111452D01*
X0241135Y0111453D02*
X0241817Y0111453D01*
X0241816Y0111454D02*
X0241136Y0111454D01*
X0241137Y0111455D02*
X0241815Y0111455D01*
X0241814Y0111456D02*
X0241138Y0111456D01*
X0241139Y0111456D02*
X0241813Y0111456D01*
X0241812Y0111457D02*
X0241140Y0111457D01*
X0241141Y0111458D02*
X0241811Y0111458D01*
X0241810Y0111459D02*
X0241142Y0111459D01*
X0241143Y0111460D02*
X0241809Y0111460D01*
X0241808Y0111461D02*
X0241144Y0111461D01*
X0241145Y0111462D02*
X0241807Y0111462D01*
X0241807Y0111463D02*
X0241146Y0111463D01*
X0241147Y0111464D02*
X0241806Y0111464D01*
X0241805Y0111465D02*
X0241148Y0111465D01*
X0241149Y0111466D02*
X0241804Y0111466D01*
X0241803Y0111467D02*
X0241150Y0111467D01*
X0241151Y0111468D02*
X0241802Y0111468D01*
X0241801Y0111469D02*
X0241152Y0111469D01*
X0241153Y0111470D02*
X0241800Y0111470D01*
X0241799Y0111471D02*
X0241154Y0111471D01*
X0241155Y0111472D02*
X0241798Y0111472D01*
X0241797Y0111473D02*
X0241156Y0111473D01*
X0241157Y0111474D02*
X0241796Y0111474D01*
X0241795Y0111475D02*
X0241158Y0111475D01*
X0241159Y0111476D02*
X0241794Y0111476D01*
X0241793Y0111477D02*
X0241160Y0111477D01*
X0241161Y0111478D02*
X0241792Y0111478D01*
X0241791Y0111479D02*
X0241162Y0111479D01*
X0241163Y0111480D02*
X0241790Y0111480D01*
X0241790Y0111481D02*
X0241164Y0111481D01*
X0241165Y0111482D02*
X0241789Y0111482D01*
X0241788Y0111483D02*
X0241166Y0111483D01*
X0241167Y0111484D02*
X0241787Y0111484D01*
X0241786Y0111485D02*
X0241168Y0111485D01*
X0241169Y0111486D02*
X0241785Y0111486D01*
X0241784Y0111487D02*
X0241170Y0111487D01*
X0241172Y0111488D02*
X0241783Y0111488D01*
X0241782Y0111489D02*
X0241173Y0111489D01*
X0241174Y0111490D02*
X0241781Y0111490D01*
X0241780Y0111491D02*
X0241175Y0111491D01*
X0241176Y0111492D02*
X0241779Y0111492D01*
X0241778Y0111493D02*
X0241177Y0111493D01*
X0241178Y0111494D02*
X0241777Y0111494D01*
X0241776Y0111495D02*
X0241179Y0111495D01*
X0241180Y0111496D02*
X0241775Y0111496D01*
X0241774Y0111497D02*
X0241181Y0111497D01*
X0241182Y0111498D02*
X0241774Y0111498D01*
X0241773Y0111499D02*
X0241183Y0111499D01*
X0241184Y0111500D02*
X0241772Y0111500D01*
X0241771Y0111501D02*
X0241185Y0111501D01*
X0241186Y0111502D02*
X0241770Y0111502D01*
X0241769Y0111503D02*
X0241187Y0111503D01*
X0241188Y0111504D02*
X0241768Y0111504D01*
X0241767Y0111505D02*
X0241189Y0111505D01*
X0241190Y0111506D02*
X0241766Y0111506D01*
X0241765Y0111507D02*
X0241191Y0111507D01*
X0241192Y0111508D02*
X0241764Y0111508D01*
X0241763Y0111509D02*
X0241193Y0111509D01*
X0241194Y0111510D02*
X0241762Y0111510D01*
X0241761Y0111511D02*
X0241195Y0111511D01*
X0241196Y0111512D02*
X0241760Y0111512D01*
X0241759Y0111513D02*
X0241197Y0111513D01*
X0241198Y0111514D02*
X0241758Y0111514D01*
X0241757Y0111515D02*
X0241199Y0111515D01*
X0241200Y0111516D02*
X0241757Y0111516D01*
X0241756Y0111517D02*
X0241201Y0111517D01*
X0241202Y0111518D02*
X0241755Y0111518D01*
X0241754Y0111519D02*
X0241203Y0111519D01*
X0241204Y0111519D02*
X0241753Y0111519D01*
X0241752Y0111520D02*
X0241205Y0111520D01*
X0241206Y0111521D02*
X0241751Y0111521D01*
X0241750Y0111522D02*
X0241207Y0111522D01*
X0241208Y0111523D02*
X0241749Y0111523D01*
X0241748Y0111524D02*
X0241209Y0111524D01*
X0241211Y0111525D02*
X0241747Y0111525D01*
X0241746Y0111526D02*
X0241212Y0111526D01*
X0241213Y0111527D02*
X0241745Y0111527D01*
X0241744Y0111528D02*
X0241214Y0111528D01*
X0241215Y0111529D02*
X0241743Y0111529D01*
X0241742Y0111530D02*
X0241216Y0111530D01*
X0241217Y0111531D02*
X0241741Y0111531D01*
X0241741Y0111532D02*
X0241218Y0111532D01*
X0241219Y0111533D02*
X0241740Y0111533D01*
X0241739Y0111534D02*
X0241220Y0111534D01*
X0241221Y0111535D02*
X0241738Y0111535D01*
X0241737Y0111536D02*
X0241222Y0111536D01*
X0241223Y0111537D02*
X0241736Y0111537D01*
X0241735Y0111538D02*
X0241224Y0111538D01*
X0241225Y0111539D02*
X0241734Y0111539D01*
X0241733Y0111540D02*
X0241226Y0111540D01*
X0241227Y0111541D02*
X0241732Y0111541D01*
X0241731Y0111542D02*
X0241228Y0111542D01*
X0241229Y0111543D02*
X0241730Y0111543D01*
X0241729Y0111544D02*
X0241230Y0111544D01*
X0241231Y0111545D02*
X0241728Y0111545D01*
X0241727Y0111546D02*
X0241232Y0111546D01*
X0241233Y0111547D02*
X0241726Y0111547D01*
X0241725Y0111548D02*
X0241234Y0111548D01*
X0241235Y0111549D02*
X0241724Y0111549D01*
X0241724Y0111550D02*
X0241236Y0111550D01*
X0241237Y0111551D02*
X0241723Y0111551D01*
X0241722Y0111552D02*
X0241238Y0111552D01*
X0241239Y0111553D02*
X0241721Y0111553D01*
X0241720Y0111554D02*
X0241240Y0111554D01*
X0241241Y0111555D02*
X0241719Y0111555D01*
X0241718Y0111556D02*
X0241242Y0111556D01*
X0241243Y0111557D02*
X0241717Y0111557D01*
X0241716Y0111558D02*
X0241244Y0111558D01*
X0241245Y0111559D02*
X0241715Y0111559D01*
X0241714Y0111560D02*
X0241246Y0111560D01*
X0241247Y0111561D02*
X0241713Y0111561D01*
X0241712Y0111562D02*
X0241248Y0111562D01*
X0241249Y0111563D02*
X0241711Y0111563D01*
X0241710Y0111564D02*
X0241251Y0111564D01*
X0241252Y0111565D02*
X0241709Y0111565D01*
X0241708Y0111566D02*
X0241253Y0111566D01*
X0241254Y0111567D02*
X0241708Y0111567D01*
X0241707Y0111568D02*
X0241255Y0111568D01*
X0241256Y0111569D02*
X0241706Y0111569D01*
X0241705Y0111570D02*
X0241257Y0111570D01*
X0241258Y0111571D02*
X0241704Y0111571D01*
X0241703Y0111572D02*
X0241259Y0111572D01*
X0241260Y0111573D02*
X0241702Y0111573D01*
X0241701Y0111574D02*
X0241261Y0111574D01*
X0241262Y0111575D02*
X0241700Y0111575D01*
X0241699Y0111576D02*
X0241263Y0111576D01*
X0241264Y0111577D02*
X0241698Y0111577D01*
X0241697Y0111578D02*
X0241265Y0111578D01*
X0241266Y0111579D02*
X0241696Y0111579D01*
X0241695Y0111580D02*
X0241267Y0111580D01*
X0241268Y0111581D02*
X0241694Y0111581D01*
X0241693Y0111581D02*
X0241269Y0111581D01*
X0241270Y0111582D02*
X0241692Y0111582D01*
X0241691Y0111583D02*
X0241271Y0111583D01*
X0241272Y0111584D02*
X0241691Y0111584D01*
X0241690Y0111585D02*
X0241273Y0111585D01*
X0241274Y0111586D02*
X0241689Y0111586D01*
X0241688Y0111587D02*
X0241275Y0111587D01*
X0241276Y0111588D02*
X0241687Y0111588D01*
X0241686Y0111589D02*
X0241277Y0111589D01*
X0241278Y0111590D02*
X0241685Y0111590D01*
X0241684Y0111591D02*
X0241279Y0111591D01*
X0241280Y0111592D02*
X0241683Y0111592D01*
X0241682Y0111593D02*
X0241281Y0111593D01*
X0241282Y0111594D02*
X0241681Y0111594D01*
X0241680Y0111595D02*
X0241283Y0111595D01*
X0241284Y0111596D02*
X0241679Y0111596D01*
X0241678Y0111597D02*
X0241285Y0111597D01*
X0241286Y0111598D02*
X0241677Y0111598D01*
X0241676Y0111599D02*
X0241287Y0111599D01*
X0241288Y0111600D02*
X0241675Y0111600D01*
X0241675Y0111601D02*
X0241289Y0111601D01*
X0241291Y0111602D02*
X0241674Y0111602D01*
X0241673Y0111603D02*
X0241292Y0111603D01*
X0241293Y0111604D02*
X0241672Y0111604D01*
X0241671Y0111605D02*
X0241294Y0111605D01*
X0241295Y0111606D02*
X0241670Y0111606D01*
X0241669Y0111607D02*
X0241296Y0111607D01*
X0241297Y0111608D02*
X0241668Y0111608D01*
X0241667Y0111609D02*
X0241298Y0111609D01*
X0241299Y0111610D02*
X0241666Y0111610D01*
X0241665Y0111611D02*
X0241300Y0111611D01*
X0241301Y0111612D02*
X0241664Y0111612D01*
X0241663Y0111613D02*
X0241302Y0111613D01*
X0241303Y0111614D02*
X0241662Y0111614D01*
X0241661Y0111615D02*
X0241304Y0111615D01*
X0241305Y0111616D02*
X0241660Y0111616D01*
X0241659Y0111617D02*
X0241306Y0111617D01*
X0241307Y0111618D02*
X0241659Y0111618D01*
X0241658Y0111619D02*
X0241308Y0111619D01*
X0241309Y0111620D02*
X0241657Y0111620D01*
X0241656Y0111621D02*
X0241310Y0111621D01*
X0241311Y0111622D02*
X0241655Y0111622D01*
X0241654Y0111623D02*
X0241312Y0111623D01*
X0241313Y0111624D02*
X0241653Y0111624D01*
X0241652Y0111625D02*
X0241314Y0111625D01*
X0241315Y0111626D02*
X0241651Y0111626D01*
X0241650Y0111627D02*
X0241316Y0111627D01*
X0241317Y0111628D02*
X0241649Y0111628D01*
X0241648Y0111629D02*
X0241318Y0111629D01*
X0241319Y0111630D02*
X0241647Y0111630D01*
X0241646Y0111631D02*
X0241320Y0111631D01*
X0241321Y0111632D02*
X0241645Y0111632D01*
X0241644Y0111633D02*
X0241322Y0111633D01*
X0241323Y0111634D02*
X0241643Y0111634D01*
X0241642Y0111635D02*
X0241324Y0111635D01*
X0241325Y0111636D02*
X0241642Y0111636D01*
X0241641Y0111637D02*
X0241326Y0111637D01*
X0241327Y0111638D02*
X0241640Y0111638D01*
X0241639Y0111639D02*
X0241328Y0111639D01*
X0241330Y0111640D02*
X0241638Y0111640D01*
X0241637Y0111641D02*
X0241331Y0111641D01*
X0241332Y0111642D02*
X0241636Y0111642D01*
X0241635Y0111643D02*
X0241333Y0111643D01*
X0241334Y0111644D02*
X0241634Y0111644D01*
X0241633Y0111644D02*
X0241335Y0111644D01*
X0241336Y0111645D02*
X0241632Y0111645D01*
X0241631Y0111646D02*
X0241337Y0111646D01*
X0241338Y0111647D02*
X0241630Y0111647D01*
X0241629Y0111648D02*
X0241339Y0111648D01*
X0241340Y0111649D02*
X0241628Y0111649D01*
X0241627Y0111650D02*
X0241341Y0111650D01*
X0241342Y0111651D02*
X0241626Y0111651D01*
X0241626Y0111652D02*
X0241343Y0111652D01*
X0241344Y0111653D02*
X0241625Y0111653D01*
X0241624Y0111654D02*
X0241345Y0111654D01*
X0241346Y0111655D02*
X0241623Y0111655D01*
X0241622Y0111656D02*
X0241347Y0111656D01*
X0241348Y0111657D02*
X0241621Y0111657D01*
X0241620Y0111658D02*
X0241349Y0111658D01*
X0241350Y0111659D02*
X0241619Y0111659D01*
X0241618Y0111660D02*
X0241351Y0111660D01*
X0241352Y0111661D02*
X0241617Y0111661D01*
X0241616Y0111662D02*
X0241353Y0111662D01*
X0241354Y0111663D02*
X0241615Y0111663D01*
X0241614Y0111664D02*
X0241355Y0111664D01*
X0241356Y0111665D02*
X0241613Y0111665D01*
X0241612Y0111666D02*
X0241357Y0111666D01*
X0241358Y0111667D02*
X0241611Y0111667D01*
X0241610Y0111668D02*
X0241359Y0111668D01*
X0241360Y0111669D02*
X0241609Y0111669D01*
X0241609Y0111670D02*
X0241361Y0111670D01*
X0241362Y0111671D02*
X0241608Y0111671D01*
X0241607Y0111672D02*
X0241363Y0111672D01*
X0241364Y0111673D02*
X0241606Y0111673D01*
X0241605Y0111674D02*
X0241365Y0111674D01*
X0241366Y0111675D02*
X0241604Y0111675D01*
X0241603Y0111676D02*
X0241367Y0111676D01*
X0241368Y0111677D02*
X0241602Y0111677D01*
X0241601Y0111678D02*
X0241370Y0111678D01*
X0241371Y0111679D02*
X0241600Y0111679D01*
X0241599Y0111680D02*
X0241372Y0111680D01*
X0241373Y0111681D02*
X0241598Y0111681D01*
X0241597Y0111682D02*
X0241374Y0111682D01*
X0241375Y0111683D02*
X0241596Y0111683D01*
X0241595Y0111684D02*
X0241376Y0111684D01*
X0241377Y0111685D02*
X0241594Y0111685D01*
X0241593Y0111686D02*
X0241378Y0111686D01*
X0241379Y0111687D02*
X0241593Y0111687D01*
X0241592Y0111688D02*
X0241380Y0111688D01*
X0241381Y0111689D02*
X0241591Y0111689D01*
X0241590Y0111690D02*
X0241382Y0111690D01*
X0241383Y0111691D02*
X0241589Y0111691D01*
X0241588Y0111692D02*
X0241384Y0111692D01*
X0241385Y0111693D02*
X0241587Y0111693D01*
X0241586Y0111694D02*
X0241386Y0111694D01*
X0241387Y0111695D02*
X0241585Y0111695D01*
X0241584Y0111696D02*
X0241388Y0111696D01*
X0241389Y0111697D02*
X0241583Y0111697D01*
X0241582Y0111698D02*
X0241390Y0111698D01*
X0241391Y0111699D02*
X0241581Y0111699D01*
X0241580Y0111700D02*
X0241392Y0111700D01*
X0241393Y0111701D02*
X0241579Y0111701D01*
X0241578Y0111702D02*
X0241394Y0111702D01*
X0241395Y0111703D02*
X0241577Y0111703D01*
X0241577Y0111704D02*
X0241396Y0111704D01*
X0241397Y0111705D02*
X0241576Y0111705D01*
X0241575Y0111706D02*
X0241398Y0111706D01*
X0241399Y0111706D02*
X0241574Y0111706D01*
X0241573Y0111707D02*
X0241400Y0111707D01*
X0241401Y0111708D02*
X0241572Y0111708D01*
X0241571Y0111709D02*
X0241402Y0111709D01*
X0241403Y0111710D02*
X0241570Y0111710D01*
X0241569Y0111711D02*
X0241404Y0111711D01*
X0241405Y0111712D02*
X0241568Y0111712D01*
X0241567Y0111713D02*
X0241406Y0111713D01*
X0241407Y0111714D02*
X0241566Y0111714D01*
X0241565Y0111715D02*
X0241408Y0111715D01*
X0241410Y0111716D02*
X0241564Y0111716D01*
X0241563Y0111717D02*
X0241411Y0111717D01*
X0241412Y0111718D02*
X0241562Y0111718D01*
X0241561Y0111719D02*
X0241413Y0111719D01*
X0241414Y0111720D02*
X0241560Y0111720D01*
X0241560Y0111721D02*
X0241415Y0111721D01*
X0241416Y0111722D02*
X0241559Y0111722D01*
X0241558Y0111723D02*
X0241417Y0111723D01*
X0241418Y0111724D02*
X0241557Y0111724D01*
X0241556Y0111725D02*
X0241419Y0111725D01*
X0241420Y0111726D02*
X0241555Y0111726D01*
X0241554Y0111727D02*
X0241421Y0111727D01*
X0241422Y0111728D02*
X0241553Y0111728D01*
X0241552Y0111729D02*
X0241423Y0111729D01*
X0241424Y0111730D02*
X0241551Y0111730D01*
X0241550Y0111731D02*
X0241425Y0111731D01*
X0241426Y0111732D02*
X0241549Y0111732D01*
X0241548Y0111733D02*
X0241427Y0111733D01*
X0241428Y0111734D02*
X0241547Y0111734D01*
X0241546Y0111735D02*
X0241429Y0111735D01*
X0241430Y0111736D02*
X0241545Y0111736D01*
X0241544Y0111737D02*
X0241431Y0111737D01*
X0241432Y0111738D02*
X0241544Y0111738D01*
X0241543Y0111739D02*
X0241433Y0111739D01*
X0241434Y0111740D02*
X0241542Y0111740D01*
X0241541Y0111741D02*
X0241435Y0111741D01*
X0241436Y0111742D02*
X0241540Y0111742D01*
X0241539Y0111743D02*
X0241437Y0111743D01*
X0241438Y0111744D02*
X0241538Y0111744D01*
X0241537Y0111745D02*
X0241439Y0111745D01*
X0241440Y0111746D02*
X0241536Y0111746D01*
X0241535Y0111747D02*
X0241441Y0111747D01*
X0241442Y0111748D02*
X0241534Y0111748D01*
X0241533Y0111749D02*
X0241443Y0111749D01*
X0241444Y0111750D02*
X0241532Y0111750D01*
X0241531Y0111751D02*
X0241445Y0111751D01*
X0241446Y0111752D02*
X0241530Y0111752D01*
X0241529Y0111753D02*
X0241447Y0111753D01*
X0241448Y0111754D02*
X0241528Y0111754D01*
X0241527Y0111755D02*
X0241450Y0111755D01*
X0241451Y0111756D02*
X0241527Y0111756D01*
X0241526Y0111757D02*
X0241452Y0111757D01*
X0241453Y0111758D02*
X0241525Y0111758D01*
X0241524Y0111759D02*
X0241454Y0111759D01*
X0241455Y0111760D02*
X0241523Y0111760D01*
X0241522Y0111761D02*
X0241456Y0111761D01*
X0241457Y0111762D02*
X0241521Y0111762D01*
X0241520Y0111763D02*
X0241458Y0111763D01*
X0241459Y0111764D02*
X0241519Y0111764D01*
X0241518Y0111765D02*
X0241460Y0111765D01*
X0241461Y0111766D02*
X0241517Y0111766D01*
X0241516Y0111767D02*
X0241462Y0111767D01*
X0241463Y0111768D02*
X0241515Y0111768D01*
X0241514Y0111769D02*
X0241464Y0111769D01*
X0241465Y0111769D02*
X0241513Y0111769D01*
X0241512Y0111770D02*
X0241466Y0111770D01*
X0241467Y0111771D02*
X0241511Y0111771D01*
X0241511Y0111772D02*
X0241468Y0111772D01*
X0241469Y0111773D02*
X0241510Y0111773D01*
X0241509Y0111774D02*
X0241470Y0111774D01*
X0241471Y0111775D02*
X0241508Y0111775D01*
X0241507Y0111776D02*
X0241472Y0111776D01*
X0241473Y0111777D02*
X0241506Y0111777D01*
X0241505Y0111778D02*
X0241474Y0111778D01*
X0241475Y0111779D02*
X0241504Y0111779D01*
X0241503Y0111780D02*
X0241476Y0111780D01*
X0241477Y0111781D02*
X0241502Y0111781D01*
X0241501Y0111782D02*
X0241478Y0111782D01*
X0241479Y0111783D02*
X0241500Y0111783D01*
X0241499Y0111784D02*
X0241480Y0111784D01*
X0241481Y0111785D02*
X0241498Y0111785D01*
X0241497Y0111786D02*
X0241482Y0111786D01*
X0241483Y0111787D02*
X0241496Y0111787D01*
X0241495Y0111788D02*
X0241484Y0111788D01*
X0241485Y0111789D02*
X0241494Y0111789D01*
X0241494Y0111790D02*
X0241486Y0111790D01*
X0241487Y0111791D02*
X0241493Y0111791D01*
X0241492Y0111792D02*
X0241489Y0111792D01*
X0241490Y0111793D02*
X0241491Y0111793D01*
M02*
