G75*
%MOIN*%
%OFA0B0*%
%FSLAX25Y25*%
%IPPOS*%
%LPD*%
%AMOC8*
5,1,8,0,0,1.08239X$1,22.5*
%
%ADD10C,0.00000*%
D10*
X0021911Y0017616D02*
X0021911Y0148679D01*
X0021910Y0148679D02*
X0021915Y0149064D01*
X0021929Y0149450D01*
X0021953Y0149835D01*
X0021987Y0150219D01*
X0022029Y0150603D01*
X0022082Y0150985D01*
X0022143Y0151366D01*
X0022214Y0151745D01*
X0022294Y0152122D01*
X0022383Y0152498D01*
X0022482Y0152871D01*
X0022589Y0153241D01*
X0022706Y0153609D01*
X0022832Y0153974D01*
X0022966Y0154335D01*
X0023110Y0154693D01*
X0023262Y0155048D01*
X0023423Y0155399D01*
X0023592Y0155745D01*
X0023770Y0156088D01*
X0023956Y0156426D01*
X0024150Y0156759D01*
X0024353Y0157087D01*
X0024563Y0157411D01*
X0024781Y0157729D01*
X0025007Y0158041D01*
X0025241Y0158348D01*
X0025482Y0158650D01*
X0025730Y0158945D01*
X0025986Y0159234D01*
X0026249Y0159516D01*
X0026518Y0159792D01*
X0026794Y0160062D01*
X0027077Y0160324D01*
X0027366Y0160580D01*
X0027661Y0160828D01*
X0027962Y0161070D01*
X0028269Y0161303D01*
X0028582Y0161529D01*
X0028900Y0161747D01*
X0029223Y0161958D01*
X0029552Y0162160D01*
X0029885Y0162355D01*
X0030223Y0162541D01*
X0030565Y0162719D01*
X0030912Y0162888D01*
X0031263Y0163049D01*
X0031617Y0163201D01*
X0031975Y0163344D01*
X0032337Y0163479D01*
X0032702Y0163604D01*
X0033070Y0163721D01*
X0033440Y0163828D01*
X0033813Y0163927D01*
X0034188Y0164016D01*
X0034566Y0164096D01*
X0034945Y0164167D01*
X0035326Y0164229D01*
X0035708Y0164281D01*
X0036091Y0164323D01*
X0036476Y0164357D01*
X0036861Y0164381D01*
X0037246Y0164395D01*
X0037632Y0164400D01*
X0037633Y0164400D02*
X0245533Y0164400D01*
X0245533Y0164399D02*
X0245866Y0164349D01*
X0246197Y0164291D01*
X0246528Y0164225D01*
X0246856Y0164151D01*
X0247183Y0164070D01*
X0247507Y0163980D01*
X0247829Y0163882D01*
X0248149Y0163777D01*
X0248466Y0163664D01*
X0248780Y0163544D01*
X0249092Y0163416D01*
X0249400Y0163280D01*
X0249705Y0163137D01*
X0250006Y0162987D01*
X0250303Y0162829D01*
X0250597Y0162664D01*
X0250886Y0162493D01*
X0251172Y0162314D01*
X0251452Y0162128D01*
X0251729Y0161936D01*
X0252000Y0161737D01*
X0252267Y0161532D01*
X0252529Y0161320D01*
X0252785Y0161102D01*
X0253036Y0160878D01*
X0253282Y0160647D01*
X0253522Y0160411D01*
X0253756Y0160169D01*
X0253984Y0159922D01*
X0254207Y0159669D01*
X0254423Y0159411D01*
X0254632Y0159148D01*
X0254836Y0158879D01*
X0255032Y0158606D01*
X0255223Y0158329D01*
X0255406Y0158046D01*
X0255583Y0157760D01*
X0255752Y0157469D01*
X0255914Y0157174D01*
X0256070Y0156875D01*
X0256218Y0156573D01*
X0256358Y0156267D01*
X0256492Y0155958D01*
X0256617Y0155646D01*
X0256735Y0155330D01*
X0256846Y0155012D01*
X0256949Y0154692D01*
X0257044Y0154369D01*
X0257131Y0154044D01*
X0257210Y0153717D01*
X0257281Y0153388D01*
X0257345Y0153057D01*
X0257400Y0152725D01*
X0257447Y0152392D01*
X0257487Y0152057D01*
X0257518Y0151722D01*
X0257541Y0151386D01*
X0257556Y0151050D01*
X0257563Y0150713D01*
X0257561Y0150377D01*
X0257552Y0150040D01*
X0257534Y0149704D01*
X0257508Y0149368D01*
X0257475Y0149034D01*
X0257433Y0148700D01*
X0257415Y0013710D01*
X0257412Y0013425D01*
X0257402Y0013140D01*
X0257385Y0012855D01*
X0257361Y0012570D01*
X0257330Y0012286D01*
X0257293Y0012003D01*
X0257248Y0011721D01*
X0257197Y0011440D01*
X0257139Y0011161D01*
X0257074Y0010883D01*
X0257003Y0010606D01*
X0256925Y0010332D01*
X0256840Y0010059D01*
X0256748Y0009788D01*
X0256651Y0009520D01*
X0256546Y0009254D01*
X0256436Y0008991D01*
X0256319Y0008731D01*
X0256195Y0008473D01*
X0256066Y0008219D01*
X0255930Y0007968D01*
X0255788Y0007720D01*
X0255641Y0007475D01*
X0255487Y0007235D01*
X0255328Y0006998D01*
X0255163Y0006765D01*
X0254992Y0006536D01*
X0254816Y0006311D01*
X0254635Y0006091D01*
X0254448Y0005875D01*
X0254256Y0005663D01*
X0254059Y0005456D01*
X0253858Y0005255D01*
X0253651Y0005058D01*
X0253439Y0004866D01*
X0253223Y0004679D01*
X0253003Y0004498D01*
X0252778Y0004322D01*
X0252549Y0004151D01*
X0252316Y0003986D01*
X0252079Y0003827D01*
X0251839Y0003673D01*
X0251594Y0003526D01*
X0251346Y0003384D01*
X0251095Y0003248D01*
X0250841Y0003119D01*
X0250583Y0002995D01*
X0250323Y0002878D01*
X0250060Y0002768D01*
X0249794Y0002663D01*
X0249526Y0002566D01*
X0249255Y0002474D01*
X0248982Y0002389D01*
X0248708Y0002311D01*
X0248431Y0002240D01*
X0248153Y0002175D01*
X0247874Y0002117D01*
X0247593Y0002066D01*
X0247311Y0002021D01*
X0247028Y0001984D01*
X0246744Y0001953D01*
X0246459Y0001929D01*
X0246174Y0001912D01*
X0245889Y0001902D01*
X0245604Y0001899D01*
X0037628Y0001868D01*
X0037242Y0001874D01*
X0036856Y0001888D01*
X0036471Y0001913D01*
X0036087Y0001947D01*
X0035703Y0001990D01*
X0035321Y0002043D01*
X0034940Y0002105D01*
X0034560Y0002176D01*
X0034183Y0002256D01*
X0033807Y0002346D01*
X0033434Y0002445D01*
X0033064Y0002553D01*
X0032696Y0002671D01*
X0032331Y0002797D01*
X0031969Y0002932D01*
X0031611Y0003076D01*
X0031256Y0003228D01*
X0030906Y0003390D01*
X0030559Y0003559D01*
X0030217Y0003738D01*
X0029879Y0003924D01*
X0029545Y0004119D01*
X0029217Y0004322D01*
X0028894Y0004533D01*
X0028576Y0004752D01*
X0028263Y0004978D01*
X0027956Y0005212D01*
X0027655Y0005454D01*
X0027360Y0005703D01*
X0027071Y0005959D01*
X0026789Y0006222D01*
X0026513Y0006491D01*
X0026243Y0006768D01*
X0025981Y0007051D01*
X0025725Y0007340D01*
X0025477Y0007636D01*
X0025236Y0007938D01*
X0025003Y0008245D01*
X0024777Y0008558D01*
X0024559Y0008877D01*
X0024348Y0009200D01*
X0024146Y0009529D01*
X0023952Y0009863D01*
X0023766Y0010201D01*
X0023588Y0010544D01*
X0023419Y0010891D01*
X0023259Y0011242D01*
X0023107Y0011597D01*
X0022964Y0011955D01*
X0022829Y0012317D01*
X0022704Y0012682D01*
X0022587Y0013050D01*
X0022480Y0013421D01*
X0022382Y0013794D01*
X0022293Y0014170D01*
X0022213Y0014548D01*
X0022142Y0014927D01*
X0022081Y0015308D01*
X0022029Y0015691D01*
X0021987Y0016074D01*
X0021954Y0016459D01*
X0021930Y0016844D01*
X0021916Y0017230D01*
X0021911Y0017616D01*
M02*
